<svg width="26" height="23" viewBox="0 0 26 23" fill="none" xmlns="http://www.w3.org/2000/svg">
<path fill-rule="evenodd" clip-rule="evenodd" d="M24.8526 13.0686L15.4489 22.3417C14.7988 22.9807 13.7463 22.9807 13.0979 22.3417C12.4478 21.7028 12.4478 20.6541 13.0979 20.0152L19.9496 13.2652H2.34914C1.42971 13.2652 0.686523 12.528 0.686523 11.6269C0.686523 10.7258 1.42971 9.98855 2.34914 9.98855H19.9496L13.0979 3.23859C12.4478 2.59964 12.4478 1.56741 13.0979 0.912076C13.7463 0.273123 14.7988 0.273123 15.4489 0.912076L24.8526 10.1851C25.2516 10.5783 25.3763 11.119 25.2849 11.6269C25.3763 12.1348 25.2516 12.6754 24.8526 13.0686Z" fill="white"/>
</svg>
