<svg width="26" height="23" viewBox="0 0 26 23" fill="none" xmlns="http://www.w3.org/2000/svg">
<path fill-rule="evenodd" clip-rule="evenodd" d="M1.14739 9.93136L10.5511 0.658293C11.2012 0.0193404 12.2537 0.0193404 12.9021 0.658293C13.5522 1.29725 13.5522 2.34586 12.9021 2.98481L6.05044 9.73477L23.6509 9.73477C24.5703 9.73477 25.3135 10.472 25.3135 11.3731C25.3135 12.2742 24.5703 13.0114 23.6509 13.0114L6.05044 13.0114L12.9021 19.7614C13.5522 20.4004 13.5522 21.4326 12.9021 22.0879C12.2537 22.7269 11.2012 22.7269 10.5511 22.0879L1.14739 12.8149C0.748364 12.4217 0.623652 11.881 0.715095 11.3731C0.623652 10.8652 0.748364 10.3246 1.14739 9.93136Z" fill="white"/>
</svg>
