<svg width="29" height="29" viewBox="0 0 29 29" fill="none" xmlns="http://www.w3.org/2000/svg">
<path d="M23.5 23.5789H27M4.33333 14.5L2 14.5611M4.33333 14.5C4.33333 16.341 5.82571 17.8333 7.66667 17.8333C9.50761 17.8333 11 16.341 11 14.5C11 12.659 9.50761 11.1667 7.66667 11.1667C5.82571 11.1667 4.33333 12.659 4.33333 14.5ZM11.9569 14.5612H27M15.6125 5.54339H2M27 5.54339H23.5M2 23.5789H15.6125M22.6667 23.6667C22.6667 25.5076 21.1743 27 19.3333 27C17.4924 27 16 25.5076 16 23.6667C16 21.8257 17.4924 20.3333 19.3333 20.3333C21.1743 20.3333 22.6667 21.8257 22.6667 23.6667ZM22.6667 5.33333C22.6667 7.17428 21.1743 8.66667 19.3333 8.66667C17.4924 8.66667 16 7.17428 16 5.33333C16 3.49239 17.4924 2 19.3333 2C21.1743 2 22.6667 3.49239 22.6667 5.33333Z" stroke="white" stroke-width="2.5" stroke-linecap="round"/>
</svg>
