<svg width="54" height="54" viewBox="0 0 54 54" fill="none" xmlns="http://www.w3.org/2000/svg">
<path d="M25.7206 41.6324L25.7212 41.6329C26.0611 41.9708 26.5209 42.1604 27.0001 42.1604C27.4794 42.1604 27.9391 41.9708 28.2791 41.6329L28.2796 41.6324L40.0109 29.8988C43.9517 25.9573 43.9517 19.5475 40.0109 15.6059C36.4178 12.0121 30.9428 12.0808 27.0066 15.0067C25.2622 13.6865 23.2867 12.6455 21.1402 12.6455C18.5516 12.6455 15.9597 13.6352 13.9893 15.6059C10.0485 19.5475 10.0485 25.9573 13.9893 29.8988L25.7206 41.6324ZM25.7206 18.1653L25.7212 18.1658C26.0611 18.5037 26.5209 18.6933 27.0001 18.6933C27.4794 18.6933 27.9391 18.5037 28.2791 18.1658L28.2796 18.1653C30.8379 15.6065 34.8936 15.6065 37.4519 18.1653C40.0103 20.7241 40.0103 24.7806 37.4519 27.3395L27.0058 37.7876L16.5483 27.3395C16.5482 27.3395 16.5482 27.3394 16.5482 27.3394C13.9899 24.7805 13.99 20.7241 16.5483 18.1653C17.8279 16.8855 19.4885 16.2521 21.1402 16.2521C22.7915 16.2521 24.4407 16.8851 25.7206 18.1653Z" fill="#F39F0F" stroke="#F39F0F" stroke-width="0.5"/>
</svg>
