<svg width="39" height="36" viewBox="0 0 39 36" fill="none" xmlns="http://www.w3.org/2000/svg">
<path d="M12.2294 0C9.09646 0 5.96051 1.1976 3.5763 3.58226C-1.1921 8.35156 -1.1921 16.1081 3.5763 20.8774L18.1318 35.4357C18.4955 35.7971 18.9873 36 19.5 36C20.0127 36 20.5045 35.7971 20.8682 35.4357L35.4237 20.8774C40.1921 16.1081 40.1921 8.35156 35.4237 3.58226C31.0346 -0.807663 24.2999 -0.682408 19.5072 3.0091C17.316 1.31808 14.8676 0 12.2294 0ZM12.2294 3.85451C14.3583 3.85451 16.4842 4.67111 18.1318 6.3191C18.4955 6.68055 18.9873 6.88342 19.5 6.88342C20.0127 6.88342 20.5045 6.68055 20.8682 6.3191C24.1635 3.02312 29.392 3.02312 32.6874 6.3191C35.9827 9.61508 35.9827 14.8446 32.6874 18.1405L19.5072 31.3232L6.31263 18.1405C3.01727 14.8446 3.01727 9.61508 6.31263 6.3191C7.96031 4.67111 10.1005 3.85451 12.2294 3.85451Z" fill="#F39F0F"/>
</svg>
