<svg width="63" height="48" viewBox="0 0 63 48" fill="none" xmlns="http://www.w3.org/2000/svg">
<path d="M6.68 3.352C5.528 3.352 3.48 3.48 1.816 3.8L0.664 4.056L0.152 3.672L0.28 1.432L0.792 0.919998L35.48 0.279999C48.536 0.279999 57.24 5.144 57.24 12.44C57.24 16.664 52.504 20.312 45.464 22.296C55.576 23.896 63 28.888 63 34.84C63 42.52 54.296 47.64 41.24 47.64L0.792 47L0.28 46.488L0.152 44.248L0.664 43.864L1.816 44.12C3.48 44.44 5.528 44.568 6.68 44.568V3.352ZM27.16 44.824L29.72 44.888C38.04 44.888 42.52 41.368 42.52 34.84C42.52 28.12 38.04 24.536 29.72 24.536L27.16 24.6V44.824ZM27.16 21.784H28.12C35.16 21.784 38.04 18.584 38.04 12.44C38.04 6.296 34.712 3.032 28.44 3.032L27.16 3.096V21.784Z" fill="#F6E9D6"/>
</svg>
