<svg width="67" height="67" viewBox="0 0 67 67" fill="none" xmlns="http://www.w3.org/2000/svg">
<circle cx="33.5" cy="33.5" r="33.5" fill="#1D6829"/>
<path fill-rule="evenodd" clip-rule="evenodd" d="M49.75 36.25C50.3467 36.25 50.919 36.0129 51.341 35.591C51.7629 35.169 52 34.5967 52 34C52 33.4033 51.7629 32.831 51.341 32.409C50.919 31.9871 50.3467 31.75 49.75 31.75C30.9252 31.75 38.4811 31.75 18.25 31.75C17.6533 31.75 17.081 31.9871 16.659 32.409C16.2371 32.831 16 33.4033 16 34C16 34.5967 16.2371 35.169 16.659 35.591C17.081 36.0129 17.6533 36.25 18.25 36.25C37.2311 36.25 29.3702 36.25 49.75 36.25Z" fill="white"/>
</svg>
