<svg width="45" height="38" viewBox="0 0 45 38" fill="none" xmlns="http://www.w3.org/2000/svg">
<g id="picture- 1" clip-path="url(#clip0_549_5739)">
<path id="Vector" d="M42.1875 -0.138184H2.8125C1.26703 -0.138184 0 1.13884 0 2.69649V35.3038C0 36.8614 1.26562 38.1385 2.8125 38.1385H42.1875C43.733 38.1385 45 36.8614 45 35.3038V2.69649C45 1.13884 43.733 -0.138184 42.1875 -0.138184ZM42.1875 35.3038H2.8125V26.9528L14.1005 15.9274L25.7372 27.6417C26.2167 28.2284 27.0703 28.1533 27.6764 27.6913L32.812 23.0055L42.075 32.5896C42.1102 32.625 42.1495 32.6519 42.1875 32.6817V35.3038ZM42.1875 28.6465L33.9244 20.1241C33.4223 19.6252 32.6377 19.5756 32.0808 20.0022L26.782 24.6539L15.1383 13.0459C14.8894 12.7426 14.5308 12.5583 14.1412 12.5314C13.7545 12.5172 13.372 12.6448 13.088 12.9141L2.80969 22.9942V2.69508H42.1847V28.6451L42.1875 28.6465ZM32.3438 14.0451C33.8934 14.0451 35.1492 12.778 35.1492 11.2175C35.1492 9.65704 33.8948 8.38994 32.3438 8.38994C30.7927 8.38994 29.5383 9.65704 29.5383 11.2175C29.5383 12.778 30.7927 14.0451 32.3438 14.0451Z" fill="#837053"/>
</g>
<defs>
<clipPath id="clip0_549_5739">
<rect width="45" height="38" fill="white"/>
</clipPath>
</defs>
</svg>
