<svg width="54" height="54" viewBox="0 0 54 54" fill="none" xmlns="http://www.w3.org/2000/svg">
<path d="M25.3395 40.097C25.3395 40.6443 25.5569 41.1691 25.9439 41.5561C26.3309 41.943 26.8557 42.1604 27.403 42.1604C27.9502 42.1604 28.4751 41.943 28.862 41.5561C29.249 41.1691 29.4664 40.6443 29.4664 40.097V29.4664H40.097C40.6443 29.4664 41.1691 29.249 41.5561 28.862C41.943 28.4751 42.1604 27.9502 42.1604 27.403C42.1604 26.8557 41.943 26.3309 41.5561 25.9439C41.1691 25.5569 40.6443 25.3395 40.097 25.3395H29.4664V14.7089C29.4664 14.1617 29.249 13.6368 28.862 13.2499C28.4751 12.8629 27.9502 12.6455 27.403 12.6455C26.8557 12.6455 26.3309 12.8629 25.9439 13.2499C25.5569 13.6368 25.3395 14.1617 25.3395 14.7089V25.3395H14.7089C14.1617 25.3395 13.6368 25.5569 13.2499 25.9439C12.8629 26.3309 12.6455 26.8557 12.6455 27.403C12.6455 27.9502 12.8629 28.4751 13.2499 28.862C13.6368 29.249 14.1617 29.4664 14.7089 29.4664H25.3395V40.097Z" fill="#F39F0F" stroke="#F39F0F" stroke-width="0.5"/>
</svg>
