<svg width="67" height="67" viewBox="0 0 67 67" fill="none" xmlns="http://www.w3.org/2000/svg">
<circle cx="33.5" cy="33.5" r="33.5" fill="#1D6829"/>
<path fill-rule="evenodd" clip-rule="evenodd" d="M31.75 49.75C31.75 50.3467 31.9871 50.919 32.409 51.341C32.831 51.7629 33.4033 52 34 52C34.5967 52 35.169 51.7629 35.591 51.341C36.0129 50.919 36.25 50.3467 36.25 49.75V36.25H49.75C50.3467 36.25 50.919 36.0129 51.341 35.591C51.7629 35.169 52 34.5967 52 34C52 33.4033 51.7629 32.831 51.341 32.409C50.919 31.9871 50.3467 31.75 49.75 31.75H36.25V18.25C36.25 17.6533 36.0129 17.081 35.591 16.659C35.169 16.2371 34.5967 16 34 16C33.4033 16 32.831 16.2371 32.409 16.659C31.9871 17.081 31.75 17.6533 31.75 18.25V31.75H18.25C17.6533 31.75 17.081 31.9871 16.659 32.409C16.2371 32.831 16 33.4033 16 34C16 34.5967 16.2371 35.169 16.659 35.591C17.081 36.0129 17.6533 36.25 18.25 36.25H31.75V49.75Z" fill="white"/>
</svg>
