<svg width="36" height="36" viewBox="0 0 36 36" fill="none" xmlns="http://www.w3.org/2000/svg">
<path fill-rule="evenodd" clip-rule="evenodd" d="M15.75 33.75C15.75 34.3467 15.9871 34.919 16.409 35.341C16.831 35.7629 17.4033 36 18 36C18.5967 36 19.169 35.7629 19.591 35.341C20.0129 34.919 20.25 34.3467 20.25 33.75V20.25H33.75C34.3467 20.25 34.919 20.0129 35.341 19.591C35.7629 19.169 36 18.5967 36 18C36 17.4033 35.7629 16.831 35.341 16.409C34.919 15.9871 34.3467 15.75 33.75 15.75H20.25V2.25C20.25 1.65326 20.0129 1.08097 19.591 0.65901C19.169 0.237053 18.5967 0 18 0C17.4033 0 16.831 0.237053 16.409 0.65901C15.9871 1.08097 15.75 1.65326 15.75 2.25V15.75H2.25C1.65326 15.75 1.08097 15.9871 0.65901 16.409C0.237053 16.831 0 17.4033 0 18C0 18.5967 0.237053 19.169 0.65901 19.591C1.08097 20.0129 1.65326 20.25 2.25 20.25H15.75V33.75Z" fill="#F39F0F"/>
</svg>
