<svg width="30" height="34" viewBox="0 0 30 34" fill="none" xmlns="http://www.w3.org/2000/svg">
<path d="M10.8887 27.8257L11.7301 29.7562C11.9802 30.3307 12.3886 30.8191 12.9053 31.1617C13.4222 31.5043 14.0253 31.6868 14.6416 31.6866C15.258 31.6868 15.8612 31.5043 16.378 31.1617C16.8948 30.8191 17.303 30.3307 17.5531 29.7562L18.3946 27.8257C18.6941 27.1407 19.198 26.5697 19.8344 26.1938C20.4748 25.817 21.2155 25.6565 21.9508 25.7353L24.0097 25.9588C24.6224 26.0249 25.2409 25.9083 25.7902 25.623C26.3393 25.3378 26.7956 24.896 27.1035 24.3516C27.4118 23.8073 27.5588 23.1835 27.5264 22.5558C27.494 21.9281 27.2838 21.3235 26.9211 20.8153L25.7021 19.1067C25.2681 18.4938 25.0362 17.7561 25.0398 17C25.0397 16.246 25.2738 15.5114 25.7086 14.9015L26.9275 13.193C27.2901 12.6848 27.5005 12.0801 27.5327 11.4524C27.5651 10.8248 27.4183 10.201 27.1099 9.65676C26.8019 9.11223 26.3457 8.67054 25.7965 8.38524C25.2474 8.09994 24.6289 7.98327 24.016 8.0494L21.9571 8.27296C21.222 8.35173 20.4811 8.19122 19.8407 7.81442C19.203 7.43652 18.6991 6.86244 18.401 6.17441L17.5531 4.24394C17.303 3.6693 16.8948 3.18104 16.378 2.83837C15.8612 2.49571 15.258 2.31337 14.6416 2.31348C14.0253 2.31337 13.4222 2.49571 12.9053 2.83837C12.3886 3.18104 11.9802 3.6693 11.7301 4.24394L10.8887 6.17441C10.5906 6.86244 10.0866 7.43652 9.44893 7.81442C8.80856 8.19122 8.06773 8.35173 7.3325 8.27296L5.26726 8.0494C4.6544 7.98327 4.0359 8.09994 3.48673 8.38524C2.93758 8.67054 2.48135 9.11223 2.17339 9.65676C1.86503 10.201 1.71811 10.8248 1.75049 11.4524C1.78286 12.0801 1.99312 12.6848 2.35576 13.193L3.57474 14.9015C4.00946 15.5114 4.24357 16.246 4.24344 17C4.24357 17.7541 4.00946 18.4888 3.57474 19.0986L2.35576 20.8071C1.99312 21.3153 1.78286 21.9199 1.75049 22.5476C1.71811 23.1753 1.86503 23.7992 2.17339 24.3433C2.48166 24.8876 2.93794 25.3291 3.48702 25.6143C4.0361 25.8995 4.65444 26.0164 5.26726 25.9506L7.3261 25.7271C8.06134 25.6484 8.80215 25.8089 9.44254 26.1856C10.0826 26.5625 10.5889 27.1367 10.8887 27.8257Z" stroke="white" stroke-width="3" stroke-linecap="round" stroke-linejoin="round"/>
<path d="M14.6418 21.6567C17.0158 21.6567 18.9403 19.5719 18.9403 17C18.9403 14.4281 17.0158 12.3433 14.6418 12.3433C12.2678 12.3433 10.3433 14.4281 10.3433 17C10.3433 19.5719 12.2678 21.6567 14.6418 21.6567Z" stroke="white" stroke-width="3" stroke-linecap="round" stroke-linejoin="round"/>
</svg>
