<svg xmlns="http://www.w3.org/2000/svg">

    <symbol id="checkMinuse" viewBox="0 0 23 23">
        <rect x="1" y="1" width="21" height="21" rx="6" stroke="#F39F0F" stroke-width="2"/>
        <path d="M17 11.7433L6.00004 11.7723" stroke="#F39F0F" stroke-width="2" stroke-linecap="round"/>
    </symbol>

    <symbol id="checkPluse" viewBox="0 0 23 23">
        <rect x="1" y="1" width="21" height="21" rx="6" stroke="#1D6829" stroke-width="2"/>
        <path d="M11.5 6L11.5 17" stroke="#1D6829" stroke-width="2" stroke-linecap="round"/>
        <path d="M17 11.7433L6.00004 11.7723" stroke="#1D6829" stroke-width="2" stroke-linecap="round"/>
    </symbol>

    <symbol id="picture" viewBox="0 0 45 38">
        <g id="picture- 1" clip-path="url(#clip0_549_5739)">
        <path id="Vector" d="M42.1875 -0.138184H2.8125C1.26703 -0.138184 0 1.13884 0 2.69649V35.3038C0 36.8614 1.26562 38.1385 2.8125 38.1385H42.1875C43.733 38.1385 45 36.8614 45 35.3038V2.69649C45 1.13884 43.733 -0.138184 42.1875 -0.138184ZM42.1875 35.3038H2.8125V26.9528L14.1005 15.9274L25.7372 27.6417C26.2167 28.2284 27.0703 28.1533 27.6764 27.6913L32.812 23.0055L42.075 32.5896C42.1102 32.625 42.1495 32.6519 42.1875 32.6817V35.3038ZM42.1875 28.6465L33.9244 20.1241C33.4223 19.6252 32.6377 19.5756 32.0808 20.0022L26.782 24.6539L15.1383 13.0459C14.8894 12.7426 14.5308 12.5583 14.1412 12.5314C13.7545 12.5172 13.372 12.6448 13.088 12.9141L2.80969 22.9942V2.69508H42.1847V28.6451L42.1875 28.6465ZM32.3438 14.0451C33.8934 14.0451 35.1492 12.778 35.1492 11.2175C35.1492 9.65704 33.8948 8.38994 32.3438 8.38994C30.7927 8.38994 29.5383 9.65704 29.5383 11.2175C29.5383 12.778 30.7927 14.0451 32.3438 14.0451Z" fill="#311D13"/>
        </g>
        <defs>
        <clipPath id="clip0_549_5739">
        <rect width="45" height="38" fill="white"/>
        </clipPath>
        </defs>
    </symbol>

    <symbol id="close" viewBox="0 0 36 36" fill="none">
        <path fill-rule="evenodd" clip-rule="evenodd" d="M15.75 33.75C15.75 34.3467 15.9871 34.919 16.409 35.341C16.831 35.7629 17.4033 36 18 36C18.5967 36 19.169 35.7629 19.591 35.341C20.0129 34.919 20.25 34.3467 20.25 33.75V20.25H33.75C34.3467 20.25 34.919 20.0129 35.341 19.591C35.7629 19.169 36 18.5967 36 18C36 17.4033 35.7629 16.831 35.341 16.409C34.919 15.9871 34.3467 15.75 33.75 15.75H20.25V2.25C20.25 1.65326 20.0129 1.08097 19.591 0.65901C19.169 0.237053 18.5967 0 18 0C17.4033 0 16.831 0.237053 16.409 0.65901C15.9871 1.08097 15.75 1.65326 15.75 2.25V15.75H2.25C1.65326 15.75 1.08097 15.9871 0.65901 16.409C0.237053 16.831 0 17.4033 0 18C0 18.5967 0.237053 19.169 0.65901 19.591C1.08097 20.0129 1.65326 20.25 2.25 20.25H15.75V33.75Z" fill="white"/>
    </symbol>

    <symbol id="pluse" viewBox="0 0 67 67" fill="none">
        <path fill-rule="evenodd" clip-rule="evenodd" d="M31.75 49.75C31.75 50.3467 31.9871 50.919 32.409 51.341C32.831 51.7629 33.4033 52 34 52C34.5967 52 35.169 51.7629 35.591 51.341C36.0129 50.919 36.25 50.3467 36.25 49.75V36.25H49.75C50.3467 36.25 50.919 36.0129 51.341 35.591C51.7629 35.169 52 34.5967 52 34C52 33.4033 51.7629 32.831 51.341 32.409C50.919 31.9871 50.3467 31.75 49.75 31.75H36.25V18.25C36.25 17.6533 36.0129 17.081 35.591 16.659C35.169 16.2371 34.5967 16 34 16C33.4033 16 32.831 16.2371 32.409 16.659C31.9871 17.081 31.75 17.6533 31.75 18.25V31.75H18.25C17.6533 31.75 17.081 31.9871 16.659 32.409C16.2371 32.831 16 33.4033 16 34C16 34.5967 16.2371 35.169 16.659 35.591C17.081 36.0129 17.6533 36.25 18.25 36.25H31.75V49.75Z" fill="white"/>
    </symbol>

    <symbol id="compil-pluse" viewBox="0 0 36 36" fill="none">
        <path fill-rule="evenodd" clip-rule="evenodd" d="M15.75 33.75C15.75 34.3467 15.9871 34.919 16.409 35.341C16.831 35.7629 17.4033 36 18 36C18.5967 36 19.169 35.7629 19.591 35.341C20.0129 34.919 20.25 34.3467 20.25 33.75V20.25H33.75C34.3467 20.25 34.919 20.0129 35.341 19.591C35.7629 19.169 36 18.5967 36 18C36 17.4033 35.7629 16.831 35.341 16.409C34.919 15.9871 34.3467 15.75 33.75 15.75H20.25V2.25C20.25 1.65326 20.0129 1.08097 19.591 0.65901C19.169 0.237053 18.5967 0 18 0C17.4033 0 16.831 0.237053 16.409 0.65901C15.9871 1.08097 15.75 1.65326 15.75 2.25V15.75H2.25C1.65326 15.75 1.08097 15.9871 0.65901 16.409C0.237053 16.831 0 17.4033 0 18C0 18.5967 0.237053 19.169 0.65901 19.591C1.08097 20.0129 1.65326 20.25 2.25 20.25H15.75V33.75Z" fill="#1D6829"/>
    </symbol>

    <symbol id="minuse" viewBox="0 0 67 67" fill="none">
        <path fill-rule="evenodd" clip-rule="evenodd" d="M49.75 36.25C50.3467 36.25 50.919 36.0129 51.341 35.591C51.7629 35.169 52 34.5967 52 34C52 33.4033 51.7629 32.831 51.341 32.409C50.919 31.9871 50.3467 31.75 49.75 31.75C30.9252 31.75 38.4811 31.75 18.25 31.75C17.6533 31.75 17.081 31.9871 16.659 32.409C16.2371 32.831 16 33.4033 16 34C16 34.5967 16.2371 35.169 16.659 35.591C17.081 36.0129 17.6533 36.25 18.25 36.25C37.2311 36.25 29.3702 36.25 49.75 36.25Z" fill="white"/>
    </symbol>

    <symbol id="time" viewBox="0 0 43 43" fill="none">
        <path d="M21.5 41C32.2696 41 41 32.2696 41 21.5C41 10.7305 32.2696 2 21.5 2C10.7305 2 2 10.7305 2 21.5C2 32.2696 10.7305 41 21.5 41Z" stroke="white" stroke-width="3.5" stroke-linecap="round" stroke-linejoin="round"/>
        <path d="M21 10V21" stroke="white" stroke-width="3.5" stroke-linecap="round" stroke-linejoin="round"/>
        <path d="M29 29L21 21" stroke="white" stroke-width="3.5" stroke-linecap="round" stroke-linejoin="round"/>   
    </symbol>

    <symbol id="money" viewBox="0 0 39 35" fill="none">
        <path d="M31.1667 9.75V8.2C31.1667 6.02981 31.1667 4.94469 30.7428 4.11579C30.37 3.38665 29.775 2.79385 29.0433 2.42236C28.2115 2 27.1224 2 24.9444 2H8.22222C6.04423 2 4.95524 2 4.12337 2.42236C3.39162 2.79385 2.7967 3.38665 2.42387 4.11579C2 4.94469 2 6.02981 2 8.2V9.75M2 9.75V26.8C2 28.9702 2 30.0554 2.42387 30.8843C2.7967 31.6133 3.39162 32.2062 4.12337 32.5776C4.95524 33 6.04423 33 8.22222 33H30.7778C32.9557 33 34.0448 33 34.8767 32.5776C35.6084 32.2062 36.2034 31.6133 36.5761 30.8843C37 30.0554 37 28.9702 37 26.8V15.95C37 13.7798 37 12.6947 36.5761 11.8658C36.2034 11.1366 35.6084 10.5439 34.8767 10.1724C34.0448 9.75 32.9557 9.75 30.7778 9.75H2ZM37 17.5H33.1111C30.9633 17.5 29.2222 19.2348 29.2222 21.375C29.2222 23.5152 30.9633 25.25 33.1111 25.25H37" stroke="white" stroke-width="3" stroke-linecap="round" stroke-linejoin="round"/>
    </symbol>

    <symbol id="cook" viewBox="0 0 43 43" fill="none">
        <path d="M34.2333 8.41706C32.4957 3.47412 27.4761 0 21.5439 0C15.6116 0 10.592 3.47412 8.76673 8.41706C3.93143 8.50501 0 12.1726 0 16.6494C0 20.5809 3.19429 23.9671 7.30122 24.6971V41.1706C7.30122 42.1732 8.12612 43 9.12653 43H33.9612C34.9616 43 35.6988 42.1732 35.6988 41.1706V24.7059C39.9022 23.9759 43 20.6776 43 16.6582C43 12.1726 39.0773 8.51381 34.2333 8.41706ZM34.049 21.3197C33.0486 21.3197 32.2237 22.1465 32.2237 23.1491V39.4379H10.9518V23.1491C10.9518 22.1465 10.1269 21.3197 9.12653 21.3197C6.11653 21.3197 3.65061 19.2176 3.65061 16.6494C3.65061 14.09 6.11653 11.9791 9.12653 11.9791C9.31082 11.9791 9.58286 12.0671 9.95143 12.0671C10.8641 12.155 11.7767 11.5218 11.961 10.6071C12.7859 6.4909 16.7963 3.56208 21.5439 3.56208C26.2914 3.56208 30.3106 6.57885 31.2233 10.6071C31.4075 11.5218 32.3202 12.1638 33.2329 12.0671C33.5049 11.9791 33.7769 11.9791 34.0578 11.9791C37.0678 11.9791 39.5337 14.0812 39.5337 16.6494C39.5337 19.2176 37.0678 21.3197 34.049 21.3197Z" fill="white"/>
        <path d="M17.8933 27.2041C16.8929 27.2041 16.068 28.029 16.068 29.0294V33.9612C16.068 34.9617 16.8929 35.7866 17.8933 35.7866C18.806 35.7866 19.6308 35.0582 19.7186 33.9612V29.0294C19.7186 28.029 18.9025 27.2041 17.8933 27.2041Z" fill="white"/>
        <path d="M25.1944 27.2041C24.194 27.2041 23.3691 28.029 23.3691 29.0294V33.9612C23.3691 34.9617 24.194 35.7866 25.1944 35.7866C26.1949 35.7866 27.0198 35.0582 27.0198 33.9612V29.0294C27.0198 28.029 26.2036 27.2041 25.1944 27.2041Z" fill="white"/>
    </symbol>

    <symbol id="eating" viewBox="0 0 45 33" fill="none">
        <path d="M20.9358 3.20856H24.1444C25.1069 3.20856 25.7487 2.56684 25.7487 1.60428C25.7487 0.641711 25.1069 0 24.1444 0H20.9358C19.9733 0 19.3315 0.641711 19.3315 1.60428C19.3315 2.56684 19.9733 3.20856 20.9358 3.20856Z" fill="white"/>
        <path d="M44.8396 23.2619C44.5187 22.7806 43.877 22.4598 43.3957 22.4598H41.631C40.8289 15.401 35.0535 8.34214 27.6738 6.09615C24.3048 4.97316 20.615 4.97316 17.246 6.09615C10.0267 8.34214 4.09091 15.401 3.4492 22.4598H1.68449C1.20321 22.4598 0.561497 22.7806 0.240642 23.2619C-0.0802139 23.7432 -0.0802139 24.3849 0.240642 24.8662C2.48663 29.3582 6.97861 32.0855 12.1123 32.0855H33.1283C38.1016 32.0855 42.754 29.3582 45 24.7058C45 24.2245 45 23.7432 44.8396 23.2619ZM18.2086 9.14428C20.9358 8.34214 23.984 8.34214 26.7112 9.14428C32.6471 10.909 37.6203 16.6844 38.4225 22.4598H6.65775C7.45989 16.6844 12.2727 11.0694 18.2086 9.14428ZM32.9679 28.8769H12.1123C9.2246 28.8769 6.65775 27.7539 4.73262 25.6683H40.3476C38.4225 27.7539 35.8556 28.8769 32.9679 28.8769Z" fill="white"/>
    </symbol>

    <symbol id="apple" viewBox="0 0 37 40" fill="none">
        <path d="M23.4333 6.04423C22.7337 6.04943 22.0362 6.11517 21.3511 6.24052C21.8585 5.38923 22.6389 4.68934 23.5944 4.22861C24.5499 3.76788 25.638 3.56682 26.7222 3.65062C27.2674 3.65062 27.7902 3.45914 28.1757 3.1183C28.5612 2.77746 28.7778 2.31518 28.7778 1.83315C28.7778 1.35113 28.5612 0.888852 28.1757 0.54801C27.7902 0.207169 27.2674 0.0156859 26.7222 0.0156859C24.4738 -0.105731 22.2494 0.480714 20.4433 1.67105C18.6372 2.86139 17.3662 4.57873 16.8556 6.51859C15.794 6.20968 14.6842 6.04962 13.5667 6.04423C5.96111 6.04423 0 12.5181 0 20.7821C0 28.4336 5.41022 40 13.5667 40C14.9602 39.9983 16.3401 39.7582 17.6305 39.293C18.1867 39.0932 18.8092 39.0932 19.3654 39.293C20.657 39.7587 22.0384 39.9988 23.4333 40C31.5898 40 37 28.4336 37 20.7821C37 12.5181 31.0389 6.04423 23.4333 6.04423ZM23.4333 36.3651C21.1989 36.3651 20.6933 35.5072 18.5 35.5072C16.3067 35.5072 15.8113 36.3651 13.5667 36.3651C9.14928 36.3651 4.11111 28.0647 4.11111 20.7821C4.11111 12.0001 11.7043 7.53092 17.4003 10.7188C17.7292 10.9029 18.1106 11.0007 18.5 11.0007C18.8894 11.0007 19.2708 10.9029 19.5997 10.7188C25.3676 7.49094 32.8889 12.1146 32.8889 20.7821C32.8889 28.0647 27.8507 36.3651 23.4333 36.3651Z" fill="white"/>  
    </symbol>

    <symbol id="type-eat" viewBox="0 0 44 44" fill="none">
        <path d="M22.0004 42.9999C33.5794 42.9999 43 33.5796 43 22.0001C43 10.4205 33.5792 1.00024 22.0004 1.00024C10.4206 1.00024 1 10.4205 1 22.0001C1 33.5796 10.4206 42.9999 22.0004 42.9999ZM22.0004 3.78768C32.0428 3.78768 40.2126 11.9577 40.2126 22.0001C40.2126 32.0425 32.0428 40.2124 22.0004 40.2124C11.9574 40.2124 3.78744 32.0425 3.78744 22.0001C3.78744 11.9577 11.9574 3.78768 22.0004 3.78768Z" fill="white" stroke="white"/>
        <path d="M22.0003 34.4223C28.8496 34.4223 34.4224 28.8496 34.4224 21.9999C34.4224 15.1501 28.8498 9.57764 22.0003 9.57764C15.1503 9.57764 9.57764 15.1499 9.57764 21.9999C9.57764 28.8494 15.1501 34.4223 22.0003 34.4223ZM22.0003 12.3651C27.3126 12.3651 31.635 16.6871 31.635 21.9999C31.635 27.3124 27.3126 31.6348 22.0003 31.6348C16.6873 31.6348 12.3651 27.3124 12.3651 21.9999C12.3651 16.6871 16.6873 12.3651 22.0003 12.3651Z" fill="white" stroke="white"/>
    </symbol>

    <symbol id="flag" viewBox="0 0 36 40" fill="none">
        <path d="M2 38V27.3742M2 27.3742C13.6364 18.2754 22.3636 36.4726 34 27.3738V4.62694C22.3636 13.7257 13.6364 -4.47221 2 4.62654V27.3742Z" stroke="white" stroke-width="3.5" stroke-linecap="round" stroke-linejoin="round"/>
    </symbol>

    <symbol id="gift" viewBox="0 0 37 37" fill="none">
        <path d="M18.5 11.1667V35M18.5 11.1667H10.25C9.03443 11.1667 7.86863 10.6838 7.00909 9.82424C6.14955 8.9647 5.66667 7.79891 5.66667 6.58333C5.66667 5.36776 6.14955 4.20196 7.00909 3.34242C7.86863 2.48288 9.03443 2 10.25 2C16.6667 2 18.5 11.1667 18.5 11.1667ZM18.5 11.1667H26.75C27.9655 11.1667 29.1313 10.6838 29.991 9.82424C30.8504 8.9647 31.3333 7.79891 31.3333 6.58333C31.3333 5.36776 30.8504 4.20196 29.991 3.34242C29.1313 2.48288 27.9655 2 26.75 2C20.3333 2 18.5 11.1667 18.5 11.1667ZM2 22.1667H35M7.86667 35H29.1333C31.1868 35 32.2137 35 32.998 34.6003C33.6879 34.2489 34.2489 33.6879 34.6003 32.998C35 32.2137 35 31.1868 35 29.1333V17.0333C35 14.9798 35 13.953 34.6003 13.1687C34.2489 12.4788 33.6879 11.9178 32.998 11.5663C32.2137 11.1667 31.1868 11.1667 29.1333 11.1667H7.86667C5.81315 11.1667 4.78637 11.1667 4.00204 11.5663C3.3121 11.9178 2.75117 12.4788 2.39965 13.1687C2 13.953 2 14.9798 2 17.0333V29.1333C2 31.1868 2 32.2137 2.39965 32.998C2.75117 33.6879 3.3121 34.2489 4.00204 34.6003C4.78637 35 5.81313 35 7.86667 35Z" stroke="white" stroke-width="3" stroke-linecap="round" stroke-linejoin="round"/>
    </symbol>

    <symbol id="tag" viewBox="0 0 40 35" fill="none">
        <path fill-rule="evenodd" clip-rule="evenodd" d="M16.7529 1H21.584C23.4951 0.999983 25.0263 0.999965 26.2813 1.12529C27.5811 1.25508 28.6849 1.52641 29.7241 2.12742C30.7611 2.72717 31.5612 3.55552 32.35 4.62936C33.1146 5.67002 33.9241 7.02159 34.9386 8.71567L36.2113 10.8406C37.0588 12.2554 37.7465 13.4035 38.2144 14.4021C38.7022 15.4428 39 16.4181 39 17.5C39 18.5819 38.7022 19.5572 38.2144 20.5979C37.7465 21.5965 37.0588 22.7445 36.2113 24.1594L34.9386 26.2844C33.9241 27.9785 33.1146 29.3301 32.35 30.3707C31.5612 31.4446 30.7611 32.2728 29.7241 32.8726C28.6849 33.4736 27.5811 33.7449 26.2813 33.8748C25.0263 34 23.4951 34 21.584 34H16.7529C13.4154 34 10.7711 34 8.70149 33.7098C6.56787 33.4103 4.84997 32.7797 3.50065 31.3718C2.15732 29.9701 1.56113 28.1959 1.27705 25.991C0.999965 23.8403 0.999983 21.0886 1 17.5981V17.4019C0.999983 13.9114 0.999965 11.1596 1.27705 9.00898C1.56113 6.80417 2.15732 5.02996 3.50065 3.62821C4.84997 2.2202 6.56787 1.58963 8.70149 1.29029C10.7711 0.999947 13.4154 0.999965 16.7529 1ZM9.06652 3.9405C7.24336 4.19627 6.1849 4.67592 5.40632 5.48838C4.62174 6.30706 4.15398 7.42997 3.90608 9.35401C3.6538 11.3121 3.65116 13.8896 3.65116 17.5C3.65116 21.1104 3.6538 23.6879 3.90608 25.646C4.15398 27.57 4.62174 28.6929 5.40632 29.5116C6.1849 30.3242 7.24336 30.8038 9.06652 31.0594C10.9325 31.3213 13.3923 31.3243 16.8557 31.3243H21.5165C23.5107 31.3243 24.9108 31.3229 26.0203 31.2119C27.0998 31.1042 27.8018 30.9003 28.406 30.5511C29.0122 30.2004 29.5551 29.6827 30.2204 28.7771C30.9016 27.8499 31.6474 26.6071 32.7035 24.8438L33.9068 22.8349C34.7984 21.3462 35.4146 20.3145 35.8177 19.454C36.2078 18.6215 36.3488 18.0489 36.3488 17.5C36.3488 16.9511 36.2078 16.3785 35.8177 15.546C35.4146 14.6855 34.7984 13.6538 33.9068 12.1651L32.7035 10.1562C31.6474 8.39293 30.9016 7.15017 30.2204 6.22288C29.5551 5.31729 29.0122 4.79955 28.406 4.44895C27.8018 4.09961 27.0998 3.89578 26.0203 3.78797C24.9108 3.67718 23.5107 3.67568 21.5165 3.67568H16.8557C13.3923 3.67568 10.9325 3.67871 9.06652 3.9405ZM11.1628 8.12643C11.8949 8.12643 12.4884 8.72539 12.4884 9.46427V25.527C12.4884 26.2659 11.8949 26.8649 11.1628 26.8649C10.4307 26.8649 9.83721 26.2659 9.83721 25.527V9.46427C9.83721 8.72539 10.4307 8.12643 11.1628 8.12643Z" fill="white" stroke="white"/>
    </symbol>

    <symbol id="checkmark" viewBox="0 0 23 23" fill="none">
        <rect x="1" y="1" width="21" height="21" rx="6" stroke="#F39F0F" stroke-width="2"/>
    </symbol>

    <symbol id="like" viewBox="0 0 28 27" fill="none">
        <path d="M8.79114 0.462677C6.54665 0.462677 4.3 1.32066 2.59191 3.02907C-0.824257 6.44589 -0.824257 12.0028 2.59191 15.4196L13.0198 25.8494C13.2803 26.1084 13.6326 26.2537 13.9999 26.2537C14.3672 26.2537 14.7196 26.1084 14.9801 25.8494L25.408 15.4196C28.8241 12.0028 28.8241 6.44589 25.408 3.02907C22.2635 -0.115947 17.4387 -0.0262125 14.0051 2.61845C12.4353 1.40698 10.6812 0.462677 8.79114 0.462677ZM8.79114 3.22412C10.3163 3.22412 11.8393 3.80914 13.0198 4.98979C13.2803 5.24874 13.6326 5.39409 13.9999 5.39409C14.3672 5.39409 14.7196 5.24874 14.9801 4.98979C17.341 2.62849 21.0867 2.62849 23.4476 4.98979C25.8085 7.3511 25.8085 11.0976 23.4476 13.4589L14.0051 22.9032L4.55227 13.4589C2.19141 11.0976 2.19141 7.3511 4.55227 4.98979C5.73269 3.80914 7.26597 3.22412 8.79114 3.22412Z" fill="white"/>
    </symbol>

    <symbol id="setting" viewBox="0 0 30 34" fill="none">
        <path d="M10.8887 27.8257L11.7301 29.7562C11.9802 30.3307 12.3886 30.8191 12.9053 31.1617C13.4222 31.5043 14.0253 31.6868 14.6416 31.6866C15.258 31.6868 15.8612 31.5043 16.378 31.1617C16.8948 30.8191 17.303 30.3307 17.5531 29.7562L18.3946 27.8257C18.6941 27.1407 19.198 26.5697 19.8344 26.1938C20.4748 25.817 21.2155 25.6565 21.9508 25.7353L24.0097 25.9588C24.6224 26.0249 25.2409 25.9083 25.7902 25.623C26.3393 25.3378 26.7956 24.896 27.1035 24.3516C27.4118 23.8073 27.5588 23.1835 27.5264 22.5558C27.494 21.9281 27.2838 21.3235 26.9211 20.8153L25.7021 19.1067C25.2681 18.4938 25.0362 17.7561 25.0398 17C25.0397 16.246 25.2738 15.5114 25.7086 14.9015L26.9275 13.193C27.2901 12.6848 27.5005 12.0801 27.5327 11.4524C27.5651 10.8248 27.4183 10.201 27.1099 9.65676C26.8019 9.11223 26.3457 8.67054 25.7965 8.38524C25.2474 8.09994 24.6289 7.98327 24.016 8.0494L21.9571 8.27296C21.222 8.35173 20.4811 8.19122 19.8407 7.81442C19.203 7.43652 18.6991 6.86244 18.401 6.17441L17.5531 4.24394C17.303 3.6693 16.8948 3.18104 16.378 2.83837C15.8612 2.49571 15.258 2.31337 14.6416 2.31348C14.0253 2.31337 13.4222 2.49571 12.9053 2.83837C12.3886 3.18104 11.9802 3.6693 11.7301 4.24394L10.8887 6.17441C10.5906 6.86244 10.0866 7.43652 9.44893 7.81442C8.80856 8.19122 8.06773 8.35173 7.3325 8.27296L5.26726 8.0494C4.6544 7.98327 4.0359 8.09994 3.48673 8.38524C2.93758 8.67054 2.48135 9.11223 2.17339 9.65676C1.86503 10.201 1.71811 10.8248 1.75049 11.4524C1.78286 12.0801 1.99312 12.6848 2.35576 13.193L3.57474 14.9015C4.00946 15.5114 4.24357 16.246 4.24344 17C4.24357 17.7541 4.00946 18.4888 3.57474 19.0986L2.35576 20.8071C1.99312 21.3153 1.78286 21.9199 1.75049 22.5476C1.71811 23.1753 1.86503 23.7992 2.17339 24.3433C2.48166 24.8876 2.93794 25.3291 3.48702 25.6143C4.0361 25.8995 4.65444 26.0164 5.26726 25.9506L7.3261 25.7271C8.06134 25.6484 8.80215 25.8089 9.44254 26.1856C10.0826 26.5625 10.5889 27.1367 10.8887 27.8257Z" stroke="white" stroke-width="3" stroke-linecap="round" stroke-linejoin="round"/>
        <path d="M14.6418 21.6567C17.0158 21.6567 18.9403 19.5719 18.9403 17C18.9403 14.4281 17.0158 12.3433 14.6418 12.3433C12.2678 12.3433 10.3433 14.4281 10.3433 17C10.3433 19.5719 12.2678 21.6567 14.6418 21.6567Z" stroke="white" stroke-width="3" stroke-linecap="round" stroke-linejoin="round"/>
    </symbol>

    <symbol id="logo" viewBox="0 0 63 48" fill="none">
        <path d="M6.68 3.352C5.528 3.352 3.48 3.48 1.816 3.8L0.664 4.056L0.152 3.672L0.28 1.432L0.792 0.919998L35.48 0.279999C48.536 0.279999 57.24 5.144 57.24 12.44C57.24 16.664 52.504 20.312 45.464 22.296C55.576 23.896 63 28.888 63 34.84C63 42.52 54.296 47.64 41.24 47.64L0.792 47L0.28 46.488L0.152 44.248L0.664 43.864L1.816 44.12C3.48 44.44 5.528 44.568 6.68 44.568V3.352ZM27.16 44.824L29.72 44.888C38.04 44.888 42.52 41.368 42.52 34.84C42.52 28.12 38.04 24.536 29.72 24.536L27.16 24.6V44.824ZM27.16 21.784H28.12C35.16 21.784 38.04 18.584 38.04 12.44C38.04 6.296 34.712 3.032 28.44 3.032L27.16 3.096V21.784Z" fill="#F6E9D6"/>
    </symbol>
    <!-- <svg width="63" height="48"  xmlns="http://www.w3.org/2000/svg"> -->

</svg>
</svg>