<svg width="55" height="55" viewBox="0 0 55 55" fill="none" xmlns="http://www.w3.org/2000/svg">
<circle cx="27.5" cy="27.5" r="27.5" fill="#1D6829"/>
<path d="M44.3505 18.6496C43.9533 19.8694 43.4179 20.9312 42.7471 21.8952L42.775 21.8521C42.116 22.9249 41.329 24.1643 40.414 25.5704C39.6295 26.6805 39.2142 27.2552 39.1681 27.2945C38.9651 27.5431 38.8239 27.8477 38.7753 28.1824L38.7739 28.1925C38.8136 28.4971 38.9577 28.7629 39.1681 28.9611L39.7565 29.6019C42.9045 32.7618 44.6751 34.9399 45.0683 36.1362C45.1198 36.2684 45.1492 36.4207 45.1492 36.5802C45.1492 36.8589 45.058 37.1161 44.9036 37.3273L44.9065 37.3229C44.6476 37.583 44.2858 37.7439 43.8856 37.7439C43.8415 37.7439 43.7959 37.7425 43.7533 37.7382H43.7591H39.8889C39.8889 37.7382 39.8845 37.7382 39.8815 37.7382C39.3858 37.7382 38.9298 37.5686 38.5723 37.287L38.5767 37.2899C38.056 36.8718 37.5926 36.4192 37.1778 35.9279L37.1646 35.9106C36.4869 35.1626 35.8858 34.5328 35.3611 34.0213C33.6135 32.3988 32.3239 31.5875 31.4923 31.5875C31.4614 31.5846 31.4261 31.5832 31.3894 31.5832C31.1466 31.5832 30.9201 31.6564 30.7333 31.7814L30.7377 31.7786C30.5847 31.9653 30.492 32.2067 30.492 32.4668C30.492 32.5185 30.495 32.5673 30.5023 32.6176V32.6119C30.4626 33.063 30.4391 33.5874 30.4391 34.1176C30.4391 34.2886 30.442 34.4581 30.4464 34.6276V34.6032V36.2684C30.4611 36.3359 30.47 36.4135 30.47 36.4925C30.47 36.8402 30.3082 37.1505 30.0551 37.356L30.0537 37.3574C29.4844 37.6117 28.8195 37.7612 28.1178 37.7612C27.9678 37.7612 27.8207 37.754 27.675 37.741L27.6942 37.7425C25.3788 37.6994 23.2311 37.037 21.4056 35.9207L21.4571 35.9494C19.2344 34.6305 17.3926 32.9136 15.9893 30.8849L15.9496 30.8246C14.6168 29.0976 13.3738 27.1465 12.3147 25.0891L12.2117 24.8679C11.5924 23.7156 10.9511 22.299 10.398 20.8421L10.3097 20.5763C10.0846 19.9212 9.92135 19.1597 9.85368 18.3709L9.85074 18.335C9.85074 17.609 10.2881 17.246 11.1629 17.246H15.0317C15.067 17.2431 15.1082 17.2416 15.1508 17.2416C15.5156 17.2416 15.8525 17.3638 16.1187 17.5692L16.1158 17.5663C16.41 17.881 16.6277 18.2675 16.7351 18.6985L16.7395 18.7157C17.4515 20.6798 18.2061 22.3291 19.074 23.9096L18.9755 23.7127C19.6845 25.1064 20.4685 26.306 21.3629 27.4138L21.3291 27.3692C22.1136 28.3098 22.7256 28.7801 23.1649 28.7801C23.1781 28.7815 23.1943 28.7815 23.212 28.7815C23.4297 28.7815 23.6195 28.6666 23.7224 28.4942L23.7239 28.4913C23.8327 28.2183 23.896 27.9008 23.896 27.5704C23.896 27.5 23.8931 27.4296 23.8872 27.3606V27.3692V21.7961C23.8563 21.1395 23.6915 20.526 23.4165 19.9758L23.4282 20.0031C23.2458 19.6238 23.0266 19.2962 22.7663 19.0045L22.7707 19.0103C22.5294 18.7746 22.3647 18.4657 22.3132 18.1209L22.3117 18.1123C22.3117 17.8681 22.4265 17.6482 22.6059 17.5046L22.6074 17.5031C22.7854 17.3437 23.0237 17.2474 23.2841 17.2474H23.2958H29.3947C29.427 17.2431 29.4638 17.2416 29.502 17.2416C29.7889 17.2416 30.0463 17.3681 30.217 17.5663L30.2184 17.5678C30.3699 17.8379 30.4597 18.1612 30.4597 18.5031C30.4597 18.5577 30.4567 18.6109 30.4523 18.664V18.6568V26.0891C30.4494 26.1236 30.4479 26.1638 30.4479 26.204C30.4479 26.4684 30.5229 26.7169 30.6524 26.9281L30.6494 26.9224C30.7568 27.0776 30.9363 27.1781 31.1393 27.1781C31.3982 27.1609 31.635 27.0776 31.8336 26.9454L31.8292 26.9483C32.2293 26.6796 32.5735 26.3736 32.8721 26.0273L32.878 26.0201C33.7709 25.0345 34.5947 23.9455 35.3126 22.7875L35.3699 22.6869C35.876 21.8679 36.4232 20.8594 36.9189 19.8235L37.0101 19.6123L37.6662 18.3307C37.8942 17.6899 38.5061 17.2388 39.2255 17.2388C39.2534 17.2388 39.2814 17.2388 39.3093 17.2402H39.3049H43.1751C44.2205 17.2402 44.6128 17.71 44.352 18.6496H44.3505Z" fill="white"/>
</svg>
