<svg width="26" height="22" viewBox="0 0 26 22" fill="none" xmlns="http://www.w3.org/2000/svg">
<g id="picture- 1" clip-path="url(#clip0_563_4862)">
<path id="Vector" d="M24.375 -0.0800781H1.625C0.732063 -0.0800781 0 0.659251 0 1.56105V20.439C0 21.3408 0.73125 22.0801 1.625 22.0801H24.375C25.2679 22.0801 26 21.3408 26 20.439V1.56105C26 0.659251 25.2679 -0.0800781 24.375 -0.0800781ZM24.375 20.439H1.625V15.6042L8.14694 9.22102L14.8704 16.003C15.1474 16.3427 15.6406 16.2992 15.9908 16.0317L18.9581 13.3189L24.31 18.8676C24.3303 18.8881 24.3531 18.9037 24.375 18.9209V20.439ZM24.375 16.5848L19.6007 11.6507C19.3107 11.3619 18.8573 11.3332 18.5356 11.5801L15.4741 14.2732L8.74656 7.55281C8.60275 7.37721 8.39556 7.27054 8.1705 7.25495C7.94706 7.24674 7.72606 7.32059 7.56194 7.4765L1.62338 13.3124V1.56023H24.3734V16.5839L24.375 16.5848ZM18.6875 8.13131C19.5829 8.13131 20.3084 7.39773 20.3084 6.49428C20.3084 5.59084 19.5837 4.85726 18.6875 4.85726C17.7913 4.85726 17.0666 5.59084 17.0666 6.49428C17.0666 7.39773 17.7913 8.13131 18.6875 8.13131Z" fill="#837053"/>
</g>
<defs>
<clipPath id="clip0_563_4862">
<rect width="26" height="22" fill="white"/>
</clipPath>
</defs>
</svg>
