<svg width="37" height="40" viewBox="0 0 37 40" fill="none" xmlns="http://www.w3.org/2000/svg">
<path d="M23.4333 6.04423C22.7337 6.04943 22.0362 6.11517 21.3511 6.24052C21.8585 5.38923 22.6389 4.68934 23.5944 4.22861C24.5499 3.76788 25.638 3.56682 26.7222 3.65062C27.2674 3.65062 27.7902 3.45914 28.1757 3.1183C28.5612 2.77746 28.7778 2.31518 28.7778 1.83315C28.7778 1.35113 28.5612 0.888852 28.1757 0.54801C27.7902 0.207169 27.2674 0.0156859 26.7222 0.0156859C24.4738 -0.105731 22.2494 0.480714 20.4433 1.67105C18.6372 2.86139 17.3662 4.57873 16.8556 6.51859C15.794 6.20968 14.6842 6.04962 13.5667 6.04423C5.96111 6.04423 0 12.5181 0 20.7821C0 28.4336 5.41022 40 13.5667 40C14.9602 39.9983 16.3401 39.7582 17.6305 39.293C18.1867 39.0932 18.8092 39.0932 19.3654 39.293C20.657 39.7587 22.0384 39.9988 23.4333 40C31.5898 40 37 28.4336 37 20.7821C37 12.5181 31.0389 6.04423 23.4333 6.04423ZM23.4333 36.3651C21.1989 36.3651 20.6933 35.5072 18.5 35.5072C16.3067 35.5072 15.8113 36.3651 13.5667 36.3651C9.14928 36.3651 4.11111 28.0647 4.11111 20.7821C4.11111 12.0001 11.7043 7.53092 17.4003 10.7188C17.7292 10.9029 18.1106 11.0007 18.5 11.0007C18.8894 11.0007 19.2708 10.9029 19.5997 10.7188C25.3676 7.49094 32.8889 12.1146 32.8889 20.7821C32.8889 28.0647 27.8507 36.3651 23.4333 36.3651Z" fill="white"/>
</svg>
