<svg width="43" height="43" viewBox="0 0 43 43" fill="none" xmlns="http://www.w3.org/2000/svg">
<path d="M34.2333 8.41706C32.4957 3.47412 27.4761 0 21.5439 0C15.6116 0 10.592 3.47412 8.76673 8.41706C3.93143 8.50501 0 12.1726 0 16.6494C0 20.5809 3.19429 23.9671 7.30122 24.6971V41.1706C7.30122 42.1732 8.12612 43 9.12653 43H33.9612C34.9616 43 35.6988 42.1732 35.6988 41.1706V24.7059C39.9022 23.9759 43 20.6776 43 16.6582C43 12.1726 39.0773 8.51381 34.2333 8.41706ZM34.049 21.3197C33.0486 21.3197 32.2237 22.1465 32.2237 23.1491V39.4379H10.9518V23.1491C10.9518 22.1465 10.1269 21.3197 9.12653 21.3197C6.11653 21.3197 3.65061 19.2176 3.65061 16.6494C3.65061 14.09 6.11653 11.9791 9.12653 11.9791C9.31082 11.9791 9.58286 12.0671 9.95143 12.0671C10.8641 12.155 11.7767 11.5218 11.961 10.6071C12.7859 6.4909 16.7963 3.56208 21.5439 3.56208C26.2914 3.56208 30.3106 6.57885 31.2233 10.6071C31.4075 11.5218 32.3202 12.1638 33.2329 12.0671C33.5049 11.9791 33.7769 11.9791 34.0578 11.9791C37.0678 11.9791 39.5337 14.0812 39.5337 16.6494C39.5337 19.2176 37.0678 21.3197 34.049 21.3197Z" fill="white"/>
<path d="M17.8933 27.2041C16.8929 27.2041 16.068 28.029 16.068 29.0294V33.9612C16.068 34.9617 16.8929 35.7866 17.8933 35.7866C18.806 35.7866 19.6308 35.0582 19.7186 33.9612V29.0294C19.7186 28.029 18.9025 27.2041 17.8933 27.2041Z" fill="white"/>
<path d="M25.1944 27.2041C24.194 27.2041 23.3691 28.029 23.3691 29.0294V33.9612C23.3691 34.9617 24.194 35.7866 25.1944 35.7866C26.1949 35.7866 27.0198 35.0582 27.0198 33.9612V29.0294C27.0198 28.029 26.2036 27.2041 25.1944 27.2041Z" fill="white"/>
</svg>
