<svg width="45" height="33" viewBox="0 0 45 33" fill="none" xmlns="http://www.w3.org/2000/svg">
<path d="M20.9358 3.20856H24.1444C25.1069 3.20856 25.7487 2.56684 25.7487 1.60428C25.7487 0.641711 25.1069 0 24.1444 0H20.9358C19.9733 0 19.3315 0.641711 19.3315 1.60428C19.3315 2.56684 19.9733 3.20856 20.9358 3.20856Z" fill="white"/>
<path d="M44.8396 23.2619C44.5187 22.7806 43.877 22.4598 43.3957 22.4598H41.631C40.8289 15.401 35.0535 8.34214 27.6738 6.09615C24.3048 4.97316 20.615 4.97316 17.246 6.09615C10.0267 8.34214 4.09091 15.401 3.4492 22.4598H1.68449C1.20321 22.4598 0.561497 22.7806 0.240642 23.2619C-0.0802139 23.7432 -0.0802139 24.3849 0.240642 24.8662C2.48663 29.3582 6.97861 32.0855 12.1123 32.0855H33.1283C38.1016 32.0855 42.754 29.3582 45 24.7058C45 24.2245 45 23.7432 44.8396 23.2619ZM18.2086 9.14428C20.9358 8.34214 23.984 8.34214 26.7112 9.14428C32.6471 10.909 37.6203 16.6844 38.4225 22.4598H6.65775C7.45989 16.6844 12.2727 11.0694 18.2086 9.14428ZM32.9679 28.8769H12.1123C9.2246 28.8769 6.65775 27.7539 4.73262 25.6683H40.3476C38.4225 27.7539 35.8556 28.8769 32.9679 28.8769Z" fill="white"/>
</svg>
