<svg width="37" height="37" viewBox="0 0 37 37" fill="none" xmlns="http://www.w3.org/2000/svg">
<path d="M18.5 11.1667V35M18.5 11.1667H10.25C9.03443 11.1667 7.86863 10.6838 7.00909 9.82424C6.14955 8.9647 5.66667 7.79891 5.66667 6.58333C5.66667 5.36776 6.14955 4.20196 7.00909 3.34242C7.86863 2.48288 9.03443 2 10.25 2C16.6667 2 18.5 11.1667 18.5 11.1667ZM18.5 11.1667H26.75C27.9655 11.1667 29.1313 10.6838 29.991 9.82424C30.8504 8.9647 31.3333 7.79891 31.3333 6.58333C31.3333 5.36776 30.8504 4.20196 29.991 3.34242C29.1313 2.48288 27.9655 2 26.75 2C20.3333 2 18.5 11.1667 18.5 11.1667ZM2 22.1667H35M7.86667 35H29.1333C31.1868 35 32.2137 35 32.998 34.6003C33.6879 34.2489 34.2489 33.6879 34.6003 32.998C35 32.2137 35 31.1868 35 29.1333V17.0333C35 14.9798 35 13.953 34.6003 13.1687C34.2489 12.4788 33.6879 11.9178 32.998 11.5663C32.2137 11.1667 31.1868 11.1667 29.1333 11.1667H7.86667C5.81315 11.1667 4.78637 11.1667 4.00204 11.5663C3.3121 11.9178 2.75117 12.4788 2.39965 13.1687C2 13.953 2 14.9798 2 17.0333V29.1333C2 31.1868 2 32.2137 2.39965 32.998C2.75117 33.6879 3.3121 34.2489 4.00204 34.6003C4.78637 35 5.81313 35 7.86667 35Z" stroke="white" stroke-width="3" stroke-linecap="round" stroke-linejoin="round"/>
</svg>
