<svg width="39" height="35" viewBox="0 0 39 35" fill="none" xmlns="http://www.w3.org/2000/svg">
<path d="M31.1667 9.75V8.2C31.1667 6.02981 31.1667 4.94469 30.7428 4.11579C30.37 3.38665 29.775 2.79385 29.0433 2.42236C28.2115 2 27.1224 2 24.9444 2H8.22222C6.04423 2 4.95524 2 4.12337 2.42236C3.39162 2.79385 2.7967 3.38665 2.42387 4.11579C2 4.94469 2 6.02981 2 8.2V9.75M2 9.75V26.8C2 28.9702 2 30.0554 2.42387 30.8843C2.7967 31.6133 3.39162 32.2062 4.12337 32.5776C4.95524 33 6.04423 33 8.22222 33H30.7778C32.9557 33 34.0448 33 34.8767 32.5776C35.6084 32.2062 36.2034 31.6133 36.5761 30.8843C37 30.0554 37 28.9702 37 26.8V15.95C37 13.7798 37 12.6947 36.5761 11.8658C36.2034 11.1366 35.6084 10.5439 34.8767 10.1724C34.0448 9.75 32.9557 9.75 30.7778 9.75H2ZM37 17.5H33.1111C30.9633 17.5 29.2222 19.2348 29.2222 21.375C29.2222 23.5152 30.9633 25.25 33.1111 25.25H37" stroke="white" stroke-width="3" stroke-linecap="round" stroke-linejoin="round"/>
</svg>
