<svg width="44" height="44" viewBox="0 0 44 44" fill="none" xmlns="http://www.w3.org/2000/svg">
<path d="M22.0004 42.9999C33.5794 42.9999 43 33.5796 43 22.0001C43 10.4205 33.5792 1.00024 22.0004 1.00024C10.4206 1.00024 1 10.4205 1 22.0001C1 33.5796 10.4206 42.9999 22.0004 42.9999ZM22.0004 3.78768C32.0428 3.78768 40.2126 11.9577 40.2126 22.0001C40.2126 32.0425 32.0428 40.2124 22.0004 40.2124C11.9574 40.2124 3.78744 32.0425 3.78744 22.0001C3.78744 11.9577 11.9574 3.78768 22.0004 3.78768Z" fill="white" stroke="white"/>
<path d="M22.0003 34.4223C28.8496 34.4223 34.4224 28.8496 34.4224 21.9999C34.4224 15.1501 28.8498 9.57764 22.0003 9.57764C15.1503 9.57764 9.57764 15.1499 9.57764 21.9999C9.57764 28.8494 15.1501 34.4223 22.0003 34.4223ZM22.0003 12.3651C27.3126 12.3651 31.635 16.6871 31.635 21.9999C31.635 27.3124 27.3126 31.6348 22.0003 31.6348C16.6873 31.6348 12.3651 27.3124 12.3651 21.9999C12.3651 16.6871 16.6873 12.3651 22.0003 12.3651Z" fill="white" stroke="white"/>
</svg>
