<svg width="40" height="35" viewBox="0 0 40 35" fill="none" xmlns="http://www.w3.org/2000/svg">
<path fill-rule="evenodd" clip-rule="evenodd" d="M16.7529 1H21.584C23.4951 0.999983 25.0263 0.999965 26.2813 1.12529C27.5811 1.25508 28.6849 1.52641 29.7241 2.12742C30.7611 2.72717 31.5612 3.55552 32.35 4.62936C33.1146 5.67002 33.9241 7.02159 34.9386 8.71567L36.2113 10.8406C37.0588 12.2554 37.7465 13.4035 38.2144 14.4021C38.7022 15.4428 39 16.4181 39 17.5C39 18.5819 38.7022 19.5572 38.2144 20.5979C37.7465 21.5965 37.0588 22.7445 36.2113 24.1594L34.9386 26.2844C33.9241 27.9785 33.1146 29.3301 32.35 30.3707C31.5612 31.4446 30.7611 32.2728 29.7241 32.8726C28.6849 33.4736 27.5811 33.7449 26.2813 33.8748C25.0263 34 23.4951 34 21.584 34H16.7529C13.4154 34 10.7711 34 8.70149 33.7098C6.56787 33.4103 4.84997 32.7797 3.50065 31.3718C2.15732 29.9701 1.56113 28.1959 1.27705 25.991C0.999965 23.8403 0.999983 21.0886 1 17.5981V17.4019C0.999983 13.9114 0.999965 11.1596 1.27705 9.00898C1.56113 6.80417 2.15732 5.02996 3.50065 3.62821C4.84997 2.2202 6.56787 1.58963 8.70149 1.29029C10.7711 0.999947 13.4154 0.999965 16.7529 1ZM9.06652 3.9405C7.24336 4.19627 6.1849 4.67592 5.40632 5.48838C4.62174 6.30706 4.15398 7.42997 3.90608 9.35401C3.6538 11.3121 3.65116 13.8896 3.65116 17.5C3.65116 21.1104 3.6538 23.6879 3.90608 25.646C4.15398 27.57 4.62174 28.6929 5.40632 29.5116C6.1849 30.3242 7.24336 30.8038 9.06652 31.0594C10.9325 31.3213 13.3923 31.3243 16.8557 31.3243H21.5165C23.5107 31.3243 24.9108 31.3229 26.0203 31.2119C27.0998 31.1042 27.8018 30.9003 28.406 30.5511C29.0122 30.2004 29.5551 29.6827 30.2204 28.7771C30.9016 27.8499 31.6474 26.6071 32.7035 24.8438L33.9068 22.8349C34.7984 21.3462 35.4146 20.3145 35.8177 19.454C36.2078 18.6215 36.3488 18.0489 36.3488 17.5C36.3488 16.9511 36.2078 16.3785 35.8177 15.546C35.4146 14.6855 34.7984 13.6538 33.9068 12.1651L32.7035 10.1562C31.6474 8.39293 30.9016 7.15017 30.2204 6.22288C29.5551 5.31729 29.0122 4.79955 28.406 4.44895C27.8018 4.09961 27.0998 3.89578 26.0203 3.78797C24.9108 3.67718 23.5107 3.67568 21.5165 3.67568H16.8557C13.3923 3.67568 10.9325 3.67871 9.06652 3.9405ZM11.1628 8.12643C11.8949 8.12643 12.4884 8.72539 12.4884 9.46427V25.527C12.4884 26.2659 11.8949 26.8649 11.1628 26.8649C10.4307 26.8649 9.83721 26.2659 9.83721 25.527V9.46427C9.83721 8.72539 10.4307 8.12643 11.1628 8.12643Z" fill="white" stroke="white"/>
</svg>
