<?xml version="1.0" standalone="no"?>
<!DOCTYPE svg PUBLIC "-//W3C//DTD SVG 1.1//EN" "http://www.w3.org/Graphics/SVG/1.1/DTD/svg11.dtd" >
<svg xmlns="http://www.w3.org/2000/svg" xmlns:xlink="http://www.w3.org/1999/xlink" version="1.1">
<metadata>
Created by FontForge 20201107 at Mon Jan 23 17:40:02 2012
 By Unknown
Created by gluk (gluksza@wp.pl | www.glukfonts.pl) with FontForge
</metadata>
<defs>
<font id="Yokawerad" horiz-adv-x="1000" >
  <font-face 
    font-family="Yokawerad"
    font-weight="500"
    font-stretch="normal"
    units-per-em="1000"
    panose-1="0 0 10 3 0 0 0 0 0 0"
    ascent="760"
    descent="-240"
    x-height="522"
    cap-height="721"
    bbox="-690 -353 2002 1030"
    underline-thickness="40"
    underline-position="-200"
    stemh="40"
    stemv="80"
    unicode-range="U+0020-FB04"
  />
<missing-glyph horiz-adv-x="500" 
d="M50 0v506h400v-506h-400zM100 50h300v406h-300v-406z" />
    <glyph glyph-name="uniFB01" unicode="fi" horiz-adv-x="1140" 
d="M740 470c-18 0 -42 -1 -68 -6l-16 -3l-8 7l1 34l8 8l223 -5l142 23l7 -7c-1 -8 -9 -69 -9 -81v-400c18 0 52 1 78 6l16 3l8 -7l-2 -35l-8 -8l-232 6l-232 -6l-8 8l-2 35l8 7l16 -3c26 -5 60 -6 78 -6v430zM770 792l28 28h164l28 -28v-144l-28 -28h-164l-28 28v144z
M560 468l-8 -8l-152 -1v-419c18 0 52 1 78 6l16 3l8 -7l-2 -35l-8 -8l-232 6l-232 -6l-8 8l-2 35l8 7l16 -3c26 -5 60 -6 78 -6v415l-84 -3l-8 8v36l8 7l84 -1v18c0 144 117 240 300 240c80 0 163 -36 220 -40v-97l-8 -8h-107l-5 5c0 65 -38 100 -110 100
c-77 0 -118 -36 -118 -103c0 -68 39 -115 96 -115c79 2 164 6 164 6l8 -8v-32z" />
    <glyph glyph-name="uniFB02" unicode="fl" horiz-adv-x="1160" 
d="M760 692c-18 0 -22 -2 -48 -7l-15 -3l-8 7v34l9 7l182 -1l162 19l7 -7c-1 -8 -9 -69 -9 -81v-620c18 0 52 1 78 6l16 3l8 -7l-2 -35l-8 -8l-232 6l-232 -6l-8 8l-2 35l8 7l16 -3c26 -5 60 -6 78 -6v652zM120 455l-84 -3l-8 8v36l8 7l84 -1v18c0 144 117 240 300 240
c80 0 157 -30 220 -30v-107l-8 -8h-107l-5 5c0 65 -38 100 -110 100c-77 0 -118 -36 -118 -103c0 -68 39 -115 96 -115c79 2 224 6 224 6l8 -8v-32l-8 -8l-212 -1v-419c18 0 52 1 78 6l16 3l8 -7l-2 -35l-8 -8l-232 6l-232 -6l-8 8l-2 35l8 7l16 -3c26 -5 60 -6 78 -6v415z
" />
    <glyph glyph-name="uniFB03" unicode="ffi" horiz-adv-x="1800" 
d="M760 455l-84 -3l-8 8v36l8 7l84 -1v18c0 144 117 240 300 240c80 0 163 -36 220 -40v-97l-8 -8h-107l-5 5c0 65 -38 100 -110 100c-77 0 -118 -36 -118 -103c0 -68 39 -115 96 -115c79 2 164 6 164 6l8 -8v-32l-8 -8l-152 -1v-419c18 0 52 1 78 6l16 3l8 -7l-2 -35l-8 -8
l-232 6l-232 -6l-8 8l-2 35l8 7l16 -3c26 -5 60 -6 78 -6v415zM1430 792l28 28h164l28 -28v-144l-28 -28h-164l-28 28v144zM1400 480c-18 0 -42 -1 -68 -6l-16 -3l-8 7l1 34l8 8l223 -5l142 13l7 -7c-1 -8 -9 -69 -9 -81v-400c18 0 52 1 78 6l16 3l8 -7l-2 -35l-8 -8l-232 6
l-232 -6l-8 8l-2 35l8 7l16 -3c26 -5 60 -6 78 -6v440zM120 455l-84 -3l-8 8v36l8 7l84 -1v18c0 156 136 260 340 260c80 0 163 -36 220 -40v-97l-8 -8h-107l-5 5c0 65 -38 100 -110 100c-95 0 -158 -49 -158 -123c0 -68 39 -115 96 -115c79 2 164 6 164 6l8 -8v-32l-8 -8
l-152 -1v-419c18 0 52 1 78 6l16 3l8 -7l-2 -35l-8 -8l-232 6l-232 -6l-8 8l-2 35l8 7l16 -3c26 -5 60 -6 78 -6v415z" />
    <glyph glyph-name="uniFB04" unicode="ffl" horiz-adv-x="1800" 
d="M120 455l-84 -3l-8 8v36l8 7l84 -1v18c0 156 136 260 340 260c80 0 163 -36 220 -40v-97l-8 -8h-107l-5 5c0 65 -38 100 -110 100c-95 0 -158 -49 -158 -123c0 -68 39 -115 96 -115c79 2 164 6 164 6l8 -8v-32l-8 -8l-152 -1v-419c18 0 52 1 78 6l16 3l8 -7l-2 -35l-8 -8
l-232 6l-232 -6l-8 8l-2 35l8 7l16 -3c26 -5 60 -6 78 -6v415zM760 455l-84 -3l-8 8v36l8 7l84 -1v18c0 144 117 240 300 240c80 0 163 -36 220 -40v-97l-8 -8h-107l-5 5c0 65 -38 100 -110 100c-77 0 -118 -36 -118 -103c0 -68 39 -115 96 -115c79 2 164 6 164 6l8 -8v-32
l-8 -8l-152 -1v-419c18 0 52 1 78 6l16 3l8 -7l-2 -35l-8 -8l-232 6l-232 -6l-8 8l-2 35l8 7l16 -3c26 -5 60 -6 78 -6v415zM1400 700c-18 0 -32 -1 -58 -6l-16 -3l-8 7l1 34l8 8l193 -5l162 13l7 -7c-1 -8 -9 -69 -9 -81v-620c18 0 52 1 78 6l16 3l8 -7l-2 -35l-8 -8
l-232 6l-232 -6l-8 8l-2 35l8 7l16 -3c26 -5 60 -6 78 -6v660z" />
    <glyph glyph-name=".notdef" horiz-adv-x="500" 
d="M50 0v506h400v-506h-400zM100 50h300v406h-300v-406z" />
    <glyph glyph-name="space" unicode=" " horiz-adv-x="400" 
 />
    <glyph glyph-name="exclam" unicode="!" horiz-adv-x="320" 
d="M272 760l8 -8v-102c0 -86 -40 -210 -40 -382l-8 -8h-144l-8 8c0 172 -40 296 -40 382v102l8 8h224zM80 112l28 28h104l28 -28v-104l-28 -28h-104l-28 28v104z" />
    <glyph glyph-name="quotedbl" unicode="&#x22;" horiz-adv-x="440" 
d="M184 528l-10 -8h-112l-6 8v136c0 35 -4 69 -10 86l6 8l134 8l10 -8v-47c0 -64 -6 -166 -12 -183zM384 528l-10 -8h-112l-6 8v136c0 35 -4 69 -10 86l6 8l134 8l10 -8v-47c0 -64 -6 -166 -12 -183z" />
    <glyph glyph-name="numbersign" unicode="#" horiz-adv-x="540" 
d="M305 280l10 120h-80l-10 -120h80zM298 200h-80l-10 -112l-9 -8h-64l-7 8l10 112h-112l-7 8l6 64l9 8h111l10 120h-112l-7 8l6 64l9 8h111l10 112l9 8h64l7 -8l-10 -112h80l10 112l9 8h64l7 -8l-10 -112h112l7 -8l-6 -64l-9 -8h-111l-10 -120h112l7 -8l-6 -64l-9 -8h-111
l-10 -112l-9 -8h-64l-7 8z" />
    <glyph glyph-name="dollar" unicode="$" horiz-adv-x="820" 
d="M490 213v-136c78 11 117 35 117 62c0 34 -49 55 -117 74zM330 253v-178c20 -3 38 -5 53 -5c24 0 47 0 67 2v151c-38 9 -79 19 -120 30zM290 532v108c-43 -14 -63 -36 -63 -57c0 -23 24 -38 63 -51zM330 520l120 -30v158c-23 5 -42 6 -57 6c-24 0 -45 -1 -63 -4v-130z
M33 253l23 3l18 -6c38 -91 133 -143 216 -166v180c-131 38 -254 87 -254 211c0 91 94 180 254 207v76l2 2h36l2 -2v-71c20 2 40 3 62 3c17 0 37 -2 58 -5v73l2 2h36l2 -2v-80c33 -5 66 -11 93 -11c29 0 52 6 64 23h46l8 -7l19 -198l-37 -3l-9 6c-35 83 -114 127 -184 149
v-158l17 -5c136 -43 281 -78 281 -224c0 -121 -113 -195 -298 -215v-73l-2 -2h-36l-2 2v70c-22 -1 -44 -2 -67 -2c-17 0 -35 1 -53 3v-71l-2 -2h-36l-2 2v76c-57 8 -116 25 -153 25c-18 0 -32 -3 -39 -10h-40l-8 7z" />
    <glyph glyph-name="percent" unicode="%" 
d="M227 -13l-87 83l633 662l87 -83zM239 380c-106 0 -199 85 -199 201c0 106 85 199 201 199c106 0 199 -85 199 -201c0 -106 -85 -199 -201 -199zM242 740c-36 0 -56 -32 -58 -88l-5 -140v-8c0 -54 20 -84 59 -84c36 0 56 32 58 88l5 140v8c0 54 -20 84 -59 84zM759 -60
c-106 0 -199 85 -199 201c0 106 85 199 201 199c106 0 199 -85 199 -201c0 -106 -85 -199 -201 -199zM762 300c-37 0 -56 -32 -58 -88l-5 -140v-9c0 -54 20 -83 59 -83c37 0 56 32 58 88l5 140v9c0 54 -20 83 -59 83z" />
    <glyph glyph-name="ampersand" unicode="&#x26;" horiz-adv-x="1120" 
d="M588 461c59 22 94 67 94 128c0 36 -26 62 -64 62s-79 -23 -79 -81c0 -37 18 -70 49 -109zM322 388c-47 -18 -71 -57 -71 -114c0 -136 110 -239 235 -239c48 0 97 19 141 47l-292 292c-5 5 -9 9 -13 14zM771 523l7 6l98 -24l119 -29c55 -13 99 -40 99 -93
c0 -15 -4 -33 -12 -52l-11 -9l-150 -16l-3 5c23 28 45 74 45 105c0 16 -6 28 -21 32l-63 15c-3 -87 -29 -172 -72 -246l109 -120c16 -18 42 -23 70 -23c31 0 63 6 83 9l9 -7l3 -22l-6 -9c-79 -15 -189 -55 -262 -55c-56 0 -107 23 -154 62c-64 -42 -151 -69 -291 -69
c-199 0 -340 82 -340 213c0 110 119 196 271 222c-26 39 -37 72 -37 108c0 105 113 174 287 174c114 0 173 -36 173 -113c0 -75 -40 -131 -107 -158l160 -177c9 32 12 67 12 104c0 56 -8 115 -16 167z" />
    <glyph glyph-name="quotesingle" unicode="'" horiz-adv-x="240" 
d="M184 528l-10 -8h-112l-6 8v136c0 35 -4 69 -10 86l6 8l134 8l10 -8v-47c0 -64 -6 -166 -12 -183z" />
    <glyph glyph-name="parenleft" unicode="(" horiz-adv-x="460" 
d="M430 810l20 -34c-75 -51 -150 -271 -150 -456s75 -415 150 -466l-20 -34c-193 80 -390 249 -390 500s197 410 390 490z" />
    <glyph glyph-name="parenright" unicode=")" horiz-adv-x="460" 
d="M30 810c193 -80 390 -239 390 -490s-197 -420 -390 -500l-20 34c75 51 150 281 150 466s-75 405 -150 456z" />
    <glyph glyph-name="asterisk" unicode="*" horiz-adv-x="460" 
d="M230 784c25 0 48 -9 72 -24c0 -46 -43 -69 -55 -127l-9 -45l2 -2l41 23c51 29 59 78 103 92c35 -25 49 -59 49 -96c0 -13 -2 -27 -5 -41c-8 -2 -16 -3 -23 -3c-31 0 -60 17 -100 17c-5 0 -9 0 -14 -1l-46 -5l-1 -3l34 -31c43 -40 92 -33 119 -70
c-18 -55 -61 -81 -116 -85c-27 37 -6 82 -30 135l-19 42h-4l-19 -42c-24 -53 -3 -98 -30 -135c-55 4 -98 30 -116 85c27 37 76 30 119 70l34 31l-1 3l-46 5c-5 1 -9 1 -14 1c-40 0 -69 -17 -100 -17c-7 0 -15 1 -23 3c-3 14 -5 28 -5 41c0 37 14 71 49 96
c44 -14 52 -63 103 -92l41 -23l2 2l-9 45c-12 58 -55 81 -55 127c24 15 47 24 72 24z" />
    <glyph glyph-name="plus" unicode="+" horiz-adv-x="560" 
d="M312 400l8 -8l192 8l8 -8v-64l-8 -8l-192 8l-8 -8l8 -192l-8 -8h-64l-8 8l8 192l-8 8l-192 -8l-8 8v64l8 8l192 -8l8 8l-8 192l8 8h64l8 -8z" />
    <glyph glyph-name="comma" unicode="," horiz-adv-x="240" 
d="M200 112v-104c0 -58 -39 -127 -71 -159l-12 -1l-39 32v11c12 12 44 71 44 89h-54l-28 28v104l28 28h104z" />
    <glyph glyph-name="hyphen" unicode="-" horiz-adv-x="360" 
d="M320 288l-8 -8h-264l-8 8v104l8 8h264l8 -8v-104z" />
    <glyph glyph-name="period" unicode="." horiz-adv-x="240" 
d="M40 112l28 28h104l28 -28v-104l-28 -28h-104l-28 28v104z" />
    <glyph glyph-name="slash" unicode="/" horiz-adv-x="640" 
d="M634 738l-526 -822l-101 65l526 822z" />
    <glyph glyph-name="zero" unicode="0" horiz-adv-x="870" 
d="M435 730c240 0 400 -148 400 -370s-160 -370 -400 -370s-400 148 -400 370s160 370 400 370zM375 397l23 23h74l23 -23v-74l-23 -23h-74l-23 23v74zM435 685c-52 0 -120 -30 -120 -140v-370c0 -110 68 -140 120 -140c53 0 120 30 120 140v370c0 110 -67 140 -120 140z
" />
    <glyph glyph-name="one" unicode="1" horiz-adv-x="580" 
d="M190 572c-18 0 -92 -11 -118 -16l-16 -3l-8 7l1 34l8 8l323 128h92l7 -7c-1 -8 -9 -69 -9 -81v-602c18 0 42 1 68 6l16 3l8 -7l-2 -35l-8 -8l-222 6l-242 -6l-8 8l-2 35l8 7l16 -3c26 -5 70 -6 88 -6v532z" />
    <glyph glyph-name="two" unicode="2" horiz-adv-x="840" 
d="M45 521l17 161l9 8c78 0 169 40 289 40c240 0 400 -80 400 -200c0 -224 -484 -290 -652 -410l18 -3l302 43c88 13 228 40 287 40h60l-29 -198l-10 -8s-216 7 -296 7h-81l-311 -7l-8 8v136c161 166 440 250 440 392c0 96 -58 160 -144 160c-71 0 -180 -20 -211 -165
l-10 -6z" />
    <glyph glyph-name="three" unicode="3" horiz-adv-x="840" 
d="M303 351l-8 8v27l8 8h12c93 0 155 58 155 146c0 90 -59 150 -148 150c-53 0 -162 -20 -212 -165l-10 -6l-70 2l17 161l9 8c78 0 204 40 314 40c216 0 360 -76 360 -190c0 -66 -76 -122 -184 -152v-3c156 -25 274 -102 274 -195c0 -120 -184 -200 -460 -200
c-120 0 -246 40 -324 40l-9 8l-17 161l70 2l10 -6c40 -145 173 -164 226 -165c134 0 224 64 224 160c0 97 -80 161 -200 161h-37z" />
    <glyph glyph-name="four" unicode="4" horiz-adv-x="920" 
d="M480 142h-452l-8 8v61c197 117 220 324 220 432c0 40 -4 66 -4 69l8 8h268l8 -8c0 -147 -20 -295 -250 -476l-66 -52v-3l276 1c122 78 186 214 218 338h64l7 -7c-1 -8 -9 -69 -9 -81v-244c83 5 116 12 144 12l-9 -51l-9 -8s-59 1 -126 1v-102c18 0 52 1 78 6l16 3l8 -7
l-2 -35l-8 -8l-232 6l-232 -6l-8 8l-2 35l8 7l16 -3c26 -5 60 -6 78 -6v102z" />
    <glyph glyph-name="five" unicode="5" horiz-adv-x="840" 
d="M360 -10c-120 0 -236 40 -314 40l-9 8l-17 161l80 2l10 -6c30 -146 153 -165 206 -165c133 0 204 72 204 205s-72 205 -204 205c-101 0 -210 -53 -250 -97l-36 -1l-8 8l4 62l18 300l8 8h328c80 0 355 10 355 10l10 -8l-20 -167h-58c-80 5 -147 5 -311 5h-250l-8 -133
c64 33 152 53 242 53c245 0 460 -85 460 -250c0 -144 -176 -240 -440 -240z" />
    <glyph glyph-name="six" unicode="6" horiz-adv-x="880" 
d="M321 416c-1 -19 -1 -35 -1 -56v-190c0 -84 52 -140 130 -140s130 56 130 140v140c0 92 -67 135 -117 135c-45 0 -103 -18 -142 -29zM781 521l-70 -2l-10 6c-50 145 -157 165 -241 165c-85 0 -126 -68 -137 -228c37 11 88 28 157 28c221 0 380 -74 380 -250
c0 -150 -160 -250 -400 -250h-20c-240 0 -400 148 -400 370s182 370 421 370c84 0 216 -40 294 -40l9 -8z" />
    <glyph glyph-name="seven" unicode="7" horiz-adv-x="820" 
d="M460 0h-267l-8 8c0 247 100 287 406 532l22 18v3l-213 -1c-160 -1 -219 -26 -311 -40h-58l32 202l9 8s262 -10 342 -10h378l8 -8v-26l-62 -74c-253 -295 -273 -439 -273 -544c0 -21 2 -50 3 -60z" />
    <glyph glyph-name="eight" unicode="8" horiz-adv-x="880" 
d="M440 30c91 0 140 56 140 160c0 107 -49 165 -140 165s-140 -58 -140 -165c0 -104 49 -160 140 -160zM440 395c65 0 100 51 100 145c0 98 -35 150 -100 150s-100 -52 -100 -150c0 -94 35 -145 100 -145zM440 730c204 0 320 -76 320 -190c0 -80 -98 -139 -191 -162v-2
c160 -28 291 -76 291 -186c0 -120 -162 -200 -404 -200h-32c-242 0 -404 80 -404 200c0 110 131 158 291 186v2c-93 23 -191 82 -191 162c0 114 116 190 320 190z" />
    <glyph glyph-name="nine" unicode="9" horiz-adv-x="880" 
d="M559 304c1 19 1 35 1 56v190c0 84 -52 140 -130 140s-130 -56 -130 -140v-140c0 -92 67 -135 117 -135c45 0 103 18 142 29zM99 199l70 2l10 -6c50 -145 157 -165 241 -165c85 0 126 68 137 228c-37 -11 -88 -28 -157 -28c-221 0 -380 74 -380 250c0 150 160 250 400 250
h20c240 0 400 -148 400 -370s-182 -370 -421 -370c-84 0 -216 40 -294 40l-9 8z" />
    <glyph glyph-name="colon" unicode=":" horiz-adv-x="240" 
d="M40 552l28 28h104l28 -28v-104l-28 -28h-104l-28 28v104zM40 112l28 28h104l28 -28v-104l-28 -28h-104l-28 28v104z" />
    <glyph glyph-name="semicolon" unicode=";" horiz-adv-x="240" 
d="M200 112v-104c0 -58 -39 -127 -71 -159l-12 -1l-39 32v11c12 12 44 71 44 89h-54l-28 28v104l28 28h104zM40 552l28 28h104l28 -28v-104l-28 -28h-104l-28 28v104z" />
    <glyph glyph-name="less" unicode="&#x3c;" horiz-adv-x="480" 
d="M20 395l413 255l7 -4v-167l-354 -118v-4l354 -118v-167l-7 -4l-413 255v72z" />
    <glyph glyph-name="equal" unicode="=" horiz-adv-x="640" 
d="M600 180h-560v120h560v-120zM600 420h-560v120h560v-120z" />
    <glyph glyph-name="greater" unicode="&#x3e;" horiz-adv-x="480" 
d="M460 395v-72l-413 -255l-7 4v167l354 118v4l-354 118v167l7 4z" />
    <glyph glyph-name="question" unicode="?" horiz-adv-x="620" 
d="M208 260l-8 8v76c0 124 180 157 180 276c0 66 -48 110 -119 110c-52 0 -134 -20 -157 -165l-6 -6l-70 2l13 161l7 8c75 0 142 40 232 40c180 0 300 -71 300 -170c0 -104 -77 -155 -178 -214c-42 -24 -42 -53 -42 -91v-27l-8 -8h-144zM200 112l28 28h104l28 -28v-104
l-28 -28h-104l-28 28v104z" />
    <glyph glyph-name="at" unicode="@" horiz-adv-x="900" 
d="M608 448l103 -4l4 -5c-1 -5 -11 -44 -12 -52l-43 -261c99 0 180 94 180 211c0 172 -150 311 -335 311c-246 0 -445 -192 -445 -429c0 -182 152 -329 339 -329c64 0 137 12 217 52l15 -35c-85 -42 -169 -57 -237 -57c-206 0 -374 164 -374 365c0 261 220 473 492 473
c203 0 368 -155 368 -347c0 -142 -108 -257 -241 -257c-68 0 -123 45 -123 102h-2c-32 -67 -91 -102 -142 -102c-129 0 -198 51 -198 146c0 132 95 220 242 220c52 0 80 -32 112 -32c39 0 72 19 80 30zM523 382c-42 0 -67 32 -99 32s-53 -26 -61 -84
c-6 -50 -17 -127 -17 -155c0 -43 15 -55 42 -55c42 0 107 51 120 147z" />
    <glyph glyph-name="A" unicode="A" horiz-adv-x="1010" 
d="M525 255c-33 2 -102 6 -132 6h-179c-12 -34 -18 -68 -18 -98c0 -67 31 -117 103 -117c8 0 15 2 23 3l8 -7l-4 -35l-8 -8l-162 6l-135 -6l-8 8l-3 35c93 122 216 343 291 518l69 161l50 -1l241 10c0 -8 9 -34 22 -70l244 -568c14 -32 32 -53 67 -53l6 -8l-1 -24l-9 -8
l-217 6l-199 -6l-8 8l-2 29l8 7c4 -1 14 -4 22 -4s14 8 14 17c0 4 -1 9 -2 12zM504 304l-128 293h-12l-129 -286c41 -4 128 -12 158 -12c24 0 75 3 111 5z" />
    <glyph glyph-name="B" unicode="B" horiz-adv-x="1030" 
d="M120 682c-18 0 -50 -2 -76 -7l-18 -4l-8 6l2 35l8 8l542 10c204 0 340 -76 340 -190c0 -66 -74 -123 -184 -154c158 -25 274 -103 274 -196c0 -120 -136 -200 -340 -200l-632 10l-8 8l-2 35l8 6l18 -4c26 -5 58 -7 76 -7v644zM440 34l40 -1c130 0 200 55 200 157
c0 105 -70 161 -200 161l-40 -1v-316zM440 394h15c110 0 155 50 155 146s-52 147 -150 147l-20 -1v-292z" />
    <glyph glyph-name="C" unicode="C" horiz-adv-x="880" 
d="M510 730c87 0 172 -20 225 -20c26 0 44 5 50 20h40l9 -8l21 -213h-63l-10 6c-41 149 -182 170 -242 170c-124 0 -190 -114 -190 -325c0 -208 74 -325 210 -325c119 0 215 83 259 141l11 -1l25 -24l-1 -11c-57 -73 -169 -150 -294 -150c-318 0 -530 148 -530 370
s192 370 480 370z" />
    <glyph glyph-name="D" unicode="D" horiz-adv-x="1060" 
d="M440 686v-652l50 -1c143 0 210 114 210 327s-67 327 -210 327zM120 682c-18 0 -50 -2 -76 -7l-26 -6l2 51l600 10c240 0 400 -148 400 -370s-160 -370 -400 -370l-600 10l-2 51l26 -6c26 -5 58 -7 76 -7v644z" />
    <glyph glyph-name="E" unicode="E" horiz-adv-x="960" 
d="M120 680c-18 0 -52 -2 -78 -7l-16 -3l-8 7l2 35l8 8h373c80 0 441 10 441 10l9 -8l21 -208l-40 -3l-11 6c-59 142 -221 163 -381 163l-5 -280h25c72 0 113 95 137 136l11 3l31 -7v-304l-31 -7l-11 3c-24 41 -65 136 -137 136h-25l5 -320c182 0 395 81 442 222l10 7l42 -1
l7 -9l-21 -269s-440 10 -520 10h-372l-8 8l-2 35l8 7l16 -3c26 -5 60 -7 78 -7v640z" />
    <glyph glyph-name="F" unicode="F" horiz-adv-x="980" 
d="M120 680c-18 0 -52 -2 -78 -7l-16 -3l-8 7l2 35l8 8h393c80 0 519 10 519 10l21 -289l-7 -9l-52 -1l-10 7c-47 141 -270 242 -452 242l-5 -340h65c72 0 143 105 167 146l11 3l31 -7v-324l-31 -7l-11 3c-24 41 -95 146 -167 146h-65l5 -260c18 0 52 1 78 6l16 3l8 -7
l-2 -35l-8 -8l-252 6l-252 -6l-8 8l-2 35l8 7l16 -3c26 -5 60 -6 78 -6v640z" />
    <glyph glyph-name="G" unicode="G" horiz-adv-x="1020" 
d="M510 -10c-288 0 -480 157 -480 392c0 209 196 348 490 348c61 0 151 -20 209 -20c29 0 50 5 56 20h40l9 -8l21 -213h-63l-10 6c-41 143 -168 170 -222 170c-136 0 -210 -110 -210 -304c0 -222 56 -341 160 -341c88 0 130 60 130 120v156l-162 -1l-8 8v29l8 8l242 -5
l282 5l8 -8v-28l-8 -8h-82v-318l-8 -8h-152c0 45 -20 81 -45 81c-11 0 -22 -6 -33 -13c-52 -35 -106 -68 -172 -68z" />
    <glyph glyph-name="H" unicode="H" horiz-adv-x="1160" 
d="M120 680c-18 0 -52 -1 -78 -6l-16 -3l-8 7l2 35l8 8l252 -6l242 6l8 -8l2 -35l-8 -7l-16 3c-26 5 -60 6 -68 6l-3 -277c60 -2 123 -4 143 -4s85 2 145 4l-5 277c-8 0 -42 -1 -68 -6l-16 -3l-8 7l2 35l8 8l242 -6l252 6l8 -8l2 -35l-8 -7l-16 3c-26 5 -60 6 -78 6v-640
c18 0 52 1 78 6l16 3l8 -7l-2 -35l-8 -8l-252 6l-242 -6l-8 8l-2 35l8 7l16 -3c26 -5 60 -6 68 -6l5 318c-60 2 -125 3 -145 3s-83 -1 -143 -3l3 -318c8 0 42 1 68 6l16 3l8 -7l-2 -35l-8 -8l-242 6l-252 -6l-8 8l-2 35l8 7l16 -3c26 -5 60 -6 78 -6v640z" />
    <glyph glyph-name="I" unicode="I" horiz-adv-x="560" 
d="M120 680c-18 0 -52 -1 -78 -6l-16 -3l-8 7l2 35l8 8l252 -6l252 6l8 -8l2 -35l-8 -7l-16 3c-26 5 -60 6 -78 6v-640c18 0 52 1 78 6l16 3l8 -7l-2 -35l-8 -8l-252 6l-252 -6l-8 8l-2 35l8 7l16 -3c26 -5 60 -6 78 -6v640z" />
    <glyph glyph-name="J" unicode="J" horiz-adv-x="600" 
d="M160 680c-18 0 -82 -1 -108 -6l-16 -3l-8 7l2 35l8 8l282 -6l252 6l8 -8l2 -35l-8 -7l-16 3c-26 5 -60 6 -78 6v-410c0 -182 -154 -280 -445 -280l-5 5v30l5 5c141 0 232 57 232 143c0 59 -38 97 -97 97l-10 10v400z" />
    <glyph glyph-name="K" unicode="K" horiz-adv-x="1120" 
d="M120 680c-18 0 -52 -1 -78 -6l-16 -3l-8 7l2 35l8 8l252 -3l222 3l8 -8l2 -31l-8 -7l-16 3c-12 2 -30 2 -48 2l-4 -270h36l204 246c4 4 5 9 5 14c0 13 -9 28 -9 47l8 8l372 -5l8 -8v-24l-8 -8c-20 0 -79 -19 -128 -48l-406 -239v-2c18 -9 63 -13 113 -13
c87 0 193 12 217 24l11 -4l141 -315c15 -34 39 -39 69 -39c15 0 51 1 51 1v-30l-355 -43c-2 0 -11 -1 -11 -1c-14 0 -38 16 -59 57l-120 240c-36 71 -84 94 -140 100l5 -328c18 0 52 1 78 6l16 3l8 -7l-2 -35l-8 -8l-252 6l-252 -6l-8 8l-2 35l8 7l16 -3c26 -5 60 -6 78 -6
v640z" />
    <glyph glyph-name="L" unicode="L" horiz-adv-x="960" 
d="M120 680c-18 0 -52 -1 -78 -6l-16 -3l-8 7l2 35l8 8l252 -6l252 6l8 -8l2 -35l-8 -7l-16 3c-26 5 -60 6 -78 6v-640c182 0 385 101 432 242l10 7l52 -1l7 -9l-21 -289s-400 10 -480 10h-412l-8 8l-2 35l8 7l16 -3c26 -5 60 -7 78 -7v640z" />
    <glyph glyph-name="M" unicode="M" horiz-adv-x="1320" 
d="M856 720h406l8 -8v-14l-8 -8c-71 0 -92 -15 -92 -68l10 -462c2 -93 38 -113 73 -113c7 0 14 1 21 2l8 -7l-2 -35l-8 -8l-252 6l-252 -6l-8 8l-2 35l8 7c7 -1 15 -2 22 -2c35 0 72 19 72 113l-10 444l-162 -300c0 -128 -101 -202 -101 -306l-10 -8h-60l-11 10l-326 604
l-10 -345c0 -157 47 -213 134 -213c9 0 17 1 26 3l8 -7l-3 -35l-8 -8l-192 6l-107 -6l-8 8l-2 35l8 7c7 -1 14 -2 21 -2c35 0 71 20 73 113l10 462c0 53 -21 68 -92 68l-8 8v14l8 8h423l198 -365z" />
    <glyph glyph-name="N" unicode="N" 
d="M170 280c0 -180 96 -234 154 -234c10 0 18 1 26 3l8 -7l-3 -35l-8 -8l-217 6l-102 -6l-8 8l-2 35l8 7c5 -1 15 -3 22 -3c35 0 72 20 72 114v462c0 53 -21 68 -92 68l-8 8v14l8 8h423l378 -589h1v309c0 180 -96 234 -154 234h-9l-17 -3l-8 7l3 35l8 8l217 -6l102 6l8 -8
l2 -35l-8 -7c-8 3 -15 4 -24 4c-27 0 -70 -24 -70 -115v-560h-50h-274l-386 604v-324z" />
    <glyph glyph-name="O" unicode="O" horiz-adv-x="1020" 
d="M510 -10c-288 0 -480 148 -480 370s192 370 480 370s480 -148 480 -370s-192 -370 -480 -370zM530 35c102 0 140 91 140 325s-49 325 -180 325c-102 0 -140 -91 -140 -325s49 -325 180 -325z" />
    <glyph glyph-name="P" unicode="P" horiz-adv-x="1030" 
d="M120 682c-18 0 -50 -2 -76 -7l-18 -4l-8 6l2 35l8 8l612 10h13c226 0 347 -88 347 -250s-126 -250 -360 -250l-200 3v-193c18 0 52 1 78 6l16 3l8 -7l-2 -35l-8 -8l-252 6l-252 -6l-8 8l-2 35l8 7l16 -3c26 -5 60 -6 78 -6v642zM460 273c143 0 220 72 220 207
s-77 207 -220 207l-20 -1v-412z" />
    <glyph glyph-name="Q" unicode="Q" horiz-adv-x="1020" 
d="M508 -35c86 0 122 -96 210 -96c51 0 86 15 86 39h30c0 -97 -47 -148 -134 -148c-128 0 -227 100 -316 100v104zM510 -10c-288 0 -480 148 -480 370s192 370 480 370s480 -148 480 -370s-192 -370 -480 -370zM530 40c102 0 140 86 140 320s-49 320 -180 320
c-102 0 -140 -86 -140 -320s49 -320 180 -320z" />
    <glyph glyph-name="R" unicode="R" horiz-adv-x="1080" 
d="M120 682c-18 0 -50 -2 -76 -7l-18 -4l-8 6l2 35l8 8l692 10c156 0 260 -84 260 -210c0 -134 -178 -228 -326 -230v-3c24 -16 139 -36 245 -36l51 -148c15 -44 55 -60 102 -60c9 0 28 2 28 2v-30l-356 -43l-11 -1c-14 0 -38 16 -59 57l-75 172c-34 78 -69 91 -144 93
l5 -253c18 0 52 1 78 6l16 3l8 -7l-2 -35l-8 -8l-252 6l-252 -6l-8 8l-2 35l8 7l16 -3c26 -5 60 -6 78 -6v642zM440 686l-5 -352l25 -1c130 0 200 65 200 187c0 109 -70 167 -200 167z" />
    <glyph glyph-name="S" unicode="S" horiz-adv-x="905" 
d="M36 241h51l14 -8c60 -144 219 -203 329 -203c167 0 249 37 249 78c0 67 -167 91 -323 134s-311 107 -311 253c0 121 148 235 395 235c93 0 176 -22 229 -22c27 0 46 5 55 22h65l9 -8l20 -220h-55l-10 6c-60 144 -241 182 -312 182c-125 0 -184 -36 -184 -74
c0 -62 158 -73 313 -122c151 -48 310 -98 310 -260c0 -158 -174 -244 -450 -244c-89 0 -191 35 -252 35c-21 0 -38 -4 -47 -15h-65l-9 8z" />
    <glyph glyph-name="T" unicode="T" 
d="M340 680c-160 0 -212 -21 -274 -170l-50 3l-7 9l20 200l9 8s261 -10 341 -10h242c80 0 341 10 341 10l9 -8l20 -200l-7 -9l-50 -3c-62 149 -114 170 -274 170v-640c18 0 52 1 78 6l16 3l8 -7l-2 -35l-8 -8l-252 6l-252 -6l-8 8l-2 35l8 7l16 -3c26 -5 60 -6 78 -6v640z
" />
    <glyph glyph-name="U" unicode="U" horiz-adv-x="1020" 
d="M910 715l92 6l8 -8l2 -35l-8 -7c-4 1 -15 4 -24 4c-27 0 -70 -24 -70 -115v-341c0 -143 -132 -239 -330 -239c-306 0 -470 84 -470 240v460c-18 0 -45 -1 -71 -6l-16 -3l-8 7l2 35l8 8l265 -6l212 6l8 -8l2 -35l-8 -7l-16 3c-26 5 -50 6 -58 6v-460
c0 -124 52 -190 150 -190c168 0 280 76 280 190v240c0 180 -76 214 -134 214c-10 0 -21 -2 -26 -3l-8 7l3 35l8 8z" />
    <glyph glyph-name="V" unicode="V" 
d="M363 -10c0 8 -7 35 -22 70l-244 568c-14 32 -38 47 -82 47l-8 8v24l8 8l364 10h5c10 0 19 -6 19 -14c0 -16 7 -40 15 -59l230 -529h10l107 238c15 33 22 76 22 114c0 102 -50 199 -134 199c-8 0 -15 -2 -23 -3l-8 7l4 35l8 7l212 -5l135 5l8 -7l3 -35
c-42 -55 -140 -213 -186 -319l-154 -360l-5 -7z" />
    <glyph glyph-name="W" unicode="W" horiz-adv-x="1510" 
d="M343 -10c0 8 -8 34 -22 70l-224 568c-13 33 -38 47 -82 47l-8 8v24l8 8l364 10h5c10 0 19 -6 19 -14c0 -16 7 -39 15 -59l210 -529h5l94 238c16 39 24 85 24 129c0 95 -37 184 -116 184c-8 0 -15 -2 -23 -3l-8 7l4 35l8 7l192 -5l135 5l8 -7c3 -25 6 -42 15 -61l210 -529
h5l94 238c16 39 24 85 24 129c0 95 -37 184 -116 184c-8 0 -15 -2 -23 -3l-8 7l4 35l8 7l192 -5l135 5l8 -7l3 -35c-42 -55 -146 -211 -186 -319l-134 -360l-8 -7l-283 -2c0 8 -8 34 -22 70l-109 277l-126 -338l-8 -7z" />
    <glyph glyph-name="X" unicode="X" horiz-adv-x="980" 
d="M426 652l165 -217l58 50c42 36 61 75 61 108c0 46 -37 81 -104 81c-8 0 -15 -2 -23 -3l-8 7l4 35l8 8l212 -6l135 6l8 -8l3 -35c-42 -55 -76 -67 -238 -209l-85 -73l255 -310c23 -28 41 -58 85 -58l8 -7v-14l-8 -8c-122 -3 -366 -10 -366 -10c-15 0 -18 13 -22 30
c-3 13 -7 29 -18 43l-175 229l-65 -56c-44 -38 -65 -79 -65 -113c0 -43 34 -76 98 -76c8 0 15 2 23 3l8 -7l-4 -35l-8 -8l-212 6l-135 -6l-8 8l-3 35c42 55 91 67 251 211l89 78l-245 297c-23 27 -36 58 -80 58l-8 7v14l8 8c120 3 361 10 361 10c15 0 18 -13 22 -30
c3 -13 7 -29 18 -43z" />
    <glyph glyph-name="Y" unicode="Y" horiz-adv-x="980" 
d="M640 241v-201c18 0 52 1 78 6l16 3l8 -7l-2 -35l-8 -8l-252 6l-252 -6l-8 8l-2 35l8 7l16 -3c26 -5 60 -6 78 -6v140c0 14 -1 37 -20 70l-205 378c-17 31 -36 47 -80 47l-8 8v24l8 8l360 10c28 0 21 -37 41 -73l191 -339l6 -20h4l81 112c30 42 45 92 45 137
c0 72 -37 132 -107 132c-8 0 -15 -2 -23 -3l-8 7l4 35l8 8l212 -6l135 6l8 -8l3 -35c-42 -55 -113 -103 -232 -282z" />
    <glyph glyph-name="Z" unicode="Z" horiz-adv-x="940" 
d="M896 712v-21c-14 -13 -27 -29 -62 -79l-398 -508c-24 -30 -60 -62 -60 -62v-3c12 0 69 1 69 1h95c182 0 282 61 344 210l38 -3l-21 -249l-9 -8s-272 10 -352 10h-505l-8 8v17c5 10 29 49 61 90l386 491c24 31 66 72 66 72v3l-140 -1c-182 -1 -272 -61 -334 -210l-38 3
l21 249l9 8s262 -10 342 -10h488z" />
    <glyph glyph-name="bracketleft" unicode="[" horiz-adv-x="480" 
d="M360 -120c18 0 52 1 78 6l16 3l8 -7l-2 -35l-8 -8l-252 6l-125 -6c0 20 5 41 5 81v800c0 40 -5 61 -5 81l125 -6l252 6l8 -8l2 -35l-8 -7l-16 3c-26 5 -60 6 -78 6v-880z" />
    <glyph glyph-name="backslash" unicode="\" horiz-adv-x="640" 
d="M6 738l101 65l526 -822l-101 -65z" />
    <glyph glyph-name="bracketright" unicode="]" horiz-adv-x="480" 
d="M120 -120v880c-18 0 -52 -1 -78 -6l-16 -3l-8 7l2 35l8 8l252 -6l125 6c0 -20 -5 -41 -5 -81v-800c0 -40 5 -61 5 -81l-125 6l-252 -6l-8 8l-2 35l8 7l16 -3c26 -5 60 -6 78 -6z" />
    <glyph glyph-name="asciicircum" unicode="^" horiz-adv-x="680" 
d="M304 770h72l274 -283l-4 -7h-187l-117 244h-4l-117 -244h-187l-4 7z" />
    <glyph glyph-name="underscore" unicode="_" horiz-adv-x="790" 
d="M720 -220h-680v80h680v-80z" />
    <glyph glyph-name="grave" unicode="`" horiz-adv-x="400" 
d="M314 600l-294 198l25 31h217l105 -222l-5 -7h-48z" />
    <glyph glyph-name="a" unicode="a" horiz-adv-x="960" 
d="M840 39c18 0 42 1 68 6l16 3l8 -7l-1 -34l-8 -8l-183 6l-128 -11l-7 7c0 12 -20 136 -20 148h-3c-37 -104 -122 -159 -202 -159c-221 0 -340 94 -340 270s119 270 340 270c82 0 130 -50 180 -50c61 0 110 31 120 47l162 -7l7 -7c-1 -8 -9 -69 -9 -81v-393zM560 440
c-66 0 -113 50 -163 50s-77 -49 -77 -140v-180c0 -110 28 -140 80 -140c65 0 159 80 160 230v180z" />
    <glyph glyph-name="b" unicode="b" horiz-adv-x="920" 
d="M80 0v700c-10 0 -32 -3 -48 -6l-16 -3l-8 7l1 34l8 8l183 -5l161 12l7 -7c-1 -8 -8 -68 -8 -80l-2 -139c-1 -6 -3 -76 -4 -114c42 81 115 123 186 123c221 0 340 -94 340 -270s-119 -270 -340 -270c-82 0 -130 50 -180 50c-26 0 -45 -32 -45 -40l-7 -7s-123 7 -128 7
h-100zM360 80c66 0 113 -50 163 -50s77 36 77 140v175c0 110 -28 140 -80 140c-65 0 -159 -75 -160 -225v-180z" />
    <glyph glyph-name="c" unicode="c" horiz-adv-x="745" 
d="M449 38c100 0 194 41 234 85l11 1l21 -19l1 -11c-57 -63 -161 -104 -291 -104c-240 0 -400 108 -400 270s161 270 400 270c61 0 114 -25 156 -25c21 0 39 6 52 25h50l9 -8l21 -200l-41 -3l-10 6c-50 145 -154 155 -207 155c-65 0 -150 -70 -150 -220s53 -222 144 -222z
" />
    <glyph glyph-name="d" unicode="d" horiz-adv-x="960" 
d="M560 260c-1 150 -95 230 -160 230c-52 0 -80 -30 -80 -140v-180c0 -110 28 -140 80 -140c65 0 160 80 160 230zM560 700c-18 0 -52 -1 -78 -6l-16 -3l-8 7l1 34l8 8l213 -5l162 13l7 -7c-1 -8 -9 -69 -9 -81v-621c18 0 42 1 68 6l16 3l8 -7l-1 -34l-8 -8l-183 6l-128 -11
l-7 7c0 14 -20 136 -20 148h-3c-36 -104 -123 -159 -202 -159c-221 0 -340 94 -340 270s119 270 340 270c69 0 142 -41 183 -118h3l-2 28z" />
    <glyph glyph-name="e" unicode="e" horiz-adv-x="785" 
d="M544 299c-7 118 -48 191 -118 191c-69 0 -110 -69 -119 -179c35 -3 135 -13 168 -13c10 0 36 0 69 1zM760 255c0 0 -245 5 -285 5h-170c0 -150 53 -222 144 -222c100 0 193 42 233 86l11 1l22 -20l1 -11c-57 -63 -161 -104 -291 -104c-240 0 -400 108 -400 270
s162 270 400 270c204 0 340 -108 340 -270z" />
    <glyph glyph-name="f" unicode="f" horiz-adv-x="640" 
d="M120 455l-84 -3l-8 8v36l8 7l84 -1v18c0 144 117 240 300 240c80 0 163 -36 220 -40v-97l-8 -8h-107l-5 5c0 65 -38 100 -110 100c-77 0 -118 -36 -118 -103c0 -68 39 -115 96 -115c79 2 164 6 164 6l8 -8v-32l-8 -8l-152 -1v-419c18 0 52 1 78 6l16 3l8 -7l-2 -35l-8 -8
l-232 6l-232 -6l-8 8l-2 35l8 7l16 -3c26 -5 60 -6 78 -6v415z" />
    <glyph glyph-name="g" unicode="g" horiz-adv-x="953" 
d="M560 80v180c-1 150 -95 225 -160 225c-52 0 -80 -30 -80 -140v-165c0 -104 27 -150 77 -150s97 50 163 50zM840 480v-420c0 -195 -147 -300 -420 -300c-80 0 -233 40 -300 40v97l8 8h107l5 -5c0 -60 72 -100 180 -100c142 0 218 43 218 123c0 70 -31 117 -78 117
c-50 0 -99 -50 -180 -50c-204 0 -340 108 -340 270c0 176 119 270 340 270c81 0 169 -57 204 -166l1 9c0 12 2 140 2 148l7 7l126 -11l203 3l8 -8l1 -34l-8 -7l-16 3c-26 5 -50 6 -68 6z" />
    <glyph glyph-name="h" unicode="h" horiz-adv-x="1040" 
d="M400 80c0 -12 8 -73 9 -81l-7 -7l-162 13l-212 -6l-8 8l-2 35l8 7l16 -3c26 -5 60 -6 78 -6v660c-18 0 -42 -1 -68 -6l-16 -3l-8 7l1 34l8 8l223 -5l142 13l7 -7c-1 -8 -9 -69 -9 -81l-5 -248h2c41 76 115 118 183 118c274 0 286 -120 340 -120v-370c18 0 52 1 78 6l16 3
l8 -7l-2 -35l-8 -8l-212 6l-162 -13l-7 7c1 8 9 69 9 81v270c0 110 -28 140 -80 140c-65 0 -160 -80 -160 -230v-180z" />
    <glyph glyph-name="i" unicode="i" horiz-adv-x="520" 
d="M150 792l28 28h164l28 -28v-144l-28 -28h-164l-28 28v144zM120 480c-18 0 -42 -1 -68 -6l-16 -3l-8 7l1 34l8 8l223 -5l142 13l7 -7c-1 -8 -9 -69 -9 -81v-400c18 0 52 1 78 6l16 3l8 -7l-2 -35l-8 -8l-232 6l-232 -6l-8 8l-2 35l8 7l16 -3c26 -5 60 -6 78 -6v440z" />
    <glyph glyph-name="j" unicode="j" horiz-adv-x="500" 
d="M150 792l28 28h164l28 -28v-144l-28 -28h-164l-28 28v144zM120 50v430c-18 0 -42 -1 -68 -6l-16 -3l-8 7l1 34l8 8l203 -5l162 13l7 -7c-1 -8 -9 -69 -9 -81v-400c0 -182 -114 -280 -405 -280h-57l-8 8l1 55l8 7l36 -8c34 -8 66 -11 94 -11c88 0 159 59 159 132
c0 58 -39 97 -98 97z" />
    <glyph glyph-name="k" unicode="k" 
d="M120 700c-18 0 -42 -1 -68 -6l-16 -3l-8 7l1 34l8 8l203 -5l162 13l7 -7c-1 -8 -9 -69 -9 -81v-350h34l132 146c4 4 5 9 5 14c0 13 -9 28 -9 47l8 8l332 -5l8 -8v-24l-8 -8c-20 0 -77 -24 -128 -48l-295 -141c20 -9 61 -13 107 -13c82 0 178 12 202 24l11 -4l81 -195
c21 -48 59 -63 110 -63h10v-30l-342 -29c-14 0 -37 16 -58 57l-65 130c-35 69 -81 92 -135 99v-227c18 0 52 1 78 6l16 3l8 -7l-2 -35l-8 -8l-232 6l-232 -6l-8 8l-2 35l8 7l16 -3c26 -5 60 -6 78 -6v660z" />
    <glyph glyph-name="l" unicode="l" horiz-adv-x="520" 
d="M120 700c-18 0 -42 -1 -68 -6l-16 -3l-8 7l1 34l8 8l203 -5l162 13l7 -7c-1 -8 -9 -69 -9 -81v-620c18 0 52 1 78 6l16 3l8 -7l-2 -35l-8 -8l-232 6l-232 -6l-8 8l-2 35l8 7l16 -3c26 -5 60 -6 78 -6v660z" />
    <glyph glyph-name="m" unicode="m" horiz-adv-x="1479" 
d="M400 80c0 -12 8 -73 9 -81l-7 -7l-162 13l-212 -6l-8 8l-2 35l8 7l16 -3c26 -5 60 -6 78 -6v440c-18 0 -42 -1 -68 -6l-16 -3l-8 7l1 34l8 8l203 -3l119 11l7 -7c0 -8 2 -149 2 -161h4c27 99 99 170 183 170c265 0 270 -114 300 -160c29 94 99 160 180 160
c264 0 271 -120 325 -120v-370c18 0 52 1 78 6l16 3l8 -7l-2 -35l-8 -8l-212 6l-162 -13l-7 7c1 8 9 69 9 81v270c0 91 -11 140 -60 140c-77 0 -140 -99 -140 -220v-191c1 -11 8 -72 9 -80l-7 -7l-142 13l-142 -13l-7 7c1 8 9 69 9 81v270c0 91 -11 140 -60 140
c-77 0 -140 -99 -140 -220v-190z" />
    <glyph glyph-name="n" unicode="n" horiz-adv-x="1040" 
d="M400 80c0 -12 8 -73 9 -81l-7 -7l-162 13l-212 -6l-8 8l-2 35l8 7l16 -3c26 -5 60 -6 78 -6v440c-18 0 -42 -1 -68 -6l-16 -3l-8 7l1 34l8 8l203 -3l126 11l7 -7c0 -8 2 -136 2 -148h3c37 103 123 157 202 157c274 0 286 -120 340 -120v-370c18 0 52 1 78 6l16 3l8 -7
l-2 -35l-8 -8l-212 6l-162 -13l-7 7c1 8 9 69 9 81v270c0 110 -28 140 -80 140c-65 0 -160 -80 -160 -230v-180z" />
    <glyph glyph-name="o" unicode="o" horiz-adv-x="850" 
d="M425 -10c-240 0 -400 108 -400 270s160 270 400 270s400 -108 400 -270s-160 -270 -400 -270zM425 490c-52 0 -120 -30 -120 -140v-180c0 -110 68 -140 120 -140c53 0 120 30 120 140v180c0 110 -67 140 -120 140z" />
    <glyph glyph-name="p" unicode="p" horiz-adv-x="960" 
d="M400 260c0 -150 95 -230 160 -230c52 0 80 30 80 140v180c0 110 -28 140 -80 140c-65 0 -159 -80 -160 -230zM120 480c-18 0 -42 -1 -68 -6l-16 -3l-8 7l1 34l8 8l203 -3l124 11l7 -7c0 -14 2 -141 2 -157h3c35 109 123 166 204 166c221 0 340 -94 340 -270
s-119 -270 -340 -270c-68 0 -142 41 -183 117l-3 -1l2 -14l4 -282c18 0 52 1 78 6l16 3l8 -7l-2 -35l-8 -8l-232 6l-232 -6l-8 8l-2 35l8 7l16 -3c26 -5 60 -6 78 -6v670z" />
    <glyph glyph-name="q" unicode="q" horiz-adv-x="960" 
d="M560 260c-1 150 -95 230 -160 230c-52 0 -80 -30 -80 -140v-180c0 -110 28 -140 80 -140c65 0 160 80 160 230zM40 260c0 176 119 270 340 270c81 0 169 -57 204 -166l1 6c0 12 2 143 2 151l7 7l126 -11l203 3l8 -8l1 -34l-8 -7l-16 3c-26 5 -50 6 -68 6v-670
c18 0 52 1 78 6l16 3l8 -7l-2 -35l-8 -8l-231 6l-142 -13l-7 7c1 8 9 69 9 81l3 259c-42 -78 -116 -119 -184 -119c-221 0 -340 94 -340 270z" />
    <glyph glyph-name="r" unicode="r" horiz-adv-x="780" 
d="M120 480c-18 0 -42 -1 -68 -6l-16 -3l-8 7l1 34l8 8l203 -3l128 11l7 -7c-1 -8 -3 -216 -3 -228h3c34 137 123 257 205 257h172l8 -8v-134l-48 -48h-144l-8 8v112c-65 0 -160 -150 -160 -300v-140c18 0 52 1 78 6l16 3l8 -7l-2 -35l-8 -8l-232 6l-232 -6l-8 8l-2 35l8 7
l16 -3c26 -5 60 -6 78 -6v440z" />
    <glyph glyph-name="s" unicode="s" horiz-adv-x="720" 
d="M35 172l33 2l5 -4c47 -103 187 -140 262 -140c132 0 186 21 186 50c0 48 -121 64 -245 95c-123 31 -246 77 -246 182c0 87 116 173 312 173c49 0 118 -18 169 -18c25 0 46 5 57 18h39l6 -5l16 -163l-30 -2l-8 5c-47 103 -192 125 -248 125c-99 0 -137 -18 -137 -45
c0 -44 117 -53 240 -88c120 -34 245 -71 245 -188c0 -114 -137 -179 -356 -179c-74 0 -166 25 -217 25c-15 0 -26 -2 -32 -7h-29l-6 6z" />
    <glyph glyph-name="t" unicode="t" horiz-adv-x="670" 
d="M120 453l-92 -5l-8 8v36l8 8h92c65 0 100 59 100 132l8 8h164l8 -8v-130c86 2 202 8 202 8l8 -8v-34l-8 -8h-202v-150c0 -80 -40 -167 -40 -220c0 -39 24 -60 70 -60c72 0 110 49 110 140l5 5h97l8 -8c0 -115 -87 -177 -230 -177c-183 0 -300 96 -300 240v223z" />
    <glyph glyph-name="u" unicode="u" horiz-adv-x="1020" 
d="M740 515l162 13l7 -7c-1 -8 -9 -69 -9 -81v-400c18 0 42 1 68 6l16 3l8 -7l-1 -34l-8 -8l-203 3l-126 -11l-7 7c0 9 -2 136 -2 148h-3c-37 -103 -123 -157 -202 -157c-274 0 -286 120 -340 120v370c-18 0 -32 -1 -58 -6l-16 -3l-8 7l2 35l8 8l192 -6l162 13l7 -7
c-1 -8 -9 -69 -9 -81v-270c0 -110 28 -140 80 -140c65 0 160 80 160 230v220c-18 0 -52 -1 -78 -6l-16 -3l-8 7l2 35l8 8z" />
    <glyph glyph-name="v" unicode="v" horiz-adv-x="830" 
d="M277 -10c0 8 -7 35 -22 70l-157 368c-14 33 -39 47 -83 47l-8 8v24l8 8l323 10h1c14 0 24 -36 40 -73l160 -369h17l53 118c18 41 28 85 28 126c0 80 -37 147 -113 147c-8 0 -15 -2 -23 -3l-8 7l4 35l8 8l172 -6l135 6l8 -8l3 -35c-42 -55 -140 -212 -186 -318l-69 -161
l-8 -7z" />
    <glyph glyph-name="w" unicode="w" horiz-adv-x="1280" 
d="M277 -10c0 8 -7 35 -22 70l-157 368c-14 33 -39 47 -83 47l-8 8v24l8 8l325 10h4c10 0 19 -6 19 -14c0 -16 8 -40 16 -59l160 -369h7l53 118c18 41 28 85 28 126c0 80 -37 147 -113 147c-8 0 -15 -2 -23 -3l-8 7l4 35l8 8l172 -6l135 6l8 -8c9 -14 13 -24 29 -61
l160 -369h7l53 118c18 41 28 85 28 126c0 80 -37 147 -113 147c-8 0 -15 -2 -23 -3l-8 7l4 35l8 8l172 -6l135 6l8 -8l3 -35c-42 -55 -140 -212 -186 -318l-69 -161l-8 -7l-273 -2c0 8 -7 35 -22 70l-64 151c-9 -18 -17 -35 -24 -51l-69 -161l-8 -7z" />
    <glyph glyph-name="x" unicode="x" horiz-adv-x="780" 
d="M487 318l38 31c32 26 47 55 47 80c0 32 -26 56 -73 56c-6 0 -11 -1 -17 -2l-6 5l3 25l6 6l153 -4l107 4l6 -6l2 -25c-30 -40 -59 -59 -177 -160l-58 -49l179 -217c17 -20 35 -32 67 -32l6 -5v-20l-6 -6l-309 -7c-12 0 -14 10 -17 24c-2 9 -5 19 -12 29l-124 161l-44 -37
c-32 -26 -47 -54 -47 -76c0 -29 26 -49 73 -49c6 0 11 1 17 2l6 -5l-3 -36l-6 -6l-160 6l-120 -6l-5 6l-3 36c30 40 90 54 208 155l55 47l-172 209c-16 20 -31 33 -63 33l-6 5v19l6 6l304 7c12 0 14 -10 18 -24c2 -9 5 -20 12 -29z" />
    <glyph glyph-name="y" unicode="y" horiz-adv-x="830" 
d="M285 -10l-30 70l-157 368c-14 33 -39 47 -83 47l-8 8v24l8 8l323 10h1c14 0 24 -36 40 -73l160 -369h16l54 118c19 41 28 85 28 126c0 80 -37 147 -113 147c-8 0 -15 -2 -23 -3l-8 7l4 35l8 8l172 -6l135 6l8 -8l3 -35c-42 -55 -139 -209 -187 -314l-75 -164
c-76 -167 -161 -240 -411 -240h-37l-8 8l-21 87l20 8c29 -34 82 -52 140 -52c88 0 159 45 159 102c0 50 -55 77 -118 77z" />
    <glyph glyph-name="z" unicode="z" horiz-adv-x="800" 
d="M752 512v-21c-14 -13 -45 -33 -85 -79l-271 -308c-25 -29 -64 -63 -64 -63v-2c12 0 73 1 73 1h15c182 0 252 61 311 203l11 6l30 -2l-21 -249l-9 -8s-242 10 -322 10h-385l-8 8v17c5 10 27 51 61 90l259 291l73 72v3l-80 -1c-182 -2 -212 -61 -271 -203l-11 -6l-30 2
l21 249l9 8s202 -10 282 -10h404z" />
    <glyph glyph-name="braceleft" unicode="{" horiz-adv-x="480" 
d="M40 308v24l8 8c16 0 72 9 72 90v150c0 143 119 220 332 220l8 -8v-24l-8 -8c-31 0 -52 -42 -52 -120v-80c0 -119 -65 -218 -222 -238h-6v-4h6c157 -20 222 -119 222 -238v-80c0 -78 21 -120 52 -120l8 -8v-24l-8 -8c-213 0 -332 77 -332 220v150c0 81 -56 90 -72 90z" />
    <glyph glyph-name="bar" unicode="|" horiz-adv-x="240" 
d="M40 792l8 8h144l8 -8v-984l-8 -8h-144l-8 8v984z" />
    <glyph glyph-name="braceright" unicode="}" horiz-adv-x="480" 
d="M440 308l-8 -8c-16 0 -72 -9 -72 -90v-150c0 -143 -119 -220 -332 -220l-8 8v24l8 8c31 0 52 42 52 120v80c0 119 65 218 222 238h6v4h-6c-157 20 -222 119 -222 238v80c0 78 -21 120 -52 120l-8 8v24l8 8c213 0 332 -77 332 -220v-150c0 -81 56 -90 72 -90l8 -8v-24z
" />
    <glyph glyph-name="asciitilde" unicode="~" horiz-adv-x="720" 
d="M25 301c0 86 82 156 183 156c110 0 184 -96 235 -96c35 0 64 45 64 101l9 7l179 -20c0 -86 -82 -156 -184 -156c-110 0 -183 96 -234 96c-35 0 -64 -54 -64 -101l-9 -7z" />
    <glyph glyph-name="uni00A0" unicode="&#xa0;" horiz-adv-x="400" 
 />
    <glyph glyph-name="exclamdown" unicode="&#xa1;" horiz-adv-x="320" 
d="M48 -240l-8 8v102c0 86 40 210 40 382l8 8h144l8 -8c0 -172 40 -296 40 -382v-102l-8 -8h-224zM240 408l-28 -28h-104l-28 28v104l28 28h104l28 -28v-104z" />
    <glyph glyph-name="cent" unicode="&#xa2;" horiz-adv-x="740" 
d="M700 422l-30 -3l-10 6c-47 136 -144 153 -200 155v-440c94 4 176 45 214 87l11 1l25 -23l1 -11c-51 -56 -140 -95 -251 -103v-129l-2 -2h-36l-2 2v128c-240 0 -400 108 -400 270s161 270 400 270v128l2 2h36l2 -2v-131c46 -7 86 -22 119 -22c21 0 39 6 52 25h39l9 -8z
M420 142v433c-58 -18 -120 -87 -120 -215c0 -136 44 -206 120 -218z" />
    <glyph glyph-name="sterling" unicode="&#xa3;" horiz-adv-x="960" 
d="M160 60l2 280h-94l-8 8v24l8 8h94l-2 150c54 0 166 200 440 200c104 0 261 -54 261 -222l-8 -8h-26l-8 8c0 142 -134 182 -199 182c-52 0 -139 -30 -140 -140l-2 -169l194 3l8 -8v-31l-8 -8l-194 2l2 -277c182 0 335 19 382 160l10 7l52 -1l7 -9l-21 -229
s-270 30 -530 30c-140 0 -352 -21 -352 -21l-8 8l-2 36l8 7c12 -2 26 -4 36 -4c32 0 80 7 98 14z" />
    <glyph glyph-name="currency" unicode="&#xa4;" horiz-adv-x="380" 
d="M86 343c0 -57 46 -103 103 -103s103 46 103 103s-46 103 -103 103s-103 -46 -103 -103zM113 222l-47 -46l-40 44l45 43c-17 25 -25 53 -25 80c0 31 9 57 26 81l-52 52l46 38l49 -48c16 10 41 20 74 20c27 0 55 -8 80 -25l50 52l41 -45l-50 -49c14 -22 22 -48 22 -76
c0 -33 -10 -58 -20 -74l46 -47l-45 -39l-43 43c-24 -17 -50 -26 -81 -26c-28 0 -54 8 -76 22z" />
    <glyph glyph-name="yen" unicode="&#xa5;" horiz-adv-x="980" 
d="M320 40v96l-172 -9l-8 8v37l8 8h172c0 14 -1 37 -20 70l-205 378c-17 31 -36 58 -80 58l-8 7v14l8 8l360 10c15 0 19 -12 24 -28c4 -13 8 -29 17 -45l191 -339l6 -20h4l81 112c30 42 45 92 45 137c0 72 -37 132 -107 132c-8 0 -15 -2 -23 -3l-8 7l4 35l8 8l212 -6l135 6
l8 -8l3 -35c-42 -55 -113 -103 -232 -282l-103 -155v-55l172 8l8 -8v-36l-8 -8h-172v-102c18 0 52 1 78 6l16 3l8 -7l-2 -35l-8 -8l-252 6l-252 -6l-8 8l-2 35l8 7l16 -3c26 -5 60 -6 78 -6z" />
    <glyph glyph-name="brokenbar" unicode="&#xa6;" horiz-adv-x="240" 
d="M48 360l-8 8v424l8 8h144l8 -8v-424l-8 -8h-144zM192 160l8 -8v-344l-8 -8h-144l-8 8v344l8 8h144z" />
    <glyph glyph-name="section" unicode="&#xa7;" horiz-adv-x="660" 
d="M430 192c66 17 101 48 101 68c0 83 -167 120 -301 168c-66 -17 -100 -46 -100 -68c0 -84 166 -120 300 -168zM166 454c-67 31 -116 71 -116 133c0 87 76 173 272 173c49 0 114 -18 162 -18c24 0 43 5 54 18h29l6 -5l16 -163l-20 -2l-8 5c-47 103 -182 125 -238 125
c-64 0 -107 -18 -107 -45c0 -94 444 -138 444 -336c0 -76 -61 -139 -166 -173c67 -31 116 -71 116 -133c0 -87 -76 -173 -272 -173c-49 0 -114 18 -162 18c-24 0 -43 -5 -54 -18h-29l-6 5l-16 163l20 2l8 -5c47 -103 182 -125 238 -125c64 0 107 18 107 45
c0 94 -444 138 -444 336c0 76 61 139 166 173z" />
    <glyph glyph-name="dieresis" unicode="&#xa8;" horiz-adv-x="480" 
d="M290 772l28 28h104l28 -28v-104l-28 -28h-104l-28 28v104zM30 772l28 28h104l28 -28v-104l-28 -28h-104l-28 28v104z" />
    <glyph glyph-name="copyright" unicode="&#xa9;" horiz-adv-x="930" 
d="M465 -26c-235 0 -425 174 -425 388c0 215 190 390 425 390s425 -175 425 -390c0 -214 -190 -388 -425 -388zM850 362c0 193 -172 350 -385 350s-385 -157 -385 -350c0 -192 172 -348 385 -348s385 156 385 348zM519 201c72 0 139 31 167 63h8l17 -14l1 -8
c-41 -46 -116 -75 -210 -75c-173 0 -288 77 -288 194s116 195 288 195c44 0 84 -18 114 -18c15 0 28 5 38 18h28l7 -6l15 -144l-21 -2l-8 4c-36 104 -113 114 -151 114c-47 0 -110 -53 -110 -161s39 -160 105 -160z" />
    <glyph glyph-name="ordfeminine" unicode="&#xaa;" horiz-adv-x="660" 
d="M567 449c12 0 27 1 44 4l11 2l5 -4l-1 -22l-5 -6l-119 4l-83 -7l-5 5c0 8 -13 88 -13 96h-2c-24 -68 -79 -103 -131 -103c-144 0 -221 61 -221 175s77 175 221 175c53 0 85 -32 117 -32c40 0 72 21 78 31l105 -5l5 -5c-1 -5 -6 -44 -6 -52v-256zM385 710
c-43 0 -74 32 -106 32s-50 -31 -50 -90v-118c0 -72 18 -90 52 -90c42 0 103 51 104 149v117z" />
    <glyph glyph-name="guillemotleft" unicode="&#xab;" horiz-adv-x="460" 
d="M220 198v-125l-6 -2l-194 172v32l194 172l6 -2v-125l-134 -59v-4zM420 198v-125l-6 -2l-194 172v32l194 172l6 -2v-125l-134 -59v-4z" />
    <glyph glyph-name="logicalnot" unicode="&#xac;" horiz-adv-x="560" 
d="M40 312l8 8h464l8 -8v-264l-8 -8h-64l-8 8v192h-392l-8 8v64z" />
    <glyph glyph-name="uni00AD" unicode="&#xad;" horiz-adv-x="360" 
d="M320 288l-8 -8h-264l-8 8v104l8 8h264l8 -8v-104z" />
    <glyph glyph-name="registered" unicode="&#xae;" horiz-adv-x="930" 
d="M465 -26c-235 0 -425 174 -425 388c0 215 190 390 425 390s425 -175 425 -390c0 -214 -190 -388 -425 -388zM850 362c0 193 -172 350 -385 350s-385 -157 -385 -350c0 -192 172 -348 385 -348s385 156 385 348zM254 514c-12 0 -34 -2 -47 -5l-3 3v31l4 4l366 5
c78 0 135 -47 135 -110c0 -67 -93 -114 -167 -115v-1c12 -8 69 -18 122 -18l26 -71c7 -22 26 -30 49 -30c5 0 15 1 15 1v-23l-178 -17h-5c-7 0 -19 8 -29 28l-38 86c-17 39 -34 40 -72 41l2 -110c11 0 35 2 48 5l4 -4l-2 -28l-4 -4l-106 3l-166 -3l-4 4v28l4 4
c12 -3 35 -5 46 -5v301zM434 516l-2 -157h12c65 0 100 22 100 83c0 54 -35 75 -100 75z" />
    <glyph glyph-name="macron" unicode="&#xaf;" horiz-adv-x="440" 
d="M400 640h-360v120h360v-120z" />
    <glyph glyph-name="degree" unicode="&#xb0;" horiz-adv-x="320" 
d="M160 770c63 0 120 -56 120 -120c0 -68 -61 -120 -120 -120c-63 0 -120 56 -120 120c0 68 61 120 120 120zM160 730c-37 0 -80 -36 -80 -80c0 -41 39 -80 80 -80c37 0 80 36 80 80c0 41 -39 80 -80 80z" />
    <glyph glyph-name="plusminus" unicode="&#xb1;" horiz-adv-x="560" 
d="M316 444l8 -8l188 4l8 -8v-64l-8 -8l-188 4l-8 -8l4 -188l-8 -8h-64l-8 8l4 188l-8 8l-188 -4l-8 8v64l8 8l188 -4l8 8l-4 188l8 8h64l8 -8zM480 8l-8 -8h-384l-8 8v64l8 8h384l8 -8v-64z" />
    <glyph glyph-name="uni00B2" unicode="&#xb2;" horiz-adv-x="520" 
d="M487 460l-19 -132l-9 -7c-3 0 -168 6 -215 6h-201l-8 8v82l1 1c101 104 263 152 263 232c0 53 -38 91 -93 91c-33 0 -97 -14 -126 -97l-9 -5l-25 1l13 113l8 7h28c58 0 69 15 125 15c153 0 257 -49 257 -125c0 -134 -274 -179 -379 -241l15 -4c108 26 305 55 331 55h43z
" />
    <glyph glyph-name="uni00B3" unicode="&#xb3;" horiz-adv-x="530" 
d="M191 539l-5 6s-1 1 -1 2v17c0 1 0 1 1 2l5 5s2 1 3 1h7c56 0 89 36 89 84c0 54 -36 87 -85 87c-33 0 -95 -13 -123 -96l-2 -2l-6 -4c-1 0 -1 -1 -2 -1l-42 2c-3 0 -4 3 -4 3l10 98c0 1 1 1 2 2l5 5s2 1 3 1c47 0 124 24 188 24c133 0 220 -48 220 -119
c0 -42 -47 -73 -101 -91c92 -18 155 -64 155 -119c0 -78 -118 -126 -280 -126c-76 0 -150 24 -194 24c-1 0 -3 1 -3 1l-5 5s-2 1 -2 2l-10 97c0 3 3 4 3 4l43 2s1 -1 2 -1l6 -4s2 -1 2 -2c24 -87 103 -95 132 -96c82 0 130 42 130 94c0 58 -48 93 -116 93h-22
c-1 0 -2 -1 -3 0z" />
    <glyph glyph-name="acute" unicode="&#xb4;" horiz-adv-x="400" 
d="M76 600h-38l-5 7l105 222h217l25 -31z" />
    <glyph glyph-name="uni00B5" unicode="&#xb5;" horiz-adv-x="1040" 
d="M920 40c18 0 42 1 68 6l16 3l8 -7l-1 -34l-8 -8l-203 3l-127 -11l-7 7c0 8 -1 136 -1 148h-3c-37 -103 -123 -157 -202 -157c-201 0 -261 65 -300 99l10 -141c4 -54 60 -65 60 -120c0 -20 -30 -28 -110 -28v310v350v20c-18 0 -52 -1 -78 -6l-16 -3l-8 7l2 35l8 8l212 -6
l162 13l7 -7c-1 -8 -9 -69 -9 -81v-270c0 -110 28 -140 80 -140c65 0 160 80 160 230v220c-18 0 -52 -1 -78 -6l-16 -3l-8 7l2 35l8 8l212 -6l162 13l7 -7c-1 -8 -9 -69 -9 -81v-400z" />
    <glyph glyph-name="paragraph" unicode="&#xb6;" horiz-adv-x="760" 
d="M200 400c-87 0 -160 73 -160 160s73 160 160 160l220 -5l312 5l8 -8v-24l-8 -8h-12c-66 0 -80 -10 -80 -30v-780c0 -20 14 -30 80 -30h12l8 -8v-24l-8 -8l-132 5l-112 -5l-8 8v837c0 20 -20 30 -60 30s-60 -10 -60 -30v-837l-8 -8l-112 5l-142 -5l-8 8v24l8 8h22
c66 0 80 10 80 30v530z" />
    <glyph glyph-name="periodcentered" unicode="&#xb7;" horiz-adv-x="240" 
d="M40 362l28 28h104l28 -28v-104l-28 -28h-104l-28 28v104z" />
    <glyph glyph-name="cedilla" unicode="&#xb8;" horiz-adv-x="450" 
d="M159 -102l-25 7l28 107l29 -8l-16 -66c10 3 19 4 31 4c85 0 154 -43 154 -96c0 -47 -71 -86 -158 -86c-36 0 -70 17 -88 47l26 15c12 -20 35 -32 62 -32c23 0 38 24 38 60c0 37 -14 62 -34 62c-19 0 -29 -6 -47 -14z" />
    <glyph glyph-name="uni00B9" unicode="&#xb9;" horiz-adv-x="360" 
d="M184 319l-141 -3l-8 7l-1 26l8 7l12 -2c15 -3 32 -4 41 -4v320c-18 -1 -53 -7 -65 -9l-12 -2l-8 7v25l7 7l196 77h58l8 -7c-1 -7 -6 -45 -6 -51v-367c14 0 30 2 41 4l12 2l8 -7l-1 -26l-8 -7z" />
    <glyph glyph-name="ordmasculine" unicode="&#xba;" horiz-adv-x="580" 
d="M290 418c-156 0 -260 70 -260 175s104 175 260 175s260 -70 260 -175s-104 -175 -260 -175zM290 742c-34 0 -78 -18 -78 -90v-118c0 -72 44 -90 78 -90s78 18 78 90v118c0 72 -44 90 -78 90z" />
    <glyph glyph-name="guillemotright" unicode="&#xbb;" horiz-adv-x="460" 
d="M240 322v125l6 2l194 -172v-32l-194 -172l-6 2v125l134 59v4zM40 322v125l6 2l194 -172v-32l-194 -172l-6 2v125l134 59v4z" />
    <glyph glyph-name="onequarter" unicode="&#xbc;" horiz-adv-x="1080" 
d="M784 739l11 1l50 -40l1 -12l-550 -667l-11 -1l-50 40l-1 12zM918 -16l-141 -5l-8 8l-2 25l9 8l12 -2c15 -3 32 -4 41 -4v51h-256l-8 8v41l2 2c161 96 162 292 162 297v2l8 8h132l8 -8v-2c0 -91 -17 -182 -154 -290l-31 -24h137s69 54 112 178h64l7 -8v-2
c-1 -6 -5 -44 -5 -48v-115c40 4 40 6 63 6l-7 -38l-8 -7h-48v-51c14 0 30 2 41 4l12 2l8 -8l-1 -25l-8 -8zM184 314l-141 -3l-8 7l-1 26l8 7l12 -2c15 -3 32 -4 41 -4v320c-18 -1 -53 -7 -65 -9l-12 -2l-8 7v25l7 7l196 77h58l8 -7c-1 -7 -6 -45 -6 -51v-367c14 0 30 2 41 4
l12 2l8 -7l-1 -26l-8 -7z" />
    <glyph glyph-name="onehalf" unicode="&#xbd;" horiz-adv-x="1140" 
d="M1127 118l-19 -132l-9 -7c-3 0 -168 6 -215 6h-201l-8 8v82l1 1c101 104 263 152 263 232c0 53 -38 91 -93 91c-33 0 -97 -14 -126 -97l-9 -5l-25 1l13 113l8 7h28c58 0 69 15 125 15c153 0 257 -49 257 -125c0 -134 -274 -179 -379 -241l15 -4c108 26 305 55 331 55h43z
M784 739l11 1l50 -40l1 -12l-550 -667l-11 -1l-50 40l-1 12zM95 665c-18 -1 -53 -7 -65 -9l-12 -2l-8 7v25l7 7l196 77h58l8 -7c-1 -7 -6 -45 -6 -51v-367c14 0 30 2 41 4l12 2l8 -7l-1 -26l-8 -7l-141 3l-141 -3l-8 7l-1 26l8 7l12 -2c15 -3 32 -4 41 -4v320z" />
    <glyph glyph-name="threequarters" unicode="&#xbe;" horiz-adv-x="1180" 
d="M1018 -16l-141 -5l-8 8l-2 25l9 8l12 -2c15 -3 32 -4 41 -4v51h-256l-8 8v41l2 2c161 96 162 292 162 297v2l8 8h132l8 -8v-2c0 -91 -17 -182 -154 -290l-31 -24h137s69 54 112 178h64l7 -8v-2c-1 -6 -5 -44 -5 -48v-115c40 4 40 6 63 6l-7 -38l-8 -7h-48v-51
c14 0 30 2 41 4l12 2l8 -8l-1 -25l-8 -8zM191 535l-5 6s-1 1 -1 2v17c0 1 0 1 1 2l5 5s2 1 3 1h7c56 0 89 36 89 84c0 54 -36 87 -85 87c-33 0 -95 -13 -123 -96l-2 -2l-6 -4c-1 0 -1 -1 -2 -1l-42 2c-3 0 -4 3 -4 3l10 98c0 1 1 1 2 2l5 5s2 1 3 1c47 0 124 24 188 24
c133 0 220 -48 220 -119c0 -42 -47 -73 -101 -91c92 -18 155 -64 155 -119c0 -78 -118 -126 -280 -126c-76 0 -150 24 -194 24c-1 0 -3 1 -3 1l-5 5s-2 1 -2 2l-10 97c0 3 3 4 3 4l43 2s1 -1 2 -1l6 -4s2 -1 2 -2c24 -87 103 -95 132 -96c82 0 130 42 130 94
c0 58 -48 93 -116 93h-22c-1 0 -2 -1 -3 0zM884 739l11 1l50 -40l1 -12l-550 -667l-11 -1l-50 40l-1 12z" />
    <glyph glyph-name="questiondown" unicode="&#xbf;" horiz-adv-x="600" 
d="M392 260l8 -8v-76c0 -124 -180 -157 -180 -276c0 -66 48 -110 119 -110c52 0 134 20 157 165l6 6l70 -2l-13 -161l-7 -8c-75 0 -142 -40 -232 -40c-180 0 -300 71 -300 170c0 104 77 155 178 214c42 24 42 53 42 91v27l8 8h144zM400 408l-28 -28h-104l-28 28v104l28 28
h104l28 -28v-104z" />
    <glyph glyph-name="Agrave" unicode="&#xc0;" horiz-adv-x="1010" 
d="M576 781l-294 198l25 31h217l105 -222l-5 -7h-48zM525 255c-33 2 -102 6 -132 6h-179c-12 -34 -18 -68 -18 -98c0 -67 31 -117 103 -117c8 0 15 2 23 3l8 -7l-4 -35l-8 -8l-162 6l-135 -6l-8 8l-3 35c93 122 216 343 291 518l69 161l50 -1l241 10c0 -8 9 -34 22 -70
l244 -568c14 -32 32 -53 67 -53l6 -8l-1 -24l-9 -8l-217 6l-199 -6l-8 8l-2 29l8 7c4 -1 14 -4 22 -4s14 8 14 17c0 4 -1 9 -2 12zM504 304l-128 293h-12l-129 -286c41 -4 128 -12 158 -12c24 0 75 3 111 5z" />
    <glyph glyph-name="Aacute" unicode="&#xc1;" horiz-adv-x="1010" 
d="M438 781h-38l-5 7l105 222h217l25 -31zM525 255c-33 2 -102 6 -132 6h-179c-12 -34 -18 -68 -18 -98c0 -67 31 -117 103 -117c8 0 15 2 23 3l8 -7l-4 -35l-8 -8l-162 6l-135 -6l-8 8l-3 35c93 122 216 343 291 518l69 161l50 -1l241 10c0 -8 9 -34 22 -70l244 -568
c14 -32 32 -53 67 -53l6 -8l-1 -24l-9 -8l-217 6l-199 -6l-8 8l-2 29l8 7c4 -1 14 -4 22 -4s14 8 14 17c0 4 -1 9 -2 12zM504 304l-128 293h-12l-129 -286c41 -4 128 -12 158 -12c24 0 75 3 111 5z" />
    <glyph glyph-name="Acircumflex" unicode="&#xc2;" horiz-adv-x="1010" 
d="M415 1000h192l163 -163l-2 -7l-167 -30l-88 160h-4l-88 -160l-167 30l-2 7zM525 255c-33 2 -102 6 -132 6h-179c-12 -34 -18 -68 -18 -98c0 -67 31 -117 103 -117c8 0 15 2 23 3l8 -7l-4 -35l-8 -8l-162 6l-135 -6l-8 8l-3 35c93 122 216 343 291 518l69 161l50 -1
l241 10c0 -8 9 -34 22 -70l244 -568c14 -32 32 -53 67 -53l6 -8l-1 -24l-9 -8l-217 6l-199 -6l-8 8l-2 29l8 7c4 -1 14 -4 22 -4s14 8 14 17c0 4 -1 9 -2 12zM504 304l-128 293h-12l-129 -286c41 -4 128 -12 158 -12c24 0 75 3 111 5z" />
    <glyph glyph-name="Atilde" unicode="&#xc3;" horiz-adv-x="1010" 
d="M306 831l5 29c12 62 41 127 118 127c81 0 119 -112 137 -115l23 110l9 7l119 -20l-6 -29c-12 -62 -41 -127 -118 -127c-81 0 -118 112 -136 115l-23 -110l-9 -7zM525 255c-33 2 -102 6 -132 6h-179c-12 -34 -18 -68 -18 -98c0 -67 31 -117 103 -117c8 0 15 2 23 3l8 -7
l-4 -35l-8 -8l-162 6l-135 -6l-8 8l-3 35c93 122 216 343 291 518l69 161l50 -1l241 10c0 -8 9 -34 22 -70l244 -568c14 -32 32 -53 67 -53l6 -8l-1 -24l-9 -8l-217 6l-199 -6l-8 8l-2 29l8 7c4 -1 14 -4 22 -4s14 8 14 17c0 4 -1 9 -2 12zM504 304l-128 293h-12l-129 -286
c41 -4 128 -12 158 -12c24 0 75 3 111 5z" />
    <glyph glyph-name="Adieresis" unicode="&#xc4;" horiz-adv-x="1010" 
d="M562 952l28 28h104l28 -28v-104l-28 -28h-104l-28 28v104zM302 952l28 28h104l28 -28v-104l-28 -28h-104l-28 28v104zM525 255c-33 2 -102 6 -132 6h-179c-12 -34 -18 -68 -18 -98c0 -67 31 -117 103 -117c8 0 15 2 23 3l8 -7l-4 -35l-8 -8l-162 6l-135 -6l-8 8l-3 35
c93 122 216 343 291 518l69 161l50 -1l241 10c0 -8 9 -34 22 -70l244 -568c14 -32 32 -53 67 -53l6 -8l-1 -24l-9 -8l-217 6l-199 -6l-8 8l-2 29l8 7c4 -1 14 -4 22 -4s14 8 14 17c0 4 -1 9 -2 12zM504 304l-128 293h-12l-129 -286c41 -4 128 -12 158 -12c24 0 75 3 111 5z
" />
    <glyph glyph-name="Aring" unicode="&#xc5;" horiz-adv-x="1010" 
d="M512 970c69 0 120 -56 120 -120c0 -69 -56 -120 -120 -120c-69 0 -120 56 -120 120c0 69 56 120 120 120zM512 930c-43 0 -80 -34 -80 -80c0 -43 34 -80 80 -80c43 0 80 34 80 80c0 43 -34 80 -80 80zM525 255c-33 2 -102 6 -132 6h-179c-12 -34 -18 -68 -18 -98
c0 -67 31 -117 103 -117c8 0 15 2 23 3l8 -7l-4 -35l-8 -8l-162 6l-135 -6l-8 8l-3 35c93 122 216 343 291 518l69 161l50 -1l241 10c0 -8 9 -34 22 -70l244 -568c14 -32 32 -53 67 -53l6 -8l-1 -24l-9 -8l-217 6l-199 -6l-8 8l-2 29l8 7c4 -1 14 -4 22 -4s14 8 14 17
c0 4 -1 9 -2 12zM504 304l-128 293h-12l-129 -286c41 -4 128 -12 158 -12c24 0 75 3 111 5z" />
    <glyph glyph-name="AE" unicode="&#xc6;" horiz-adv-x="1360" 
d="M560 40v215c-34 2 -137 6 -167 6h-179c-12 -34 -18 -68 -18 -98c0 -67 31 -117 103 -117c8 0 15 2 23 3l8 -7l-4 -35l-8 -8l-162 6l-135 -6l-8 8l-3 35c93 122 216 343 291 518l49 115c-37 -1 -67 -2 -75 -4l-16 -3l-8 7l2 42l8 8l460 -5c79 0 521 10 521 10l9 -8
l21 -208l-40 -3l-11 6c-59 142 -181 163 -341 163l-5 -280h15c72 0 103 95 127 136l11 3l31 -7v-304l-31 -7l-11 3c-24 41 -55 136 -127 136h-15l5 -320c182 0 356 81 402 222l10 7l42 -1l7 -9l-21 -269s-400 10 -480 10h-372l-8 8l-2 35l8 7l16 -3c26 -5 60 -7 78 -7z
M560 680c-9 0 -81 -1 -146 -3l-50 -80l-129 -286c41 -4 128 -12 158 -12c24 0 130 3 167 5v376z" />
    <glyph glyph-name="Ccedilla" unicode="&#xc7;" horiz-adv-x="880" 
d="M459 -102l-25 7l24 90c-260 29 -428 168 -428 365c0 222 192 370 480 370c87 0 172 -20 225 -20c26 0 44 5 50 20h40l9 -8l21 -213h-63l-10 6c-41 149 -182 170 -242 170c-124 0 -190 -114 -190 -325c0 -208 74 -325 210 -325c119 0 215 83 259 141l11 -1l25 -24l-1 -11
c-57 -73 -169 -150 -294 -150c-25 0 -49 1 -72 3l-13 -55c10 3 19 4 31 4c85 0 154 -43 154 -96c0 -47 -71 -86 -158 -86c-36 0 -70 17 -88 47l26 15c12 -20 35 -32 62 -32c23 0 38 24 38 60c0 37 -14 62 -34 62c-19 0 -29 -6 -47 -14z" />
    <glyph glyph-name="Egrave" unicode="&#xc8;" horiz-adv-x="960" 
d="M524 781l-294 198l25 31h217l105 -222l-5 -7h-48zM120 680c-18 0 -52 -2 -78 -7l-16 -3l-8 7l2 35l8 8h373c80 0 441 10 441 10l9 -8l21 -208l-40 -3l-11 6c-59 142 -221 163 -381 163l-5 -280h25c72 0 113 95 137 136l11 3l31 -7v-304l-31 -7l-11 3
c-24 41 -65 136 -137 136h-25l5 -320c182 0 395 81 442 222l10 7l42 -1l7 -9l-21 -269s-440 10 -520 10h-372l-8 8l-2 35l8 7l16 -3c26 -5 60 -7 78 -7v640z" />
    <glyph glyph-name="Eacute" unicode="&#xc9;" horiz-adv-x="960" 
d="M466 781h-38l-5 7l105 222h217l25 -31zM120 680c-18 0 -52 -2 -78 -7l-16 -3l-8 7l2 35l8 8h373c80 0 441 10 441 10l9 -8l21 -208l-40 -3l-11 6c-59 142 -221 163 -381 163l-5 -280h25c72 0 113 95 137 136l11 3l31 -7v-304l-31 -7l-11 3c-24 41 -65 136 -137 136h-25
l5 -320c182 0 395 81 442 222l10 7l42 -1l7 -9l-21 -269s-440 10 -520 10h-372l-8 8l-2 35l8 7l16 -3c26 -5 60 -7 78 -7v640z" />
    <glyph glyph-name="Ecircumflex" unicode="&#xca;" horiz-adv-x="960" 
d="M404 1000h192l163 -163l-2 -7l-167 -30l-88 160h-4l-88 -160l-167 30l-2 7zM120 680c-18 0 -52 -2 -78 -7l-16 -3l-8 7l2 35l8 8h373c80 0 441 10 441 10l9 -8l21 -208l-40 -3l-11 6c-59 142 -221 163 -381 163l-5 -280h25c72 0 113 95 137 136l11 3l31 -7v-304l-31 -7
l-11 3c-24 41 -65 136 -137 136h-25l5 -320c182 0 395 81 442 222l10 7l42 -1l7 -9l-21 -269s-440 10 -520 10h-372l-8 8l-2 35l8 7l16 -3c26 -5 60 -7 78 -7v640z" />
    <glyph glyph-name="Edieresis" unicode="&#xcb;" horiz-adv-x="960" 
d="M550 952l28 28h104l28 -28v-104l-28 -28h-104l-28 28v104zM290 952l28 28h104l28 -28v-104l-28 -28h-104l-28 28v104zM120 680c-18 0 -52 -2 -78 -7l-16 -3l-8 7l2 35l8 8h373c80 0 441 10 441 10l9 -8l21 -208l-40 -3l-11 6c-59 142 -221 163 -381 163l-5 -280h25
c72 0 113 95 137 136l11 3l31 -7v-304l-31 -7l-11 3c-24 41 -65 136 -137 136h-25l5 -320c182 0 395 81 442 222l10 7l42 -1l7 -9l-21 -269s-440 10 -520 10h-372l-8 8l-2 35l8 7l16 -3c26 -5 60 -7 78 -7v640z" />
    <glyph glyph-name="Igrave" unicode="&#xcc;" horiz-adv-x="560" 
d="M304 781l-294 198l25 31h217l105 -222l-5 -7h-48zM120 680c-18 0 -52 -1 -78 -6l-16 -3l-8 7l2 35l8 8l252 -6l252 6l8 -8l2 -35l-8 -7l-16 3c-26 5 -60 6 -78 6v-640c18 0 52 1 78 6l16 3l8 -7l-2 -35l-8 -8l-252 6l-252 -6l-8 8l-2 35l8 7l16 -3c26 -5 60 -6 78 -6v640
z" />
    <glyph glyph-name="Iacute" unicode="&#xcd;" horiz-adv-x="560" 
d="M246 781h-38l-5 7l105 222h217l25 -31zM120 680c-18 0 -52 -1 -78 -6l-16 -3l-8 7l2 35l8 8l252 -6l252 6l8 -8l2 -35l-8 -7l-16 3c-26 5 -60 6 -78 6v-640c18 0 52 1 78 6l16 3l8 -7l-2 -35l-8 -8l-252 6l-252 -6l-8 8l-2 35l8 7l16 -3c26 -5 60 -6 78 -6v640z" />
    <glyph glyph-name="Icircumflex" unicode="&#xce;" horiz-adv-x="560" 
d="M184 1000h192l163 -163l-2 -7l-167 -30l-88 160h-4l-88 -160l-167 30l-2 7zM120 680c-18 0 -52 -1 -78 -6l-16 -3l-8 7l2 35l8 8l252 -6l252 6l8 -8l2 -35l-8 -7l-16 3c-26 5 -60 6 -78 6v-640c18 0 52 1 78 6l16 3l8 -7l-2 -35l-8 -8l-252 6l-252 -6l-8 8l-2 35l8 7
l16 -3c26 -5 60 -6 78 -6v640z" />
    <glyph glyph-name="Idieresis" unicode="&#xcf;" horiz-adv-x="560" 
d="M330 952l28 28h104l28 -28v-104l-28 -28h-104l-28 28v104zM70 952l28 28h104l28 -28v-104l-28 -28h-104l-28 28v104zM120 680c-18 0 -52 -1 -78 -6l-16 -3l-8 7l2 35l8 8l252 -6l252 6l8 -8l2 -35l-8 -7l-16 3c-26 5 -60 6 -78 6v-640c18 0 52 1 78 6l16 3l8 -7l-2 -35
l-8 -8l-252 6l-252 -6l-8 8l-2 35l8 7l16 -3c26 -5 60 -6 78 -6v640z" />
    <glyph glyph-name="Eth" unicode="&#xd0;" horiz-adv-x="1100" 
d="M480 686v-306h112l8 -8v-24l-8 -8h-112v-306l40 -1c156 0 220 114 220 327s-65 327 -220 327zM160 682c-18 0 -50 -2 -76 -7l-26 -6l2 51l620 10c228 0 380 -148 380 -370s-152 -370 -380 -370l-620 10l-2 51l26 -6c26 -5 58 -7 76 -7v302h-112l-8 8v24l8 8h112v302z" />
    <glyph glyph-name="Ntilde" unicode="&#xd1;" 
d="M325 831l5 29c12 62 41 127 118 127c81 0 119 -112 137 -115l23 110l9 7l119 -20l-6 -29c-12 -62 -41 -127 -118 -127c-81 0 -118 112 -136 115l-23 -110l-9 -7zM170 280c0 -180 96 -234 154 -234c10 0 18 1 26 3l8 -7l-3 -35l-8 -8l-217 6l-102 -6l-8 8l-2 35l8 7
c5 -1 15 -3 22 -3c35 0 72 20 72 114v462c0 53 -21 68 -92 68l-8 8v14l8 8h423l378 -589h1v309c0 180 -96 234 -154 234h-9l-17 -3l-8 7l3 35l8 8l217 -6l102 6l8 -8l2 -35l-8 -7c-8 3 -15 4 -24 4c-27 0 -70 -24 -70 -115v-560h-50h-274l-386 604v-324z" />
    <glyph glyph-name="Ograve" unicode="&#xd2;" horiz-adv-x="1020" 
d="M534 781l-294 198l25 31h217l105 -222l-5 -7h-48zM510 -10c-288 0 -480 148 -480 370s192 370 480 370s480 -148 480 -370s-192 -370 -480 -370zM530 35c102 0 140 91 140 325s-49 325 -180 325c-102 0 -140 -91 -140 -325s49 -325 180 -325z" />
    <glyph glyph-name="Oacute" unicode="&#xd3;" horiz-adv-x="1020" 
d="M476 781h-38l-5 7l105 222h217l25 -31zM510 -10c-288 0 -480 148 -480 370s192 370 480 370s480 -148 480 -370s-192 -370 -480 -370zM530 35c102 0 140 91 140 325s-49 325 -180 325c-102 0 -140 -91 -140 -325s49 -325 180 -325z" />
    <glyph glyph-name="Ocircumflex" unicode="&#xd4;" horiz-adv-x="1020" 
d="M414 1000h192l163 -163l-2 -7l-167 -30l-88 160h-4l-88 -160l-167 30l-2 7zM510 -10c-288 0 -480 148 -480 370s192 370 480 370s480 -148 480 -370s-192 -370 -480 -370zM530 35c102 0 140 91 140 325s-49 325 -180 325c-102 0 -140 -91 -140 -325s49 -325 180 -325z
" />
    <glyph glyph-name="Otilde" unicode="&#xd5;" horiz-adv-x="1020" 
d="M315 831l5 29c12 62 41 127 118 127c81 0 119 -112 137 -115l23 110l9 7l119 -20l-6 -29c-12 -62 -41 -127 -118 -127c-81 0 -118 112 -136 115l-23 -110l-9 -7zM510 -10c-288 0 -480 148 -480 370s192 370 480 370s480 -148 480 -370s-192 -370 -480 -370zM530 35
c102 0 140 91 140 325s-49 325 -180 325c-102 0 -140 -91 -140 -325s49 -325 180 -325z" />
    <glyph glyph-name="Odieresis" unicode="&#xd6;" horiz-adv-x="1020" 
d="M560 952l28 28h104l28 -28v-104l-28 -28h-104l-28 28v104zM300 952l28 28h104l28 -28v-104l-28 -28h-104l-28 28v104zM510 -10c-288 0 -480 148 -480 370s192 370 480 370s480 -148 480 -370s-192 -370 -480 -370zM530 35c102 0 140 91 140 325s-49 325 -180 325
c-102 0 -140 -91 -140 -325s49 -325 180 -325z" />
    <glyph glyph-name="multiply" unicode="&#xd7;" horiz-adv-x="360" 
d="M175 410h11l102 114h11l45 -46v-11l-113 -102v-11l113 -102v-11l-45 -45h-11l-102 113h-11l-102 -113h-11l-46 45v11l114 102v11l-114 102v11l46 46h11z" />
    <glyph glyph-name="Oslash" unicode="&#xd8;" 
d="M344 263l126 118l173 166c-24 97 -75 138 -163 138c-102 0 -140 -91 -140 -325c0 -36 2 -68 4 -97zM520 35c102 0 140 91 140 325c0 36 -2 68 -4 97l-141 -132l-158 -152c24 -97 75 -138 163 -138zM133 -43h-11l-44 46v12l79 73c-87 65 -137 159 -137 272
c0 222 192 370 480 370c106 0 199 -20 274 -56l93 89h11l44 -46v-12l-79 -73c87 -65 137 -159 137 -272c0 -222 -192 -370 -480 -370c-106 0 -199 20 -274 56z" />
    <glyph glyph-name="Ugrave" unicode="&#xd9;" horiz-adv-x="1020" 
d="M594 781l-294 198l25 31h217l105 -222l-5 -7h-48zM910 715l92 6l8 -8l2 -35l-8 -7c-4 1 -15 4 -24 4c-27 0 -70 -24 -70 -115v-341c0 -143 -132 -239 -330 -239c-306 0 -470 84 -470 240v460c-18 0 -45 -1 -71 -6l-16 -3l-8 7l2 35l8 8l265 -6l212 6l8 -8l2 -35l-8 -7
l-16 3c-26 5 -50 6 -58 6v-460c0 -124 52 -190 150 -190c168 0 280 76 280 190v240c0 180 -76 214 -134 214c-10 0 -21 -2 -26 -3l-8 7l3 35l8 8z" />
    <glyph glyph-name="Uacute" unicode="&#xda;" horiz-adv-x="1020" 
d="M536 781h-38l-5 7l105 222h217l25 -31zM910 715l92 6l8 -8l2 -35l-8 -7c-4 1 -15 4 -24 4c-27 0 -70 -24 -70 -115v-341c0 -143 -132 -239 -330 -239c-306 0 -470 84 -470 240v460c-18 0 -45 -1 -71 -6l-16 -3l-8 7l2 35l8 8l265 -6l212 6l8 -8l2 -35l-8 -7l-16 3
c-26 5 -50 6 -58 6v-460c0 -124 52 -190 150 -190c168 0 280 76 280 190v240c0 180 -76 214 -134 214c-10 0 -21 -2 -26 -3l-8 7l3 35l8 8z" />
    <glyph glyph-name="Ucircumflex" unicode="&#xdb;" horiz-adv-x="1020" 
d="M474 1000h192l163 -163l-2 -7l-167 -30l-88 160h-4l-88 -160l-167 30l-2 7zM910 715l92 6l8 -8l2 -35l-8 -7c-4 1 -15 4 -24 4c-27 0 -70 -24 -70 -115v-341c0 -143 -132 -239 -330 -239c-306 0 -470 84 -470 240v460c-18 0 -45 -1 -71 -6l-16 -3l-8 7l2 35l8 8l265 -6
l212 6l8 -8l2 -35l-8 -7l-16 3c-26 5 -50 6 -58 6v-460c0 -124 52 -190 150 -190c168 0 280 76 280 190v240c0 180 -76 214 -134 214c-10 0 -21 -2 -26 -3l-8 7l3 35l8 8z" />
    <glyph glyph-name="Udieresis" unicode="&#xdc;" horiz-adv-x="1020" 
d="M620 952l28 28h104l28 -28v-104l-28 -28h-104l-28 28v104zM360 952l28 28h104l28 -28v-104l-28 -28h-104l-28 28v104zM910 715l92 6l8 -8l2 -35l-8 -7c-4 1 -15 4 -24 4c-27 0 -70 -24 -70 -115v-341c0 -143 -132 -239 -330 -239c-306 0 -470 84 -470 240v460
c-18 0 -45 -1 -71 -6l-16 -3l-8 7l2 35l8 8l265 -6l212 6l8 -8l2 -35l-8 -7l-16 3c-26 5 -50 6 -58 6v-460c0 -124 52 -190 150 -190c168 0 280 76 280 190v240c0 180 -76 214 -134 214c-10 0 -21 -2 -26 -3l-8 7l3 35l8 8z" />
    <glyph glyph-name="Yacute" unicode="&#xdd;" horiz-adv-x="980" 
d="M486 781h-38l-5 7l105 222h217l25 -31zM640 241v-201c18 0 52 1 78 6l16 3l8 -7l-2 -35l-8 -8l-252 6l-252 -6l-8 8l-2 35l8 7l16 -3c26 -5 60 -6 78 -6v140c0 14 -1 37 -20 70l-205 378c-17 31 -36 47 -80 47l-8 8v24l8 8l360 10c28 0 21 -37 41 -73l191 -339l6 -20h4
l81 112c30 42 45 92 45 137c0 72 -37 132 -107 132c-8 0 -15 -2 -23 -3l-8 7l4 35l8 8l212 -6l135 6l8 -8l3 -35c-42 -55 -113 -103 -232 -282z" />
    <glyph glyph-name="Thorn" unicode="&#xde;" 
d="M440 680v-73l180 3h13c226 0 347 -48 347 -210s-126 -210 -360 -210l-180 3v-153c18 0 52 1 78 6l16 3l8 -7l-2 -35l-8 -8l-252 6l-252 -6l-8 8l-2 35l8 7l16 -3c26 -5 60 -6 78 -6v640c-18 0 -52 -1 -78 -6l-16 -3l-8 7l2 35l8 8l252 -6l252 6l8 -8l2 -35l-8 -7l-16 3
c-26 5 -60 6 -78 6zM460 233c130 0 200 58 200 167s-70 167 -200 167l-20 -1v-332z" />
    <glyph glyph-name="germandbls" unicode="&#xdf;" horiz-adv-x="1080" 
d="M120 40v415l-92 -3l-8 8v36l8 8l92 -2v18c0 144 187 240 370 240c128 0 310 -10 310 -137c0 -119 -209 -84 -209 -143c0 -34 114 -63 255 -103c120 -34 204 -91 204 -208c0 -114 -96 -179 -315 -179c-58 0 -135 25 -180 25c-13 0 -23 -2 -29 -7h-29l-6 6l-16 158l23 2
l5 -4c47 -103 177 -140 232 -140c132 0 145 21 145 50c0 48 -80 84 -204 115c-123 31 -196 107 -196 212c0 87 120 113 120 213c0 60 -48 100 -120 100s-120 -40 -120 -100c0 -57 29 -112 40 -126v-35v-379c0 -13 2 -64 2 -81l-142 6l-232 -6l-8 8l-2 35l8 7l16 -3
c26 -5 60 -6 78 -6z" />
    <glyph glyph-name="agrave" unicode="&#xe0;" horiz-adv-x="960" 
d="M474 601l-294 198l25 31h217l105 -222l-5 -7h-48zM840 39c18 0 42 1 68 6l16 3l8 -7l-1 -34l-8 -8l-183 6l-128 -11l-7 7c0 12 -20 136 -20 148h-3c-37 -104 -122 -159 -202 -159c-221 0 -340 94 -340 270s119 270 340 270c82 0 130 -50 180 -50c61 0 110 31 120 47
l162 -7l7 -7c-1 -8 -9 -69 -9 -81v-393zM560 440c-66 0 -113 50 -163 50s-77 -49 -77 -140v-180c0 -110 28 -140 80 -140c65 0 159 80 160 230v180z" />
    <glyph glyph-name="aacute" unicode="&#xe1;" horiz-adv-x="960" 
d="M416 601h-38l-5 7l105 222h217l25 -31zM840 39c18 0 42 1 68 6l16 3l8 -7l-1 -34l-8 -8l-183 6l-128 -11l-7 7c0 12 -20 136 -20 148h-3c-37 -104 -122 -159 -202 -159c-221 0 -340 94 -340 270s119 270 340 270c82 0 130 -50 180 -50c61 0 110 31 120 47l162 -7l7 -7
c-1 -8 -9 -69 -9 -81v-393zM560 440c-66 0 -113 50 -163 50s-77 -49 -77 -140v-180c0 -110 28 -140 80 -140c65 0 159 80 160 230v180z" />
    <glyph glyph-name="acircumflex" unicode="&#xe2;" horiz-adv-x="960" 
d="M354 820h192l163 -163l-2 -7l-167 -30l-88 160h-4l-88 -160l-167 30l-2 7zM840 39c18 0 42 1 68 6l16 3l8 -7l-1 -34l-8 -8l-183 6l-128 -11l-7 7c0 12 -20 136 -20 148h-3c-37 -104 -122 -159 -202 -159c-221 0 -340 94 -340 270s119 270 340 270c82 0 130 -50 180 -50
c61 0 110 31 120 47l162 -7l7 -7c-1 -8 -9 -69 -9 -81v-393zM560 440c-66 0 -113 50 -163 50s-77 -49 -77 -140v-180c0 -110 28 -140 80 -140c65 0 159 80 160 230v180z" />
    <glyph glyph-name="atilde" unicode="&#xe3;" horiz-adv-x="960" 
d="M255 651l5 29c12 62 41 127 118 127c81 0 119 -112 137 -115l23 110l9 7l119 -20l-6 -29c-12 -62 -41 -127 -118 -127c-81 0 -118 112 -136 115l-23 -110l-9 -7zM840 39c18 0 42 1 68 6l16 3l8 -7l-1 -34l-8 -8l-183 6l-128 -11l-7 7c0 12 -20 136 -20 148h-3
c-37 -104 -122 -159 -202 -159c-221 0 -340 94 -340 270s119 270 340 270c82 0 130 -50 180 -50c61 0 110 31 120 47l162 -7l7 -7c-1 -8 -9 -69 -9 -81v-393zM560 440c-66 0 -113 50 -163 50s-77 -49 -77 -140v-180c0 -110 28 -140 80 -140c65 0 159 80 160 230v180z" />
    <glyph glyph-name="adieresis" unicode="&#xe4;" horiz-adv-x="960" 
d="M500 772l28 28h104l28 -28v-104l-28 -28h-104l-28 28v104zM240 772l28 28h104l28 -28v-104l-28 -28h-104l-28 28v104zM840 39c18 0 42 1 68 6l16 3l8 -7l-1 -34l-8 -8l-183 6l-128 -11l-7 7c0 12 -20 136 -20 148h-3c-37 -104 -122 -159 -202 -159
c-221 0 -340 94 -340 270s119 270 340 270c82 0 130 -50 180 -50c61 0 110 31 120 47l162 -7l7 -7c-1 -8 -9 -69 -9 -81v-393zM560 440c-66 0 -113 50 -163 50s-77 -49 -77 -140v-180c0 -110 28 -140 80 -140c65 0 159 80 160 230v180z" />
    <glyph glyph-name="aring" unicode="&#xe5;" horiz-adv-x="960" 
d="M450 820c69 0 120 -56 120 -120c0 -69 -56 -120 -120 -120c-69 0 -120 56 -120 120c0 69 56 120 120 120zM450 780c-43 0 -80 -34 -80 -80c0 -43 34 -80 80 -80c43 0 80 34 80 80c0 43 -34 80 -80 80zM840 39c18 0 42 1 68 6l16 3l8 -7l-1 -34l-8 -8l-183 6l-128 -11
l-7 7c0 12 -20 136 -20 148h-3c-37 -104 -122 -159 -202 -159c-221 0 -340 94 -340 270s119 270 340 270c82 0 130 -50 180 -50c61 0 110 31 120 47l162 -7l7 -7c-1 -8 -9 -69 -9 -81v-393zM560 440c-66 0 -113 50 -163 50s-77 -49 -77 -140v-180c0 -110 28 -140 80 -140
c65 0 159 80 160 230v180z" />
    <glyph glyph-name="ae" unicode="&#xe6;" horiz-adv-x="1280" 
d="M1255 255c0 0 -245 5 -285 5h-170c0 -150 53 -220 144 -220c100 0 190 43 230 87l11 1l25 -23l1 -11c-57 -63 -161 -104 -291 -104c-151 0 -287 82 -314 210h-6l-18 -51c-37 -104 -122 -159 -202 -159c-221 0 -340 94 -340 270s119 270 340 270c82 0 130 -50 180 -50
c61 0 70 31 80 47l52 -7l7 -7c-1 -5 -5 -34 -7 -56c60 47 110 73 228 73c204 0 340 -108 340 -270zM1039 299c-7 118 -48 181 -118 181c-69 0 -110 -59 -119 -169c35 -3 135 -13 168 -13c10 0 36 0 69 1zM560 440c-66 0 -113 50 -163 50s-77 -49 -77 -140v-180
c0 -110 28 -140 80 -140c65 0 159 80 160 230v180z" />
    <glyph glyph-name="ccedilla" unicode="&#xe7;" horiz-adv-x="745" 
d="M449 38c100 0 194 41 234 85l11 1l21 -19l1 -11c-57 -63 -161 -104 -291 -104c-11 0 -21 1 -32 1l-13 -53c10 3 19 4 31 4c85 0 154 -43 154 -96c0 -47 -71 -86 -158 -86c-36 0 -70 17 -88 47l26 15c12 -20 35 -32 62 -32c23 0 38 24 38 60c0 37 -14 62 -34 62
c-19 0 -29 -6 -47 -14l-25 7l23 88c-205 17 -337 120 -337 267c0 162 161 270 400 270c61 0 117 -25 159 -25c21 0 39 6 52 25h50l9 -8l21 -200l-41 -3l-10 6c-50 145 -157 155 -210 155c-65 0 -150 -70 -150 -220s53 -222 144 -222z" />
    <glyph glyph-name="egrave" unicode="&#xe8;" horiz-adv-x="785" 
d="M444 601l-294 198l25 31h217l105 -222l-5 -7h-48zM544 299c-7 118 -48 191 -118 191c-69 0 -110 -69 -119 -179c35 -3 135 -13 168 -13c10 0 36 0 69 1zM760 255c0 0 -245 5 -285 5h-170c0 -150 53 -222 144 -222c100 0 193 42 233 86l11 1l22 -20l1 -11
c-57 -63 -161 -104 -291 -104c-240 0 -400 108 -400 270s162 270 400 270c204 0 340 -108 340 -270z" />
    <glyph glyph-name="eacute" unicode="&#xe9;" horiz-adv-x="785" 
d="M386 601h-38l-5 7l105 222h217l25 -31zM544 299c-7 118 -48 191 -118 191c-69 0 -110 -69 -119 -179c35 -3 135 -13 168 -13c10 0 36 0 69 1zM760 255c0 0 -245 5 -285 5h-170c0 -150 53 -222 144 -222c100 0 193 42 233 86l11 1l22 -20l1 -11
c-57 -63 -161 -104 -291 -104c-240 0 -400 108 -400 270s162 270 400 270c204 0 340 -108 340 -270z" />
    <glyph glyph-name="ecircumflex" unicode="&#xea;" horiz-adv-x="785" 
d="M324 820h192l163 -163l-2 -7l-167 -30l-88 160h-4l-88 -160l-167 30l-2 7zM544 299c-7 118 -48 191 -118 191c-69 0 -110 -69 -119 -179c35 -3 135 -13 168 -13c10 0 36 0 69 1zM760 255c0 0 -245 5 -285 5h-170c0 -150 53 -222 144 -222c100 0 193 42 233 86l11 1
l22 -20l1 -11c-57 -63 -161 -104 -291 -104c-240 0 -400 108 -400 270s162 270 400 270c204 0 340 -108 340 -270z" />
    <glyph glyph-name="edieresis" unicode="&#xeb;" horiz-adv-x="785" 
d="M470 772l28 28h104l28 -28v-104l-28 -28h-104l-28 28v104zM210 772l28 28h104l28 -28v-104l-28 -28h-104l-28 28v104zM544 299c-7 118 -48 191 -118 191c-69 0 -110 -69 -119 -179c35 -3 135 -13 168 -13c10 0 36 0 69 1zM760 255c0 0 -245 5 -285 5h-170
c0 -150 53 -222 144 -222c100 0 193 42 233 86l11 1l22 -20l1 -11c-57 -63 -161 -104 -291 -104c-240 0 -400 108 -400 270s162 270 400 270c204 0 340 -108 340 -270z" />
    <glyph glyph-name="igrave" unicode="&#xec;" horiz-adv-x="520" 
d="M284 601l-294 198l25 31h217l105 -222l-5 -7h-48zM120 480c-18 0 -42 -1 -68 -6l-16 -3l-8 7l1 34l8 8l223 -5l142 13l7 -7c-1 -8 -9 -69 -9 -81v-400c18 0 52 1 78 6l16 3l8 -7l-2 -35l-8 -8l-232 6l-232 -6l-8 8l-2 35l8 7l16 -3c26 -5 60 -6 78 -6v440z" />
    <glyph glyph-name="iacute" unicode="&#xed;" horiz-adv-x="520" 
d="M226 601h-38l-5 7l105 222h217l25 -31zM120 480c-18 0 -42 -1 -68 -6l-16 -3l-8 7l1 34l8 8l223 -5l142 13l7 -7c-1 -8 -9 -69 -9 -81v-400c18 0 52 1 78 6l16 3l8 -7l-2 -35l-8 -8l-232 6l-232 -6l-8 8l-2 35l8 7l16 -3c26 -5 60 -6 78 -6v440z" />
    <glyph glyph-name="icircumflex" unicode="&#xee;" horiz-adv-x="520" 
d="M164 820h192l163 -163l-2 -7l-167 -30l-88 160h-4l-88 -160l-167 30l-2 7zM120 480c-18 0 -42 -1 -68 -6l-16 -3l-8 7l1 34l8 8l223 -5l142 13l7 -7c-1 -8 -9 -69 -9 -81v-400c18 0 52 1 78 6l16 3l8 -7l-2 -35l-8 -8l-232 6l-232 -6l-8 8l-2 35l8 7l16 -3
c26 -5 60 -6 78 -6v440z" />
    <glyph glyph-name="idieresis" unicode="&#xef;" horiz-adv-x="520" 
d="M310 772l28 28h104l28 -28v-104l-28 -28h-104l-28 28v104zM50 772l28 28h104l28 -28v-104l-28 -28h-104l-28 28v104zM120 480c-18 0 -42 -1 -68 -6l-16 -3l-8 7l1 34l8 8l223 -5l142 13l7 -7c-1 -8 -9 -69 -9 -81v-400c18 0 52 1 78 6l16 3l8 -7l-2 -35l-8 -8l-232 6
l-232 -6l-8 8l-2 35l8 7l16 -3c26 -5 60 -6 78 -6v440z" />
    <glyph glyph-name="eth" unicode="&#xf0;" horiz-adv-x="800" 
d="M400 490c-85 0 -128 -115 -128 -230s43 -230 128 -230c52 0 120 30 120 140v180c0 110 -68 140 -120 140zM425 765l11 2c35 -13 69 -29 100 -48l86 59l11 -2l14 -20l-2 -11l-74 -50c131 -96 209 -248 209 -435c0 -162 -140 -270 -380 -270s-380 108 -380 270
s140 270 380 270c60 0 118 -9 157 -20l5 5c-15 42 -41 89 -69 126l-73 -51l-11 2l-14 20l2 11l70 49c-19 20 -40 38 -62 53l-1 11z" />
    <glyph glyph-name="ntilde" unicode="&#xf1;" horiz-adv-x="1040" 
d="M325 651l5 29c12 62 41 127 118 127c81 0 119 -112 137 -115l23 110l9 7l119 -20l-6 -29c-12 -62 -41 -127 -118 -127c-81 0 -118 112 -136 115l-23 -110l-9 -7zM400 80c0 -12 8 -73 9 -81l-7 -7l-162 13l-212 -6l-8 8l-2 35l8 7l16 -3c26 -5 60 -6 78 -6v440
c-18 0 -42 -1 -68 -6l-16 -3l-8 7l1 34l8 8l203 -3l126 11l7 -7c0 -8 2 -136 2 -148h3c37 103 123 157 202 157c274 0 286 -120 340 -120v-370c18 0 52 1 78 6l16 3l8 -7l-2 -35l-8 -8l-212 6l-162 -13l-7 7c1 8 9 69 9 81v270c0 110 -28 140 -80 140
c-65 0 -160 -80 -160 -230v-180z" />
    <glyph glyph-name="ograve" unicode="&#xf2;" horiz-adv-x="850" 
d="M444 601l-294 198l25 31h217l105 -222l-5 -7h-48zM425 -10c-240 0 -400 108 -400 270s160 270 400 270s400 -108 400 -270s-160 -270 -400 -270zM425 490c-52 0 -120 -30 -120 -140v-180c0 -110 68 -140 120 -140c53 0 120 30 120 140v180c0 110 -67 140 -120 140z" />
    <glyph glyph-name="oacute" unicode="&#xf3;" horiz-adv-x="850" 
d="M386 601h-38l-5 7l105 222h217l25 -31zM425 -10c-240 0 -400 108 -400 270s160 270 400 270s400 -108 400 -270s-160 -270 -400 -270zM425 490c-52 0 -120 -30 -120 -140v-180c0 -110 68 -140 120 -140c53 0 120 30 120 140v180c0 110 -67 140 -120 140z" />
    <glyph glyph-name="ocircumflex" unicode="&#xf4;" horiz-adv-x="850" 
d="M324 820h192l163 -163l-2 -7l-167 -30l-88 160h-4l-88 -160l-167 30l-2 7zM425 -10c-240 0 -400 108 -400 270s160 270 400 270s400 -108 400 -270s-160 -270 -400 -270zM425 490c-52 0 -120 -30 -120 -140v-180c0 -110 68 -140 120 -140c53 0 120 30 120 140v180
c0 110 -67 140 -120 140z" />
    <glyph glyph-name="otilde" unicode="&#xf5;" horiz-adv-x="850" 
d="M225 651l5 29c12 62 41 127 118 127c81 0 119 -112 137 -115l23 110l9 7l119 -20l-6 -29c-12 -62 -41 -127 -118 -127c-81 0 -118 112 -136 115l-23 -110l-9 -7zM425 -10c-240 0 -400 108 -400 270s160 270 400 270s400 -108 400 -270s-160 -270 -400 -270zM425 490
c-52 0 -120 -30 -120 -140v-180c0 -110 68 -140 120 -140c53 0 120 30 120 140v180c0 110 -67 140 -120 140z" />
    <glyph glyph-name="odieresis" unicode="&#xf6;" horiz-adv-x="850" 
d="M470 772l28 28h104l28 -28v-104l-28 -28h-104l-28 28v104zM210 772l28 28h104l28 -28v-104l-28 -28h-104l-28 28v104zM425 -10c-240 0 -400 108 -400 270s160 270 400 270s400 -108 400 -270s-160 -270 -400 -270zM425 490c-52 0 -120 -30 -120 -140v-180
c0 -110 68 -140 120 -140c53 0 120 30 120 140v180c0 110 -67 140 -120 140z" />
    <glyph glyph-name="divide" unicode="&#xf7;" horiz-adv-x="560" 
d="M520 328l-8 -8h-464l-8 8v64l8 8h464l8 -8v-64zM200 172l28 28h104l28 -28v-104l-28 -28h-104l-28 28v104zM200 652l28 28h104l28 -28v-104l-28 -28h-104l-28 28v104z" />
    <glyph glyph-name="oslash" unicode="&#xf8;" horiz-adv-x="840" 
d="M308 112c19 -63 71 -82 112 -82c53 0 120 30 120 140v146l-82 -70zM708 565l11 -1l42 -48l-1 -11l-54 -47c72 -47 114 -116 114 -198c0 -162 -160 -270 -400 -270c-80 0 -151 12 -210 34l-78 -69l-11 1l-42 48l1 11l54 47c-72 47 -114 116 -114 198
c0 162 160 270 400 270c80 0 152 -12 211 -34zM420 490c-52 0 -120 -30 -120 -140v-146l117 101l115 103c-19 63 -70 82 -112 82z" />
    <glyph glyph-name="ugrave" unicode="&#xf9;" horiz-adv-x="1020" 
d="M544 601l-294 198l25 31h217l105 -222l-5 -7h-48zM740 515l162 13l7 -7c-1 -8 -9 -69 -9 -81v-400c18 0 42 1 68 6l16 3l8 -7l-1 -34l-8 -8l-203 3l-126 -11l-7 7c0 9 -2 136 -2 148h-3c-37 -103 -123 -157 -202 -157c-274 0 -286 120 -340 120v370c-18 0 -32 -1 -58 -6
l-16 -3l-8 7l2 35l8 8l192 -6l162 13l7 -7c-1 -8 -9 -69 -9 -81v-270c0 -110 28 -140 80 -140c65 0 160 80 160 230v220c-18 0 -52 -1 -78 -6l-16 -3l-8 7l2 35l8 8z" />
    <glyph glyph-name="uacute" unicode="&#xfa;" horiz-adv-x="1020" 
d="M486 601h-38l-5 7l105 222h217l25 -31zM740 515l162 13l7 -7c-1 -8 -9 -69 -9 -81v-400c18 0 42 1 68 6l16 3l8 -7l-1 -34l-8 -8l-203 3l-126 -11l-7 7c0 9 -2 136 -2 148h-3c-37 -103 -123 -157 -202 -157c-274 0 -286 120 -340 120v370c-18 0 -32 -1 -58 -6l-16 -3
l-8 7l2 35l8 8l192 -6l162 13l7 -7c-1 -8 -9 -69 -9 -81v-270c0 -110 28 -140 80 -140c65 0 160 80 160 230v220c-18 0 -52 -1 -78 -6l-16 -3l-8 7l2 35l8 8z" />
    <glyph glyph-name="ucircumflex" unicode="&#xfb;" horiz-adv-x="1020" 
d="M424 820h192l163 -163l-2 -7l-167 -30l-88 160h-4l-88 -160l-167 30l-2 7zM740 515l162 13l7 -7c-1 -8 -9 -69 -9 -81v-400c18 0 42 1 68 6l16 3l8 -7l-1 -34l-8 -8l-203 3l-126 -11l-7 7c0 9 -2 136 -2 148h-3c-37 -103 -123 -157 -202 -157c-274 0 -286 120 -340 120
v370c-18 0 -32 -1 -58 -6l-16 -3l-8 7l2 35l8 8l192 -6l162 13l7 -7c-1 -8 -9 -69 -9 -81v-270c0 -110 28 -140 80 -140c65 0 160 80 160 230v220c-18 0 -52 -1 -78 -6l-16 -3l-8 7l2 35l8 8z" />
    <glyph glyph-name="udieresis" unicode="&#xfc;" horiz-adv-x="1020" 
d="M570 772l28 28h104l28 -28v-104l-28 -28h-104l-28 28v104zM310 772l28 28h104l28 -28v-104l-28 -28h-104l-28 28v104zM740 515l162 13l7 -7c-1 -8 -9 -69 -9 -81v-400c18 0 42 1 68 6l16 3l8 -7l-1 -34l-8 -8l-203 3l-126 -11l-7 7c0 9 -2 136 -2 148h-3
c-37 -103 -123 -157 -202 -157c-274 0 -286 120 -340 120v370c-18 0 -32 -1 -58 -6l-16 -3l-8 7l2 35l8 8l192 -6l162 13l7 -7c-1 -8 -9 -69 -9 -81v-270c0 -110 28 -140 80 -140c65 0 160 80 160 230v220c-18 0 -52 -1 -78 -6l-16 -3l-8 7l2 35l8 8z" />
    <glyph glyph-name="yacute" unicode="&#xfd;" horiz-adv-x="830" 
d="M411 601h-38l-5 7l105 222h217l25 -31zM285 -10l-30 70l-157 368c-14 33 -39 47 -83 47l-8 8v24l8 8l323 10h1c14 0 24 -36 40 -73l160 -369h16l54 118c19 41 28 85 28 126c0 80 -37 147 -113 147c-8 0 -15 -2 -23 -3l-8 7l4 35l8 8l172 -6l135 6l8 -8l3 -35
c-42 -55 -139 -209 -187 -314l-75 -164c-76 -167 -161 -240 -411 -240h-37l-8 8l-21 87l20 8c29 -34 82 -52 140 -52c88 0 159 45 159 102c0 50 -55 77 -118 77z" />
    <glyph glyph-name="thorn" unicode="&#xfe;" horiz-adv-x="920" 
d="M360 260c0 -150 95 -230 160 -230c52 0 80 30 80 140v180c0 110 -28 140 -80 140c-65 0 -159 -80 -160 -230zM80 700c-10 0 -34 -3 -48 -6l-16 -3l-8 7l1 34l8 8l183 -3l153 11l7 -7c-1 -6 -3 -218 -4 -330c42 78 115 119 184 119c221 0 340 -94 340 -270
s-119 -270 -340 -270c-68 0 -142 40 -184 118l4 -298c18 0 52 1 78 6l16 3l8 -7l-2 -35l-8 -8l-232 6l-232 -6l-8 8l-2 35l8 7l16 -3c26 -5 60 -6 78 -6v890z" />
    <glyph glyph-name="ydieresis" unicode="&#xff;" horiz-adv-x="830" 
d="M495 772l28 28h104l28 -28v-104l-28 -28h-104l-28 28v104zM235 772l28 28h104l28 -28v-104l-28 -28h-104l-28 28v104zM285 -10l-30 70l-157 368c-14 33 -39 47 -83 47l-8 8v24l8 8l323 10h1c14 0 24 -36 40 -73l160 -369h16l54 118c19 41 28 85 28 126
c0 80 -37 147 -113 147c-8 0 -15 -2 -23 -3l-8 7l4 35l8 8l172 -6l135 6l8 -8l3 -35c-42 -55 -139 -209 -187 -314l-75 -164c-76 -167 -161 -240 -411 -240h-37l-8 8l-21 87l20 8c29 -34 82 -52 140 -52c88 0 159 45 159 102c0 50 -55 77 -118 77z" />
    <glyph glyph-name="Amacron" unicode="&#x100;" horiz-adv-x="1010" 
d="M692 840h-360v120h360v-120zM525 255c-33 2 -102 6 -132 6h-179c-12 -34 -18 -68 -18 -98c0 -67 31 -117 103 -117c8 0 15 2 23 3l8 -7l-4 -35l-8 -8l-162 6l-135 -6l-8 8l-3 35c93 122 216 343 291 518l69 161l50 -1l241 10c0 -8 9 -34 22 -70l244 -568
c14 -32 32 -53 67 -53l6 -8l-1 -24l-9 -8l-217 6l-199 -6l-8 8l-2 29l8 7c4 -1 14 -4 22 -4s14 8 14 17c0 4 -1 9 -2 12zM504 304l-128 293h-12l-129 -286c41 -4 128 -12 158 -12c24 0 75 3 111 5z" />
    <glyph glyph-name="amacron" unicode="&#x101;" horiz-adv-x="960" 
d="M630 660h-360v120h360v-120zM840 39c18 0 42 1 68 6l16 3l8 -7l-1 -34l-8 -8l-183 6l-128 -11l-7 7c0 12 -20 136 -20 148h-3c-37 -104 -122 -159 -202 -159c-221 0 -340 94 -340 270s119 270 340 270c82 0 130 -50 180 -50c61 0 110 31 120 47l162 -7l7 -7
c-1 -8 -9 -69 -9 -81v-393zM560 440c-66 0 -113 50 -163 50s-77 -49 -77 -140v-180c0 -110 28 -140 80 -140c65 0 159 80 160 230v180z" />
    <glyph glyph-name="Abreve" unicode="&#x102;" horiz-adv-x="1010" 
d="M319 990c41 -51 117 -60 193 -60s152 9 193 60l40 -22c-79 -97 -156 -158 -233 -158s-154 61 -233 158zM525 255c-33 2 -102 6 -132 6h-179c-12 -34 -18 -68 -18 -98c0 -67 31 -117 103 -117c8 0 15 2 23 3l8 -7l-4 -35l-8 -8l-162 6l-135 -6l-8 8l-3 35
c93 122 216 343 291 518l69 161l50 -1l241 10c0 -8 9 -34 22 -70l244 -568c14 -32 32 -53 67 -53l6 -8l-1 -24l-9 -8l-217 6l-199 -6l-8 8l-2 29l8 7c4 -1 14 -4 22 -4s14 8 14 17c0 4 -1 9 -2 12zM504 304l-128 293h-12l-129 -286c41 -4 128 -12 158 -12c24 0 75 3 111 5z
" />
    <glyph glyph-name="abreve" unicode="&#x103;" horiz-adv-x="960" 
d="M257 810c41 -51 117 -60 193 -60s152 9 193 60l40 -22c-79 -97 -156 -158 -233 -158s-154 61 -233 158zM840 39c18 0 42 1 68 6l16 3l8 -7l-1 -34l-8 -8l-183 6l-128 -11l-7 7c0 12 -20 136 -20 148h-3c-37 -104 -122 -159 -202 -159c-221 0 -340 94 -340 270
s119 270 340 270c82 0 130 -50 180 -50c61 0 110 31 120 47l162 -7l7 -7c-1 -8 -9 -69 -9 -81v-393zM560 440c-66 0 -113 50 -163 50s-77 -49 -77 -140v-180c0 -110 28 -140 80 -140c65 0 159 80 160 230v180z" />
    <glyph glyph-name="Aogonek" unicode="&#x104;" horiz-adv-x="1010" 
d="M525 255c-33 2 -102 6 -132 6h-179c-12 -34 -18 -68 -18 -98c0 -67 31 -117 103 -117c8 0 15 2 23 3l8 -7l-4 -35l-8 -8l-162 6l-135 -6l-8 8l-3 35c93 122 216 343 291 518l69 161l50 -1l241 10c0 -8 9 -34 22 -70l244 -568c14 -32 32 -53 67 -53l6 -8l-1 -23l-9 -8h-40
c-40 -15 -135 -43 -135 -126c0 -43 30 -74 74 -74c26 0 58 10 72 26l10 1l10 -10l2 -11c-28 -32 -75 -46 -125 -46c-124 0 -206 39 -207 98c0 75 96 116 194 141v6h-82l-189 -6l-8 8l-2 30l8 7c4 -1 14 -4 22 -4s14 6 14 15c0 4 -1 10 -2 13zM504 304l-128 293h-12
l-129 -286c41 -4 128 -12 158 -12c24 0 75 3 111 5z" />
    <glyph glyph-name="aogonek" unicode="&#x105;" horiz-adv-x="960" 
d="M560 440c-66 0 -113 50 -163 50s-77 -49 -77 -140v-180c0 -110 28 -140 80 -140c65 0 159 80 160 230v180zM840 39c18 0 42 1 68 6l16 3l8 -7l-1 -34c-52 -14 -164 -45 -164 -133c0 -43 25 -72 69 -72c26 0 58 8 72 24l11 1l10 -9l1 -12c-28 -32 -69 -46 -118 -46
c-124 0 -206 39 -207 98c0 75 96 116 194 141v6h-59l-128 -11l-7 7c0 9 -20 136 -20 148h-3c-36 -104 -123 -159 -202 -159c-221 0 -339 94 -340 270c0 176 119 270 340 270c82 0 130 -50 180 -50c61 0 110 31 120 47l162 -7l7 -7c-1 -8 -9 -69 -9 -81v-393z" />
    <glyph glyph-name="Cacute" unicode="&#x106;" horiz-adv-x="880" 
d="M436 791h-38l-5 7l105 222h217l25 -31zM510 730c87 0 172 -20 225 -20c26 0 44 5 50 20h40l9 -8l21 -213h-63l-10 6c-41 149 -182 170 -242 170c-124 0 -190 -114 -190 -325c0 -208 74 -325 210 -325c119 0 215 83 259 141l11 -1l25 -24l-1 -11
c-57 -73 -169 -150 -294 -150c-318 0 -530 148 -530 370s192 370 480 370z" />
    <glyph glyph-name="cacute" unicode="&#x107;" horiz-adv-x="745" 
d="M351 601h-38l-5 7l105 222h217l25 -31zM449 38c100 0 194 41 234 85l11 1l21 -19l1 -11c-57 -63 -161 -104 -291 -104c-240 0 -400 108 -400 270s161 270 400 270c61 0 114 -25 156 -25c21 0 39 6 52 25h50l9 -8l21 -200l-41 -3l-10 6c-50 145 -154 155 -207 155
c-65 0 -150 -70 -150 -220s53 -222 144 -222z" />
    <glyph glyph-name="Ccircumflex" unicode="&#x108;" horiz-adv-x="880" 
d="M374 1010h192l163 -163l-2 -7l-167 -30l-88 160h-4l-88 -160l-167 30l-2 7zM510 730c87 0 172 -20 225 -20c26 0 44 5 50 20h40l9 -8l21 -213h-63l-10 6c-41 149 -182 170 -242 170c-124 0 -190 -114 -190 -325c0 -208 74 -325 210 -325c119 0 215 83 259 141l11 -1
l25 -24l-1 -11c-57 -73 -169 -150 -294 -150c-318 0 -530 148 -530 370s192 370 480 370z" />
    <glyph glyph-name="ccircumflex" unicode="&#x109;" horiz-adv-x="745" 
d="M289 820h192l163 -163l-2 -7l-167 -30l-88 160h-4l-88 -160l-167 30l-2 7zM449 38c100 0 194 41 234 85l11 1l21 -19l1 -11c-57 -63 -161 -104 -291 -104c-240 0 -400 108 -400 270s161 270 400 270c61 0 114 -25 156 -25c21 0 39 6 52 25h50l9 -8l21 -200l-41 -3l-10 6
c-50 145 -154 155 -207 155c-65 0 -150 -70 -150 -220s53 -222 144 -222z" />
    <glyph glyph-name="Cdotaccent" unicode="&#x10a;" horiz-adv-x="880" 
d="M360 982l28 28h164l28 -28v-144l-28 -28h-164l-28 28v144zM510 730c87 0 172 -20 225 -20c26 0 44 5 50 20h40l9 -8l21 -213h-63l-10 6c-41 149 -182 170 -242 170c-124 0 -190 -114 -190 -325c0 -208 74 -325 210 -325c119 0 215 83 259 141l11 -1l25 -24l-1 -11
c-57 -73 -169 -150 -294 -150c-318 0 -530 148 -530 370s192 370 480 370z" />
    <glyph glyph-name="cdotaccent" unicode="&#x10b;" horiz-adv-x="745" 
d="M275 792l28 28h164l28 -28v-144l-28 -28h-164l-28 28v144zM449 38c100 0 194 41 234 85l11 1l21 -19l1 -11c-57 -63 -161 -104 -291 -104c-240 0 -400 108 -400 270s161 270 400 270c61 0 114 -25 156 -25c21 0 39 6 52 25h50l9 -8l21 -200l-41 -3l-10 6
c-50 145 -154 155 -207 155c-65 0 -150 -70 -150 -220s53 -222 144 -222z" />
    <glyph glyph-name="Ccaron" unicode="&#x10c;" horiz-adv-x="880" 
d="M374 810l-163 163l2 7l167 30l88 -160h4l88 160l167 -30l2 -7l-163 -163h-192zM510 730c87 0 172 -20 225 -20c26 0 44 5 50 20h40l9 -8l21 -213h-63l-10 6c-41 149 -182 170 -242 170c-124 0 -190 -114 -190 -325c0 -208 74 -325 210 -325c119 0 215 83 259 141l11 -1
l25 -24l-1 -11c-57 -73 -169 -150 -294 -150c-318 0 -530 148 -530 370s192 370 480 370z" />
    <glyph glyph-name="ccaron" unicode="&#x10d;" horiz-adv-x="745" 
d="M289 620l-163 163l2 7l167 30l88 -160h4l88 160l167 -30l2 -7l-163 -163h-192zM449 38c100 0 194 41 234 85l11 1l21 -19l1 -11c-57 -63 -161 -104 -291 -104c-240 0 -400 108 -400 270s161 270 400 270c61 0 114 -25 156 -25c21 0 39 6 52 25h50l9 -8l21 -200l-41 -3
l-10 6c-50 145 -154 155 -207 155c-65 0 -150 -70 -150 -220s53 -222 144 -222z" />
    <glyph glyph-name="Dcaron" unicode="&#x10e;" horiz-adv-x="1060" 
d="M404 800l-163 163l2 7l167 30l88 -160h4l88 160l167 -30l2 -7l-163 -163h-192zM440 686v-652l50 -1c143 0 210 114 210 327s-67 327 -210 327zM120 682c-18 0 -50 -2 -76 -7l-26 -6l2 51l600 10c240 0 400 -148 400 -370s-160 -370 -400 -370l-600 10l-2 51l26 -6
c26 -5 58 -7 76 -7v644z" />
    <glyph glyph-name="dcaron" unicode="&#x10f;" horiz-adv-x="1110" 
d="M1080 720v-104c0 -58 -39 -127 -71 -159l-12 -1l-39 32v11c12 12 44 71 44 89h-54l-28 28v104l28 28h104zM560 260c-1 150 -95 230 -160 230c-52 0 -80 -30 -80 -140v-180c0 -110 28 -140 80 -140c65 0 160 80 160 230zM560 700c-18 0 -52 -1 -78 -6l-16 -3l-8 7l1 34
l8 8l213 -5l162 13l7 -7c-1 -8 -9 -69 -9 -81v-621c18 0 42 1 68 6l16 3l8 -7l-1 -34l-8 -8l-183 6l-128 -11l-7 7c0 14 -20 136 -20 148h-3c-36 -104 -123 -159 -202 -159c-221 0 -340 94 -340 270s119 270 340 270c69 0 142 -41 183 -118h3l-2 28z" />
    <glyph glyph-name="Dcroat" unicode="&#x110;" horiz-adv-x="1100" 
d="M480 686v-306h112l8 -8v-24l-8 -8h-112v-306l40 -1c156 0 220 114 220 327s-65 327 -220 327zM160 682c-18 0 -50 -2 -76 -7l-26 -6l2 51l620 10c228 0 380 -148 380 -370s-152 -370 -380 -370l-620 10l-2 51l26 -6c26 -5 58 -7 76 -7v302h-112l-8 8v24l8 8h112v302z" />
    <glyph glyph-name="dcroat" unicode="&#x111;" horiz-adv-x="960" 
d="M40 260c0 176 119 270 340 270c69 0 142 -41 184 -119l-2 179l-199 -2l-7 8l3 28l9 8l193 -2l-1 70c-18 0 -52 -1 -78 -6l-16 -3l-8 7l1 34l8 8l213 -5l162 13l7 -7c-1 -8 -9 -69 -9 -81v-29l82 1l7 -8l-3 -28l-9 -8l-77 1v-550c18 0 42 1 68 6l16 3l8 -7l-1 -34l-8 -8
l-183 6l-128 -11l-7 7c0 8 -20 136 -20 148h-3c-36 -104 -123 -159 -202 -159c-221 0 -340 94 -340 270zM560 260c-1 150 -95 230 -160 230c-52 0 -80 -30 -80 -140v-180c0 -110 28 -140 80 -140c65 0 160 80 160 230z" />
    <glyph glyph-name="Emacron" unicode="&#x112;" horiz-adv-x="960" 
d="M680 840h-360v120h360v-120zM120 680c-18 0 -52 -2 -78 -7l-16 -3l-8 7l2 35l8 8h373c80 0 441 10 441 10l9 -8l21 -208l-40 -3l-11 6c-59 142 -221 163 -381 163l-5 -280h25c72 0 113 95 137 136l11 3l31 -7v-304l-31 -7l-11 3c-24 41 -65 136 -137 136h-25l5 -320
c182 0 395 81 442 222l10 7l42 -1l7 -9l-21 -269s-440 10 -520 10h-372l-8 8l-2 35l8 7l16 -3c26 -5 60 -7 78 -7v640z" />
    <glyph glyph-name="emacron" unicode="&#x113;" horiz-adv-x="785" 
d="M600 660h-360v120h360v-120zM544 299c-7 118 -48 191 -118 191c-69 0 -110 -69 -119 -179c35 -3 135 -13 168 -13c10 0 36 0 69 1zM760 255c0 0 -245 5 -285 5h-170c0 -150 53 -222 144 -222c100 0 193 42 233 86l11 1l22 -20l1 -11c-57 -63 -161 -104 -291 -104
c-240 0 -400 108 -400 270s162 270 400 270c204 0 340 -108 340 -270z" />
    <glyph glyph-name="Ebreve" unicode="&#x114;" horiz-adv-x="960" 
d="M307 990c41 -51 117 -60 193 -60s152 9 193 60l40 -22c-79 -97 -156 -158 -233 -158s-154 61 -233 158zM120 680c-18 0 -52 -2 -78 -7l-16 -3l-8 7l2 35l8 8h373c80 0 441 10 441 10l9 -8l21 -208l-40 -3l-11 6c-59 142 -221 163 -381 163l-5 -280h25
c72 0 113 95 137 136l11 3l31 -7v-304l-31 -7l-11 3c-24 41 -65 136 -137 136h-25l5 -320c182 0 395 81 442 222l10 7l42 -1l7 -9l-21 -269s-440 10 -520 10h-372l-8 8l-2 35l8 7l16 -3c26 -5 60 -7 78 -7v640z" />
    <glyph glyph-name="ebreve" unicode="&#x115;" horiz-adv-x="785" 
d="M227 810c41 -51 117 -60 193 -60s152 9 193 60l40 -22c-79 -97 -156 -158 -233 -158s-154 61 -233 158zM544 299c-7 118 -48 191 -118 191c-69 0 -110 -69 -119 -179c35 -3 135 -13 168 -13c10 0 36 0 69 1zM760 255c0 0 -245 5 -285 5h-170c0 -150 53 -222 144 -222
c100 0 193 42 233 86l11 1l22 -20l1 -11c-57 -63 -161 -104 -291 -104c-240 0 -400 108 -400 270s162 270 400 270c204 0 340 -108 340 -270z" />
    <glyph glyph-name="Edotaccent" unicode="&#x116;" horiz-adv-x="960" 
d="M390 972l28 28h164l28 -28v-144l-28 -28h-164l-28 28v144zM120 680c-18 0 -52 -2 -78 -7l-16 -3l-8 7l2 35l8 8h373c80 0 441 10 441 10l9 -8l21 -208l-40 -3l-11 6c-59 142 -221 163 -381 163l-5 -280h25c72 0 113 95 137 136l11 3l31 -7v-304l-31 -7l-11 3
c-24 41 -65 136 -137 136h-25l5 -320c182 0 395 81 442 222l10 7l42 -1l7 -9l-21 -269s-440 10 -520 10h-372l-8 8l-2 35l8 7l16 -3c26 -5 60 -7 78 -7v640z" />
    <glyph glyph-name="edotaccent" unicode="&#x117;" horiz-adv-x="785" 
d="M310 792l28 28h164l28 -28v-144l-28 -28h-164l-28 28v144zM544 299c-7 118 -48 191 -118 191c-69 0 -110 -69 -119 -179c35 -3 135 -13 168 -13c10 0 36 0 69 1zM760 255c0 0 -245 5 -285 5h-170c0 -150 53 -222 144 -222c100 0 193 42 233 86l11 1l22 -20l1 -11
c-57 -63 -161 -104 -291 -104c-240 0 -400 108 -400 270s162 270 400 270c204 0 340 -108 340 -270z" />
    <glyph glyph-name="Eogonek" unicode="&#x118;" horiz-adv-x="960" 
d="M120 680c-18 0 -52 -2 -78 -7l-16 -3l-8 7l2 35l8 8h373c80 0 441 10 441 10l9 -8l21 -208l-40 -3l-11 6c-59 142 -221 163 -381 163l-3 -280h23c72 0 113 95 137 136l11 3l31 -7v-304l-31 -7l-11 3c-24 41 -65 136 -137 136h-23l3 -320c182 0 395 81 442 222l10 7l42 -1
l7 -9l-19 -239l-64 -24c-49 -18 -127 -46 -127 -122c0 -43 30 -74 74 -74c26 0 58 10 72 26l11 1l10 -10l1 -11c-28 -32 -75 -46 -123 -46c-124 0 -208 39 -209 98c0 65 73 107 157 133l28 7v4c-127 0 -352 -2 -352 -2h-372l-8 8l-2 35l8 7l16 -3c26 -5 60 -7 78 -7v640z
" />
    <glyph glyph-name="eogonek" unicode="&#x119;" horiz-adv-x="785" 
d="M544 299c-7 118 -48 191 -118 191c-69 0 -110 -69 -119 -179c35 -3 135 -13 168 -13c10 0 36 0 69 1zM626 -173h11l10 -9l1 -11c-27 -32 -73 -47 -123 -47c-124 0 -206 39 -206 98c0 47 53 98 138 130v3l-32 -1c-240 0 -400 108 -400 270s162 270 400 270
c204 0 340 -108 340 -270l-5 -5s-245 5 -285 5h-170c0 -150 53 -222 144 -222c100 0 193 42 233 86l11 1l22 -20l1 -11c-19 -21 -42 -39 -70 -54c-44 -24 -77 -32 -120 -71c-26 -24 -46 -54 -46 -94c0 -43 30 -72 74 -72c26 0 58 8 72 24z" />
    <glyph glyph-name="Ecaron" unicode="&#x11a;" horiz-adv-x="960" 
d="M404 800l-163 163l2 7l167 30l88 -160h4l88 160l167 -30l2 -7l-163 -163h-192zM120 680c-18 0 -52 -2 -78 -7l-16 -3l-8 7l2 35l8 8h373c80 0 441 10 441 10l9 -8l21 -208l-40 -3l-11 6c-59 142 -221 163 -381 163l-5 -280h25c72 0 113 95 137 136l11 3l31 -7v-304
l-31 -7l-11 3c-24 41 -65 136 -137 136h-25l5 -320c182 0 395 81 442 222l10 7l42 -1l7 -9l-21 -269s-440 10 -520 10h-372l-8 8l-2 35l8 7l16 -3c26 -5 60 -7 78 -7v640z" />
    <glyph glyph-name="ecaron" unicode="&#x11b;" horiz-adv-x="785" 
d="M324 620l-163 163l2 7l167 30l88 -160h4l88 160l167 -30l2 -7l-163 -163h-192zM544 299c-7 118 -48 191 -118 191c-69 0 -110 -69 -119 -179c35 -3 135 -13 168 -13c10 0 36 0 69 1zM760 255c0 0 -245 5 -285 5h-170c0 -150 53 -222 144 -222c100 0 193 42 233 86l11 1
l22 -20l1 -11c-57 -63 -161 -104 -291 -104c-240 0 -400 108 -400 270s162 270 400 270c204 0 340 -108 340 -270z" />
    <glyph glyph-name="Gcircumflex" unicode="&#x11c;" horiz-adv-x="1020" 
d="M434 1000h192l163 -163l-2 -7l-167 -30l-88 160h-4l-88 -160l-167 30l-2 7zM510 -10c-288 0 -480 157 -480 392c0 209 196 348 490 348c61 0 151 -20 209 -20c29 0 50 5 56 20h40l9 -8l21 -213h-63l-10 6c-41 143 -168 170 -222 170c-136 0 -210 -110 -210 -304
c0 -222 56 -341 160 -341c88 0 130 60 130 120v156l-162 -1l-8 8v29l8 8l242 -5l282 5l8 -8v-28l-8 -8h-82v-318l-8 -8h-152c0 45 -20 81 -45 81c-11 0 -22 -6 -33 -13c-52 -35 -106 -68 -172 -68z" />
    <glyph glyph-name="gcircumflex" unicode="&#x11d;" horiz-adv-x="953" 
d="M344 820h192l163 -163l-2 -7l-167 -30l-88 160h-4l-88 -160l-167 30l-2 7zM560 80v180c-1 150 -95 225 -160 225c-52 0 -80 -30 -80 -140v-165c0 -104 27 -150 77 -150s97 50 163 50zM840 480v-420c0 -195 -147 -300 -420 -300c-80 0 -233 40 -300 40v97l8 8h107l5 -5
c0 -60 72 -100 180 -100c142 0 218 43 218 123c0 70 -31 117 -78 117c-50 0 -99 -50 -180 -50c-204 0 -340 108 -340 270c0 176 119 270 340 270c81 0 169 -57 204 -166l1 9c0 12 2 140 2 148l7 7l126 -11l203 3l8 -8l1 -34l-8 -7l-16 3c-26 5 -50 6 -68 6z" />
    <glyph glyph-name="Gbreve" unicode="&#x11e;" horiz-adv-x="1020" 
d="M337 990c41 -51 117 -60 193 -60s152 9 193 60l40 -22c-79 -97 -156 -158 -233 -158s-154 61 -233 158zM510 -10c-288 0 -480 157 -480 392c0 209 196 348 490 348c61 0 151 -20 209 -20c29 0 50 5 56 20h40l9 -8l21 -213h-63l-10 6c-41 143 -168 170 -222 170
c-136 0 -210 -110 -210 -304c0 -222 56 -341 160 -341c88 0 130 60 130 120v156l-162 -1l-8 8v29l8 8l242 -5l282 5l8 -8v-28l-8 -8h-82v-318l-8 -8h-152c0 45 -20 81 -45 81c-11 0 -22 -6 -33 -13c-52 -35 -106 -68 -172 -68z" />
    <glyph glyph-name="gbreve" unicode="&#x11f;" horiz-adv-x="953" 
d="M247 810c41 -51 117 -60 193 -60s152 9 193 60l40 -22c-79 -97 -156 -158 -233 -158s-154 61 -233 158zM560 80v180c-1 150 -95 225 -160 225c-52 0 -80 -30 -80 -140v-165c0 -104 27 -150 77 -150s97 50 163 50zM840 480v-420c0 -195 -147 -300 -420 -300
c-80 0 -233 40 -300 40v97l8 8h107l5 -5c0 -60 72 -100 180 -100c142 0 218 43 218 123c0 70 -31 117 -78 117c-50 0 -99 -50 -180 -50c-204 0 -340 108 -340 270c0 176 119 270 340 270c81 0 169 -57 204 -166l1 9c0 12 2 140 2 148l7 7l126 -11l203 3l8 -8l1 -34l-8 -7
l-16 3c-26 5 -50 6 -68 6z" />
    <glyph glyph-name="Gdotaccent" unicode="&#x120;" horiz-adv-x="1020" 
d="M420 972l28 28h164l28 -28v-144l-28 -28h-164l-28 28v144zM510 -10c-288 0 -480 157 -480 392c0 209 196 348 490 348c61 0 151 -20 209 -20c29 0 50 5 56 20h40l9 -8l21 -213h-63l-10 6c-41 143 -168 170 -222 170c-136 0 -210 -110 -210 -304c0 -222 56 -341 160 -341
c88 0 130 60 130 120v156l-162 -1l-8 8v29l8 8l242 -5l282 5l8 -8v-28l-8 -8h-82v-318l-8 -8h-152c0 45 -20 81 -45 81c-11 0 -22 -6 -33 -13c-52 -35 -106 -68 -172 -68z" />
    <glyph glyph-name="gdotaccent" unicode="&#x121;" horiz-adv-x="953" 
d="M330 792l28 28h164l28 -28v-144l-28 -28h-164l-28 28v144zM560 80v180c-1 150 -95 225 -160 225c-52 0 -80 -30 -80 -140v-165c0 -104 27 -150 77 -150s97 50 163 50zM840 480v-420c0 -195 -147 -300 -420 -300c-80 0 -233 40 -300 40v97l8 8h107l5 -5
c0 -60 72 -100 180 -100c142 0 218 43 218 123c0 70 -31 117 -78 117c-50 0 -99 -50 -180 -50c-204 0 -340 108 -340 270c0 176 119 270 340 270c81 0 169 -57 204 -166l1 9c0 12 2 140 2 148l7 7l126 -11l203 3l8 -8l1 -34l-8 -7l-16 3c-26 5 -50 6 -68 6z" />
    <glyph glyph-name="Gcommaaccent" unicode="&#x122;" horiz-adv-x="1020" 
d="M580 -162c0 -56 -33 -112 -54 -139l-12 -1l-42 32v11c9 13 30 53 30 69h-44l-28 28v64l28 28h94l28 -28v-64zM510 -10c-288 0 -480 157 -480 392c0 209 196 348 490 348c61 0 151 -20 209 -20c29 0 50 5 56 20h40l9 -8l21 -213h-63l-10 6c-41 143 -168 170 -222 170
c-136 0 -210 -110 -210 -304c0 -222 56 -341 160 -341c88 0 130 60 130 120v156l-162 -1l-8 8v29l8 8l242 -5l282 5l8 -8v-28l-8 -8h-82v-318l-8 -8h-152c0 45 -20 81 -45 81c-11 0 -22 -6 -33 -13c-52 -35 -106 -68 -172 -68z" />
    <glyph glyph-name="gcommaaccent" unicode="&#x123;" horiz-adv-x="953" 
d="M360 752c0 58 39 127 71 159l12 1l39 -32v-11c-12 -12 -44 -71 -44 -89h54l28 -28v-104l-28 -28h-104l-28 28v104zM560 80v180c-1 150 -95 225 -160 225c-52 0 -80 -30 -80 -140v-165c0 -104 27 -150 77 -150s97 50 163 50zM840 480v-420c0 -195 -147 -300 -420 -300
c-80 0 -233 40 -300 40v97l8 8h107l5 -5c0 -60 72 -100 180 -100c142 0 218 43 218 123c0 70 -31 117 -78 117c-50 0 -99 -50 -180 -50c-204 0 -340 108 -340 270c0 176 119 270 340 270c81 0 169 -57 204 -166l1 9c0 12 2 140 2 148l7 7l126 -11l203 3l8 -8l1 -34l-8 -7
l-16 3c-26 5 -50 6 -68 6z" />
    <glyph glyph-name="Hcircumflex" unicode="&#x124;" horiz-adv-x="1160" 
d="M484 1000h192l163 -163l-2 -7l-167 -30l-88 160h-4l-88 -160l-167 30l-2 7zM120 680c-18 0 -52 -1 -78 -6l-16 -3l-8 7l2 35l8 8l252 -6l242 6l8 -8l2 -35l-8 -7l-16 3c-26 5 -60 6 -68 6l-3 -277c60 -2 123 -4 143 -4s85 2 145 4l-5 277c-8 0 -42 -1 -68 -6l-16 -3l-8 7
l2 35l8 8l242 -6l252 6l8 -8l2 -35l-8 -7l-16 3c-26 5 -60 6 -78 6v-640c18 0 52 1 78 6l16 3l8 -7l-2 -35l-8 -8l-252 6l-242 -6l-8 8l-2 35l8 7l16 -3c26 -5 60 -6 68 -6l5 318c-60 2 -125 3 -145 3s-83 -1 -143 -3l3 -318c8 0 42 1 68 6l16 3l8 -7l-2 -35l-8 -8l-242 6
l-252 -6l-8 8l-2 35l8 7l16 -3c26 -5 60 -6 78 -6v640z" />
    <glyph glyph-name="hcircumflex" unicode="&#x125;" horiz-adv-x="1040" 
d="M384 1000h192l163 -163l-2 -7l-167 -30l-88 160h-4l-88 -160l-167 30l-2 7zM400 80c0 -12 8 -73 9 -81l-7 -7l-162 13l-212 -6l-8 8l-2 35l8 7l16 -3c26 -5 60 -6 78 -6v660c-18 0 -42 -1 -68 -6l-16 -3l-8 7l1 34l8 8l223 -5l142 13l7 -7c-1 -8 -9 -69 -9 -81l-5 -248h2
c41 76 115 118 183 118c274 0 286 -120 340 -120v-370c18 0 52 1 78 6l16 3l8 -7l-2 -35l-8 -8l-212 6l-162 -13l-7 7c1 8 9 69 9 81v270c0 110 -28 140 -80 140c-65 0 -160 -80 -160 -230v-180z" />
    <glyph glyph-name="Hbar" unicode="&#x126;" horiz-adv-x="1160" 
d="M120 680c-18 0 -52 -1 -78 -6l-16 -3l-8 7l2 35l8 8l252 -6l242 6l8 -8l2 -35l-8 -7l-16 3c-26 5 -60 6 -68 6l-2 -120l143 -1l141 1l-2 120c-8 0 -42 -1 -68 -6l-16 -3l-8 7l2 35l8 8l242 -6l252 6l8 -8l2 -35l-8 -7l-16 3c-26 5 -60 6 -78 6v-118h84l7 -8l-3 -28l-9 -8
h-79v-478c18 0 52 1 78 6l16 3l8 -7l-2 -35l-8 -8l-252 6l-242 -6l-8 8l-2 35l8 7l16 -3c26 -5 60 -6 68 -6l5 318c-60 2 -125 3 -145 3s-85 -1 -145 -3l5 -318c8 0 42 1 68 6l16 3l8 -7l-2 -35l-8 -8l-242 6l-252 -6l-8 8l-2 35l8 7l16 -3c26 -5 60 -6 78 -6v478h-85l-7 8
l3 28l9 8h80v118zM723 520l-142 1l-144 -1l-2 -117c60 -2 125 -4 145 -4s85 2 145 4z" />
    <glyph glyph-name="hbar" unicode="&#x127;" horiz-adv-x="1040" 
d="M120 700c-18 0 -42 -1 -68 -6l-16 -3l-8 7l1 34l8 8l223 -5l142 13l7 -7c-1 -8 -9 -69 -9 -81l-1 -30l188 5l7 -8l-3 -28l-9 -8h-183l-4 -179h2c41 76 115 118 183 118c274 0 286 -120 340 -120v-370c18 0 52 1 78 6l16 3l8 -7l-2 -35l-8 -8l-212 6l-162 -13l-7 7
c1 8 9 69 9 81v270c0 110 -28 140 -80 140c-65 0 -160 -80 -160 -230v-180c0 -12 8 -73 9 -81l-7 -7l-162 13l-212 -6l-8 8l-2 35l8 7l16 -3c26 -5 60 -6 78 -6v547l-92 -2l-7 8l3 28l9 8h87v71z" />
    <glyph glyph-name="Itilde" unicode="&#x128;" horiz-adv-x="560" 
d="M85 831l5 29c12 62 41 127 118 127c81 0 119 -112 137 -115l23 110l9 7l119 -20l-6 -29c-12 -62 -41 -127 -118 -127c-81 0 -118 112 -136 115l-23 -110l-9 -7zM120 680c-18 0 -52 -1 -78 -6l-16 -3l-8 7l2 35l8 8l252 -6l252 6l8 -8l2 -35l-8 -7l-16 3
c-26 5 -60 6 -78 6v-640c18 0 52 1 78 6l16 3l8 -7l-2 -35l-8 -8l-252 6l-252 -6l-8 8l-2 35l8 7l16 -3c26 -5 60 -6 78 -6v640z" />
    <glyph glyph-name="itilde" unicode="&#x129;" horiz-adv-x="520" 
d="M65 651l5 29c12 62 41 127 118 127c81 0 119 -112 137 -115l23 110l9 7l119 -20l-6 -29c-12 -62 -41 -127 -118 -127c-81 0 -118 112 -136 115l-23 -110l-9 -7zM120 480c-18 0 -42 -1 -68 -6l-16 -3l-8 7l1 34l8 8l223 -5l142 13l7 -7c-1 -8 -9 -69 -9 -81v-400
c18 0 52 1 78 6l16 3l8 -7l-2 -35l-8 -8l-232 6l-232 -6l-8 8l-2 35l8 7l16 -3c26 -5 60 -6 78 -6v440z" />
    <glyph glyph-name="Imacron" unicode="&#x12a;" horiz-adv-x="560" 
d="M460 840h-360v120h360v-120zM120 680c-18 0 -52 -1 -78 -6l-16 -3l-8 7l2 35l8 8l252 -6l252 6l8 -8l2 -35l-8 -7l-16 3c-26 5 -60 6 -78 6v-640c18 0 52 1 78 6l16 3l8 -7l-2 -35l-8 -8l-252 6l-252 -6l-8 8l-2 35l8 7l16 -3c26 -5 60 -6 78 -6v640z" />
    <glyph glyph-name="imacron" unicode="&#x12b;" horiz-adv-x="520" 
d="M440 660h-360v120h360v-120zM120 480c-18 0 -42 -1 -68 -6l-16 -3l-8 7l1 34l8 8l223 -5l142 13l7 -7c-1 -8 -9 -69 -9 -81v-400c18 0 52 1 78 6l16 3l8 -7l-2 -35l-8 -8l-232 6l-232 -6l-8 8l-2 35l8 7l16 -3c26 -5 60 -6 78 -6v440z" />
    <glyph glyph-name="Ibreve" unicode="&#x12c;" horiz-adv-x="560" 
d="M87 990c41 -51 117 -60 193 -60s152 9 193 60l40 -22c-79 -97 -156 -158 -233 -158s-154 61 -233 158zM120 680c-18 0 -52 -1 -78 -6l-16 -3l-8 7l2 35l8 8l252 -6l252 6l8 -8l2 -35l-8 -7l-16 3c-26 5 -60 6 -78 6v-640c18 0 52 1 78 6l16 3l8 -7l-2 -35l-8 -8l-252 6
l-252 -6l-8 8l-2 35l8 7l16 -3c26 -5 60 -6 78 -6v640z" />
    <glyph glyph-name="ibreve" unicode="&#x12d;" horiz-adv-x="520" 
d="M67 810c41 -51 117 -60 193 -60s152 9 193 60l40 -22c-79 -97 -156 -158 -233 -158s-154 61 -233 158zM120 480c-18 0 -42 -1 -68 -6l-16 -3l-8 7l1 34l8 8l223 -5l142 13l7 -7c-1 -8 -9 -69 -9 -81v-400c18 0 52 1 78 6l16 3l8 -7l-2 -35l-8 -8l-232 6l-232 -6l-8 8
l-2 35l8 7l16 -3c26 -5 60 -6 78 -6v440z" />
    <glyph glyph-name="Iogonek" unicode="&#x12e;" horiz-adv-x="560" 
d="M260 5l-232 -6l-8 8l-2 35l8 7l16 -3c26 -5 60 -6 78 -6v640c-18 0 -52 -1 -78 -6l-16 -3l-8 7l2 35l8 8l252 -6l252 6l8 -8l2 -35l-8 -7l-16 3c-26 5 -60 6 -78 6v-640c18 0 52 1 78 6l16 3l8 -7l-2 -35l-8 -8l-86 1c-64 0 -178 -38 -179 -126c0 -43 25 -72 69 -72
c26 0 58 8 72 24l11 1l10 -9l1 -12c-28 -32 -69 -46 -118 -46c-124 0 -206 39 -207 98c0 75 96 116 194 141v6h-39z" />
    <glyph glyph-name="iogonek" unicode="&#x12f;" horiz-adv-x="520" 
d="M150 792l28 28h164l28 -28v-144l-28 -28h-164l-28 28v144zM279 5h-40l-251 -6l32 8l-2 35l8 7l16 -3c26 -5 60 -6 78 -6v440c-18 0 -52 -1 -78 -6l-16 -3l-8 7l1 34l8 8l233 -5l142 13l7 -7c-1 -8 -9 -69 -9 -81v-400c18 0 52 1 78 6l16 3l8 -7l-2 -35l-8 -8l-66 1
c-64 0 -178 -38 -179 -126c0 -43 25 -72 69 -72c26 0 58 8 72 24l11 1l10 -9l1 -12c-28 -32 -69 -46 -118 -46c-124 0 -206 39 -207 98c0 75 76 116 174 141z" />
    <glyph glyph-name="Idotaccent" unicode="&#x130;" horiz-adv-x="560" 
d="M170 972l28 28h164l28 -28v-144l-28 -28h-164l-28 28v144zM120 680c-18 0 -52 -1 -78 -6l-16 -3l-8 7l2 35l8 8l252 -6l252 6l8 -8l2 -35l-8 -7l-16 3c-26 5 -60 6 -78 6v-640c18 0 52 1 78 6l16 3l8 -7l-2 -35l-8 -8l-252 6l-252 -6l-8 8l-2 35l8 7l16 -3
c26 -5 60 -6 78 -6v640z" />
    <glyph glyph-name="dotlessi" unicode="&#x131;" horiz-adv-x="520" 
d="M120 480c-18 0 -42 -1 -68 -6l-16 -3l-8 7l1 34l8 8l223 -5l142 13l7 -7c-1 -8 -9 -69 -9 -81v-400c18 0 52 1 78 6l16 3l8 -7l-2 -35l-8 -8l-232 6l-232 -6l-8 8l-2 35l8 7l16 -3c26 -5 60 -6 78 -6v440z" />
    <glyph glyph-name="IJ" unicode="&#x132;" horiz-adv-x="1140" 
d="M1020 270c0 -182 -149 -280 -440 -280l-5 5v30l5 5c141 0 227 57 227 143c0 59 -38 97 -97 97l-10 10v400c-18 0 -52 -1 -78 -6l-16 -3l-8 7l2 35l8 8l252 -6l252 6l8 -8l2 -35l-8 -7l-16 3c-26 5 -60 6 -78 6v-410zM120 680c-18 0 -52 -1 -78 -6l-16 -3l-8 7l2 35l8 8
l252 -6l252 6l8 -8l2 -35l-8 -7l-16 3c-26 5 -60 6 -78 6v-640c13 0 33 2 53 6l16 3l8 -7l-2 -35l-8 -8l-227 6l-252 -6l-8 8l-2 35l8 7l16 -3c26 -5 60 -6 78 -6v640z" />
    <glyph glyph-name="ij" unicode="&#x133;" 
d="M650 792l28 28h164l28 -28v-144l-28 -28h-164l-28 28v144zM620 50v430c-18 0 -42 -1 -68 -6l-16 -3l-8 7l1 34l8 8l203 -5l162 13l7 -7c-1 -8 -9 -69 -9 -81v-400c0 -182 -114 -280 -405 -280h-57l-8 8l1 55l8 7l36 -8c34 -8 66 -11 94 -11c88 0 159 59 159 132
c0 58 -39 97 -98 97zM150 792l28 28h164l28 -28v-144l-28 -28h-164l-28 28v144zM120 480c-18 0 -42 -1 -68 -6l-16 -3l-8 7l1 34l8 8l223 -5l142 13l7 -7c-1 -8 -9 -69 -9 -81v-400c18 0 52 1 78 6l16 3l8 -7l-2 -35l-8 -8l-232 6l-232 -6l-8 8l-2 35l8 7l16 -3
c26 -5 60 -6 78 -6v440z" />
    <glyph glyph-name="Jcircumflex" unicode="&#x134;" horiz-adv-x="600" 
d="M224 1000h192l163 -163l-2 -7l-167 -30l-88 160h-4l-88 -160l-167 30l-2 7zM160 680c-18 0 -82 -1 -108 -6l-16 -3l-8 7l2 35l8 8l282 -6l252 6l8 -8l2 -35l-8 -7l-16 3c-26 5 -60 6 -78 6v-410c0 -182 -154 -280 -445 -280l-5 5v30l5 5c141 0 232 57 232 143
c0 59 -38 97 -97 97l-10 10v400z" />
    <glyph glyph-name="jcircumflex" unicode="&#x135;" horiz-adv-x="500" 
d="M164 820h192l163 -163l-2 -7l-167 -30l-88 160h-4l-88 -160l-167 30l-2 7zM120 50v430c-18 0 -42 -1 -68 -6l-16 -3l-8 7l1 34l8 8l203 -5l162 13l7 -7c-1 -8 -9 -69 -9 -81v-400c0 -182 -114 -280 -405 -280h-57l-8 8l1 55l8 7l36 -8c34 -8 66 -11 94 -11
c88 0 159 59 159 132c0 58 -39 97 -98 97z" />
    <glyph glyph-name="Kcommaaccent" unicode="&#x136;" horiz-adv-x="1120" 
d="M680 -162c0 -56 -33 -112 -54 -139l-12 -1l-42 32v11c9 13 30 53 30 69h-44l-28 28v64l28 28h94l28 -28v-64zM120 680c-18 0 -52 -1 -78 -6l-16 -3l-8 7l2 35l8 8l252 -3l222 3l8 -8l2 -31l-8 -7l-16 3c-12 2 -30 2 -48 2l-4 -270h36l204 246c4 4 5 9 5 14
c0 13 -9 28 -9 47l8 8l372 -5l8 -8v-24l-8 -8c-20 0 -79 -19 -128 -48l-406 -239v-2c18 -9 63 -13 113 -13c87 0 193 12 217 24l11 -4l141 -315c15 -34 39 -39 69 -39c15 0 51 1 51 1v-30l-355 -43c-2 0 -11 -1 -11 -1c-14 0 -38 16 -59 57l-120 240c-36 71 -84 94 -140 100
l5 -328c18 0 52 1 78 6l16 3l8 -7l-2 -35l-8 -8l-252 6l-252 -6l-8 8l-2 35l8 7l16 -3c26 -5 60 -6 78 -6v640z" />
    <glyph glyph-name="kcommaaccent" unicode="&#x137;" 
d="M640 -162c0 -56 -33 -112 -54 -139l-12 -1l-42 32v11c9 13 30 53 30 69h-44l-28 28v64l28 28h94l28 -28v-64zM120 700c-18 0 -42 -1 -68 -6l-16 -3l-8 7l1 34l8 8l203 -5l162 13l7 -7c-1 -8 -9 -69 -9 -81v-350h34l132 146c4 4 5 9 5 14c0 13 -9 28 -9 47l8 8l332 -5
l8 -8v-24l-8 -8c-20 0 -77 -24 -128 -48l-295 -141c20 -9 61 -13 107 -13c82 0 178 12 202 24l11 -4l81 -195c21 -48 59 -63 110 -63h10v-30l-342 -29c-14 0 -37 16 -58 57l-65 130c-35 69 -81 92 -135 99v-227c18 0 52 1 78 6l16 3l8 -7l-2 -35l-8 -8l-232 6l-232 -6l-8 8
l-2 35l8 7l16 -3c26 -5 60 -6 78 -6v660z" />
    <glyph glyph-name="kgreenlandic" unicode="&#x138;" 
d="M120 480c-18 0 -52 -1 -78 -6l-16 -3l-8 7l1 34l8 8l213 -5l162 13l7 -7c-1 -8 -9 -69 -9 -81v-130h34l132 146c4 4 5 9 5 14c0 13 -9 28 -9 47l8 8l332 -5l8 -8v-24l-8 -8c-20 0 -77 -24 -128 -48l-295 -141c20 -9 61 -13 107 -13c82 0 178 12 202 24l11 -4l81 -195
c22 -51 66 -63 120 -63v-30l-340 -29h-2c-14 0 -37 16 -58 57l-65 130c-35 69 -81 92 -135 99v-227c18 0 52 1 78 6l16 3l8 -7l-2 -35l-8 -8l-232 6l-232 -6l-8 8l-2 35l8 7l16 -3c26 -5 60 -6 78 -6v440z" />
    <glyph glyph-name="Lacute" unicode="&#x139;" horiz-adv-x="960" 
d="M246 781h-38l-5 7l105 222h217l25 -31zM120 680c-18 0 -52 -1 -78 -6l-16 -3l-8 7l2 35l8 8l252 -6l252 6l8 -8l2 -35l-8 -7l-16 3c-26 5 -60 6 -78 6v-640c182 0 385 101 432 242l10 7l52 -1l7 -9l-21 -289s-400 10 -480 10h-412l-8 8l-2 35l8 7l16 -3
c26 -5 60 -7 78 -7v640z" />
    <glyph glyph-name="lacute" unicode="&#x13a;" horiz-adv-x="520" 
d="M206 801h-38l-5 7l105 222h217l25 -31zM120 700c-18 0 -42 -1 -68 -6l-16 -3l-8 7l1 34l8 8l203 -5l162 13l7 -7c-1 -8 -9 -69 -9 -81v-620c18 0 52 1 78 6l16 3l8 -7l-2 -35l-8 -8l-232 6l-232 -6l-8 8l-2 35l8 7l16 -3c26 -5 60 -6 78 -6v660z" />
    <glyph glyph-name="Lcommaaccent" unicode="&#x13b;" horiz-adv-x="960" 
d="M620 -162c0 -56 -33 -112 -54 -139l-12 -1l-42 32v11c9 13 30 53 30 69h-44l-28 28v64l28 28h94l28 -28v-64zM120 680c-18 0 -52 -1 -78 -6l-16 -3l-8 7l2 35l8 8l252 -6l252 6l8 -8l2 -35l-8 -7l-16 3c-26 5 -60 6 -78 6v-640c182 0 385 101 432 242l10 7l52 -1l7 -9
l-21 -289s-400 10 -480 10h-412l-8 8l-2 35l8 7l16 -3c26 -5 60 -7 78 -7v640z" />
    <glyph glyph-name="lcommaaccent" unicode="&#x13c;" horiz-adv-x="520" 
d="M340 -162c0 -56 -33 -112 -54 -139l-12 -1l-42 32v11c9 13 30 53 30 69h-44l-28 28v64l28 28h94l28 -28v-64zM120 700c-18 0 -42 -1 -68 -6l-16 -3l-8 7l1 34l8 8l203 -5l162 13l7 -7c-1 -8 -9 -69 -9 -81v-620c18 0 52 1 78 6l16 3l8 -7l-2 -35l-8 -8l-232 6l-232 -6
l-8 8l-2 35l8 7l16 -3c26 -5 60 -6 78 -6v660z" />
    <glyph glyph-name="Lcaron" unicode="&#x13d;" horiz-adv-x="980" 
d="M960 702v-104c0 -58 -39 -127 -71 -159l-12 -1l-39 32v11c12 12 44 71 44 89h-54l-28 28v104l28 28h104zM120 680c-18 0 -52 -1 -78 -6l-16 -3l-8 7l2 35l8 8l252 -6l252 6l8 -8l2 -35l-8 -7l-16 3c-26 5 -60 6 -78 6v-640c182 0 385 101 432 242l10 7l52 -1l7 -9
l-21 -289s-400 10 -480 10h-412l-8 8l-2 35l8 7l16 -3c26 -5 60 -7 78 -7v640z" />
    <glyph glyph-name="lcaron" unicode="&#x13e;" horiz-adv-x="680" 
d="M650 720v-104c0 -58 -39 -127 -71 -159l-12 -1l-39 32v11c12 12 44 71 44 89h-54l-28 28v104l28 28h104zM120 700c-18 0 -42 -1 -68 -6l-16 -3l-8 7l1 34l8 8l203 -5l162 13l7 -7c-1 -8 -9 -69 -9 -81v-620c18 0 52 1 78 6l16 3l8 -7l-2 -35l-8 -8l-232 6l-232 -6l-8 8
l-2 35l8 7l16 -3c26 -5 60 -6 78 -6v660z" />
    <glyph glyph-name="Ldot" unicode="&#x13f;" horiz-adv-x="960" 
d="M560 412l28 28h104l28 -28v-104l-28 -28h-104l-28 28v104zM120 680c-18 0 -52 -1 -78 -6l-16 -3l-8 7l2 35l8 8l252 -6l252 6l8 -8l2 -35l-8 -7l-16 3c-26 5 -60 6 -78 6v-640c182 0 385 101 432 242l10 7l52 -1l7 -9l-21 -289s-400 10 -480 10h-412l-8 8l-2 35l8 7
l16 -3c26 -5 60 -7 78 -7v640z" />
    <glyph glyph-name="ldot" unicode="&#x140;" horiz-adv-x="660" 
d="M480 412l28 28h104l28 -28v-104l-28 -28h-104l-28 28v104zM120 700c-18 0 -42 -1 -68 -6l-16 -3l-8 7l1 34l8 8l203 -5l162 13l7 -7c-1 -8 -9 -69 -9 -81v-620c18 0 52 1 78 6l16 3l8 -7l-2 -35l-8 -8l-232 6l-232 -6l-8 8l-2 35l8 7l16 -3c26 -5 60 -6 78 -6v660z" />
    <glyph glyph-name="Lslash" unicode="&#x141;" 
d="M140 680c-18 0 -52 -1 -78 -6l-16 -3l-8 7l2 35l8 8l252 -6l252 6l8 -8l2 -35l-8 -7l-16 3c-26 5 -60 6 -78 6v-232v-4l2 3l233 148l12 -2l43 -58l-2 -10l-288 -143v-342c182 0 385 101 432 242l10 7l72 -1l7 -9l-21 -289s-460 10 -540 10h-372l-8 8l-2 35l8 7l16 -3
c26 -5 60 -7 78 -7v162v3l-2 -2l-87 -56l-11 3l-26 39l3 10l123 59v422z" />
    <glyph glyph-name="lslash" unicode="&#x142;" horiz-adv-x="600" 
d="M160 700c-18 0 -52 -1 -78 -6l-16 -3l-8 7l1 34l8 8l213 -5l162 13l7 -7c-1 -8 -9 -69 -9 -81v-182v-4l2 3l97 69l11 -1l30 -41l-2 -10l-138 -71v-383c18 0 52 1 78 6l16 3l8 -7l-2 -35l-8 -8l-232 6l-232 -6l-8 8l-2 35l8 7l16 -3c26 -5 60 -6 78 -6v208v3l-2 -2
l-107 -71l-11 2l-19 29l3 11l136 74v406z" />
    <glyph glyph-name="Nacute" unicode="&#x143;" 
d="M486 781h-38l-5 7l105 222h217l25 -31zM170 280c0 -180 96 -234 154 -234c10 0 18 1 26 3l8 -7l-3 -35l-8 -8l-217 6l-102 -6l-8 8l-2 35l8 7c5 -1 15 -3 22 -3c35 0 72 20 72 114v462c0 53 -21 68 -92 68l-8 8v14l8 8h423l378 -589h1v309c0 180 -96 234 -154 234h-9
l-17 -3l-8 7l3 35l8 8l217 -6l102 6l8 -8l2 -35l-8 -7c-8 3 -15 4 -24 4c-27 0 -70 -24 -70 -115v-560h-50h-274l-386 604v-324z" />
    <glyph glyph-name="nacute" unicode="&#x144;" horiz-adv-x="1040" 
d="M486 601h-38l-5 7l105 222h217l25 -31zM400 80c0 -12 8 -73 9 -81l-7 -7l-162 13l-212 -6l-8 8l-2 35l8 7l16 -3c26 -5 60 -6 78 -6v440c-18 0 -42 -1 -68 -6l-16 -3l-8 7l1 34l8 8l203 -3l126 11l7 -7c0 -8 2 -136 2 -148h3c37 103 123 157 202 157
c274 0 286 -120 340 -120v-370c18 0 52 1 78 6l16 3l8 -7l-2 -35l-8 -8l-212 6l-162 -13l-7 7c1 8 9 69 9 81v270c0 110 -28 140 -80 140c-65 0 -160 -80 -160 -230v-180z" />
    <glyph glyph-name="Ncommaaccent" unicode="&#x145;" 
d="M427 -89v-104c0 -58 -39 -127 -71 -159l-12 -1l-39 32v11c12 12 44 71 44 89h-54l-28 28v104l28 28h104zM170 280c0 -180 96 -234 154 -234c10 0 18 1 26 3l8 -7l-3 -35l-8 -8l-217 6l-102 -6l-8 8l-2 35l8 7c5 -1 15 -3 22 -3c35 0 72 20 72 114v462c0 53 -21 68 -92 68
l-8 8v14l8 8h423l378 -589h1v309c0 180 -96 234 -154 234h-9l-17 -3l-8 7l3 35l8 8l217 -6l102 6l8 -8l2 -35l-8 -7c-8 3 -15 4 -24 4c-27 0 -70 -24 -70 -115v-560h-50h-274l-386 604v-324z" />
    <glyph glyph-name="ncommaaccent" unicode="&#x146;" horiz-adv-x="1040" 
d="M600 -162c0 -56 -33 -112 -54 -139l-12 -1l-42 32v11c9 13 30 53 30 69h-44l-28 28v64l28 28h94l28 -28v-64zM400 80c0 -12 8 -73 9 -81l-7 -7l-162 13l-212 -6l-8 8l-2 35l8 7l16 -3c26 -5 60 -6 78 -6v440c-18 0 -42 -1 -68 -6l-16 -3l-8 7l1 34l8 8l203 -3l126 11
l7 -7c0 -8 2 -136 2 -148h3c37 103 123 157 202 157c274 0 286 -120 340 -120v-370c18 0 52 1 78 6l16 3l8 -7l-2 -35l-8 -8l-212 6l-162 -13l-7 7c1 8 9 69 9 81v270c0 110 -28 140 -80 140c-65 0 -160 -80 -160 -230v-180z" />
    <glyph glyph-name="Ncaron" unicode="&#x147;" 
d="M424 800l-163 163l2 7l167 30l88 -160h4l88 160l167 -30l2 -7l-163 -163h-192zM170 280c0 -180 96 -234 154 -234c10 0 18 1 26 3l8 -7l-3 -35l-8 -8l-217 6l-102 -6l-8 8l-2 35l8 7c5 -1 15 -3 22 -3c35 0 72 20 72 114v462c0 53 -21 68 -92 68l-8 8v14l8 8h423
l378 -589h1v309c0 180 -96 234 -154 234h-9l-17 -3l-8 7l3 35l8 8l217 -6l102 6l8 -8l2 -35l-8 -7c-8 3 -15 4 -24 4c-27 0 -70 -24 -70 -115v-560h-50h-274l-386 604v-324z" />
    <glyph glyph-name="ncaron" unicode="&#x148;" horiz-adv-x="1040" 
d="M424 620l-163 163l2 7l167 30l88 -160h4l88 160l167 -30l2 -7l-163 -163h-192zM400 80c0 -12 8 -73 9 -81l-7 -7l-162 13l-212 -6l-8 8l-2 35l8 7l16 -3c26 -5 60 -6 78 -6v440c-18 0 -42 -1 -68 -6l-16 -3l-8 7l1 34l8 8l203 -3l126 11l7 -7c0 -8 2 -136 2 -148h3
c37 103 123 157 202 157c274 0 286 -120 340 -120v-370c18 0 52 1 78 6l16 3l8 -7l-2 -35l-8 -8l-212 6l-162 -13l-7 7c1 8 9 69 9 81v270c0 110 -28 140 -80 140c-65 0 -160 -80 -160 -230v-180z" />
    <glyph glyph-name="napostrophe" unicode="&#x149;" horiz-adv-x="1200" 
d="M560 80c0 -12 8 -73 9 -81l-7 -7l-162 13l-212 -6l-8 8l-2 35l8 7l16 -3c26 -5 60 -6 78 -6v440c-17 0 -41 -5 -64 -9l-8 7l1 34l8 8l183 -3l126 11l7 -7c0 -8 2 -136 2 -148h3c37 103 123 157 202 157c274 0 286 -120 340 -120v-370c18 0 52 1 78 6l16 3l8 -7l-2 -35
l-8 -8l-212 6l-162 -13l-7 7c1 8 9 69 9 81v270c0 110 -28 140 -80 140c-65 0 -160 -80 -160 -230v-180zM170 720v-104c0 -58 -39 -127 -71 -159l-12 -1l-39 32v11c12 12 44 71 44 89h-54l-28 28v104l28 28h104z" />
    <glyph glyph-name="Eng" unicode="&#x14a;" horiz-adv-x="1020" 
d="M120 680c-18 0 -42 -1 -68 -6l-16 -3l-8 7l1 34l8 8l203 -3l127 11l7 -7c0 -8 1 -136 1 -148h4c37 103 122 157 201 157c274 0 286 -120 340 -120v-340c0 -182 -114 -280 -405 -280l-5 5l1 30l4 5c141 0 233 57 233 143c0 59 -39 97 -98 97l-10 10v270
c0 110 -28 140 -80 140c-65 0 -160 -80 -160 -230v-380c0 -12 8 -73 9 -81l-7 -7l-162 13l-212 -6l-8 8l-2 35l8 7l16 -3c26 -5 60 -6 78 -6v640z" />
    <glyph glyph-name="eng" unicode="&#x14b;" 
d="M120 480c-18 0 -42 -1 -68 -6l-16 -3l-8 7l1 34l8 8l203 -3l127 11l7 -7c0 -9 1 -136 1 -148h4c37 103 122 157 201 157c274 0 286 -120 340 -120v-370c0 -182 -114 -280 -405 -280l-5 5l1 30l4 5c141 0 233 57 233 143c0 59 -39 97 -98 97l-10 10v300
c0 110 -28 140 -80 140c-65 0 -160 -80 -160 -230v-180c0 -12 8 -73 9 -81l-7 -7l-162 13l-212 -6l-8 8l-2 35l8 7l16 -3c26 -5 60 -6 78 -6v440z" />
    <glyph glyph-name="Omacron" unicode="&#x14c;" horiz-adv-x="1020" 
d="M690 840h-360v120h360v-120zM510 -10c-288 0 -480 148 -480 370s192 370 480 370s480 -148 480 -370s-192 -370 -480 -370zM530 35c102 0 140 91 140 325s-49 325 -180 325c-102 0 -140 -91 -140 -325s49 -325 180 -325z" />
    <glyph glyph-name="omacron" unicode="&#x14d;" horiz-adv-x="850" 
d="M600 660h-360v120h360v-120zM425 -10c-240 0 -400 108 -400 270s160 270 400 270s400 -108 400 -270s-160 -270 -400 -270zM425 490c-52 0 -120 -30 -120 -140v-180c0 -110 68 -140 120 -140c53 0 120 30 120 140v180c0 110 -67 140 -120 140z" />
    <glyph glyph-name="Obreve" unicode="&#x14e;" horiz-adv-x="1020" 
d="M317 990c41 -51 117 -60 193 -60s152 9 193 60l40 -22c-79 -97 -156 -158 -233 -158s-154 61 -233 158zM510 -10c-288 0 -480 148 -480 370s192 370 480 370s480 -148 480 -370s-192 -370 -480 -370zM530 35c102 0 140 91 140 325s-49 325 -180 325
c-102 0 -140 -91 -140 -325s49 -325 180 -325z" />
    <glyph glyph-name="obreve" unicode="&#x14f;" horiz-adv-x="850" 
d="M227 810c41 -51 117 -60 193 -60s152 9 193 60l40 -22c-79 -97 -156 -158 -233 -158s-154 61 -233 158zM425 -10c-240 0 -400 108 -400 270s160 270 400 270s400 -108 400 -270s-160 -270 -400 -270zM425 490c-52 0 -120 -30 -120 -140v-180c0 -110 68 -140 120 -140
c53 0 120 30 120 140v180c0 110 -67 140 -120 140z" />
    <glyph glyph-name="Ohungarumlaut" unicode="&#x150;" horiz-adv-x="1020" 
d="M626 781h-38l-5 7l105 222h207l25 -31zM306 781h-38l-5 7l105 222h207l25 -31zM510 -10c-288 0 -480 148 -480 370s192 370 480 370s480 -148 480 -370s-192 -370 -480 -370zM530 35c102 0 140 91 140 325s-49 325 -180 325c-102 0 -140 -91 -140 -325s49 -325 180 -325z
" />
    <glyph glyph-name="ohungarumlaut" unicode="&#x151;" horiz-adv-x="850" 
d="M536 601h-38l-5 7l105 222h207l25 -31zM216 601h-38l-5 7l105 222h207l25 -31zM425 -10c-240 0 -400 108 -400 270s160 270 400 270s400 -108 400 -270s-160 -270 -400 -270zM425 490c-52 0 -120 -30 -120 -140v-180c0 -110 68 -140 120 -140c53 0 120 30 120 140v180
c0 110 -67 140 -120 140z" />
    <glyph glyph-name="OE" unicode="&#x152;" horiz-adv-x="1420" 
d="M579 49c58 34 81 129 81 311c0 234 -49 325 -180 325c-102 0 -140 -91 -140 -325s49 -325 180 -325c19 0 35 3 50 10l6 5zM925 680l-5 -280h15c72 0 103 95 127 136l11 3l31 -7v-304l-31 -7l-11 3c-24 41 -55 136 -127 136h-15l5 -320c182 0 371 81 417 222l10 7l42 -1
l7 -9l-21 -269s-415 10 -495 10h-192c-40 0 -149 -10 -193 -10c-288 0 -480 148 -480 370s192 370 480 370c44 0 147 -10 190 -10h196c80 0 416 10 416 10l9 -8l21 -208l-40 -3l-11 6c-59 142 -196 163 -356 163z" />
    <glyph glyph-name="oe" unicode="&#x153;" horiz-adv-x="1280" 
d="M410 490c-52 0 -110 -30 -110 -140v-180c0 -110 58 -140 110 -140c53 0 110 30 110 140v180c0 110 -57 140 -110 140zM1235 255c0 0 -235 5 -275 5h-160c0 -150 43 -220 134 -220c100 0 180 43 220 87l11 1l25 -23l1 -11c-57 -63 -151 -104 -281 -104
c-124 0 -203 39 -245 84h-10c-42 -45 -121 -84 -245 -84c-240 0 -390 108 -390 270s150 270 390 270c125 0 203 -39 245 -84h11c42 45 120 84 244 84c204 0 330 -108 330 -270zM1019 299c-7 118 -38 181 -108 181c-69 0 -100 -59 -109 -169c35 -3 125 -13 158 -13
c10 0 26 0 59 1z" />
    <glyph glyph-name="Racute" unicode="&#x154;" horiz-adv-x="1080" 
d="M436 781h-38l-5 7l105 222h217l25 -31zM120 682c-18 0 -50 -2 -76 -7l-18 -4l-8 6l2 35l8 8l692 10c156 0 260 -84 260 -210c0 -134 -178 -228 -326 -230v-3c24 -16 139 -36 245 -36l51 -148c15 -44 55 -60 102 -60c9 0 28 2 28 2v-30l-356 -43l-11 -1
c-14 0 -38 16 -59 57l-75 172c-34 78 -69 91 -144 93l5 -253c18 0 52 1 78 6l16 3l8 -7l-2 -35l-8 -8l-252 6l-252 -6l-8 8l-2 35l8 7l16 -3c26 -5 60 -6 78 -6v642zM440 686l-5 -352l25 -1c130 0 200 65 200 187c0 109 -70 167 -200 167z" />
    <glyph glyph-name="racute" unicode="&#x155;" horiz-adv-x="780" 
d="M386 601h-38l-5 7l105 222h217l25 -31zM120 480c-18 0 -42 -1 -68 -6l-16 -3l-8 7l1 34l8 8l203 -3l128 11l7 -7c-1 -8 -3 -216 -3 -228h3c34 137 123 257 205 257h172l8 -8v-134l-48 -48h-144l-8 8v112c-65 0 -160 -150 -160 -300v-140c18 0 52 1 78 6l16 3l8 -7l-2 -35
l-8 -8l-232 6l-232 -6l-8 8l-2 35l8 7l16 -3c26 -5 60 -6 78 -6v440z" />
    <glyph glyph-name="Rcommaaccent" unicode="&#x156;" horiz-adv-x="1080" 
d="M640 -162c0 -56 -33 -112 -54 -139l-12 -1l-42 32v11c9 13 30 53 30 69h-44l-28 28v64l28 28h94l28 -28v-64zM120 682c-18 0 -50 -2 -76 -7l-18 -4l-8 6l2 35l8 8l692 10c156 0 260 -84 260 -210c0 -134 -178 -228 -326 -230v-3c24 -16 139 -36 245 -36l51 -148
c15 -44 55 -60 102 -60c9 0 28 2 28 2v-30l-356 -43l-11 -1c-14 0 -38 16 -59 57l-75 172c-34 78 -69 91 -144 93l5 -253c18 0 52 1 78 6l16 3l8 -7l-2 -35l-8 -8l-252 6l-252 -6l-8 8l-2 35l8 7l16 -3c26 -5 60 -6 78 -6v642zM440 686l-5 -352l25 -1c130 0 200 65 200 187
c0 109 -70 167 -200 167z" />
    <glyph glyph-name="rcommaaccent" unicode="&#x157;" horiz-adv-x="780" 
d="M340 -162c0 -56 -33 -112 -54 -139l-12 -1l-42 32v11c9 13 30 53 30 69h-44l-28 28v64l28 28h94l28 -28v-64zM120 480c-18 0 -42 -1 -68 -6l-16 -3l-8 7l1 34l8 8l203 -3l128 11l7 -7c-1 -8 -3 -216 -3 -228h3c34 137 123 257 205 257h172l8 -8v-134l-48 -48h-144l-8 8
v112c-65 0 -160 -150 -160 -300v-140c18 0 52 1 78 6l16 3l8 -7l-2 -35l-8 -8l-232 6l-232 -6l-8 8l-2 35l8 7l16 -3c26 -5 60 -6 78 -6v440z" />
    <glyph glyph-name="Rcaron" unicode="&#x158;" horiz-adv-x="1080" 
d="M374 800l-163 163l2 7l167 30l88 -160h4l88 160l167 -30l2 -7l-163 -163h-192zM120 682c-18 0 -50 -2 -76 -7l-18 -4l-8 6l2 35l8 8l692 10c156 0 260 -84 260 -210c0 -134 -178 -228 -326 -230v-3c24 -16 139 -36 245 -36l51 -148c15 -44 55 -60 102 -60c9 0 28 2 28 2
v-30l-356 -43l-11 -1c-14 0 -38 16 -59 57l-75 172c-34 78 -69 91 -144 93l5 -253c18 0 52 1 78 6l16 3l8 -7l-2 -35l-8 -8l-252 6l-252 -6l-8 8l-2 35l8 7l16 -3c26 -5 60 -6 78 -6v642zM440 686l-5 -352l25 -1c130 0 200 65 200 187c0 109 -70 167 -200 167z" />
    <glyph glyph-name="rcaron" unicode="&#x159;" horiz-adv-x="780" 
d="M344 620l-163 163l2 7l167 30l88 -160h4l88 160l167 -30l2 -7l-163 -163h-192zM120 480c-18 0 -42 -1 -68 -6l-16 -3l-8 7l1 34l8 8l203 -3l128 11l7 -7c-1 -8 -3 -216 -3 -228h3c34 137 123 257 205 257h172l8 -8v-134l-48 -48h-144l-8 8v112c-65 0 -160 -150 -160 -300
v-140c18 0 52 1 78 6l16 3l8 -7l-2 -35l-8 -8l-232 6l-232 -6l-8 8l-2 35l8 7l16 -3c26 -5 60 -6 78 -6v440z" />
    <glyph glyph-name="Sacute" unicode="&#x15a;" horiz-adv-x="905" 
d="M406 781h-38l-5 7l105 222h217l25 -31zM36 241h51l14 -8c60 -144 219 -203 329 -203c167 0 249 37 249 78c0 67 -167 91 -323 134s-311 107 -311 253c0 121 148 235 395 235c93 0 176 -22 229 -22c27 0 46 5 55 22h65l9 -8l20 -220h-55l-10 6c-60 144 -241 182 -312 182
c-125 0 -184 -36 -184 -74c0 -62 158 -73 313 -122c151 -48 310 -98 310 -260c0 -158 -174 -244 -450 -244c-89 0 -191 35 -252 35c-21 0 -38 -4 -47 -15h-65l-9 8z" />
    <glyph glyph-name="sacute" unicode="&#x15b;" horiz-adv-x="720" 
d="M308 586h-38l-5 7l105 222h217l25 -31zM35 172l33 2l5 -4c47 -103 187 -140 262 -140c132 0 186 21 186 50c0 48 -121 64 -245 95c-123 31 -246 77 -246 182c0 87 116 173 312 173c49 0 118 -18 169 -18c25 0 46 5 57 18h39l6 -5l16 -163l-30 -2l-8 5
c-47 103 -192 125 -248 125c-99 0 -137 -18 -137 -45c0 -44 117 -53 240 -88c120 -34 245 -71 245 -188c0 -114 -137 -179 -356 -179c-74 0 -166 25 -217 25c-15 0 -26 -2 -32 -7h-29l-6 6z" />
    <glyph glyph-name="Scircumflex" unicode="&#x15c;" horiz-adv-x="905" 
d="M344 1000h192l163 -163l-2 -7l-167 -30l-88 160h-4l-88 -160l-167 30l-2 7zM36 241h51l14 -8c60 -144 219 -203 329 -203c167 0 249 37 249 78c0 67 -167 91 -323 134s-311 107 -311 253c0 121 148 235 395 235c93 0 176 -22 229 -22c27 0 46 5 55 22h65l9 -8l20 -220
h-55l-10 6c-60 144 -241 182 -312 182c-125 0 -184 -36 -184 -74c0 -62 158 -73 313 -122c151 -48 310 -98 310 -260c0 -158 -174 -244 -450 -244c-89 0 -191 35 -252 35c-21 0 -38 -4 -47 -15h-65l-9 8z" />
    <glyph glyph-name="scircumflex" unicode="&#x15d;" horiz-adv-x="720" 
d="M246 805h192l163 -163l-2 -7l-167 -30l-88 160h-4l-88 -160l-167 30l-2 7zM35 172l33 2l5 -4c47 -103 187 -140 262 -140c132 0 186 21 186 50c0 48 -121 64 -245 95c-123 31 -246 77 -246 182c0 87 116 173 312 173c49 0 118 -18 169 -18c25 0 46 5 57 18h39l6 -5
l16 -163l-30 -2l-8 5c-47 103 -192 125 -248 125c-99 0 -137 -18 -137 -45c0 -44 117 -53 240 -88c120 -34 245 -71 245 -188c0 -114 -137 -179 -356 -179c-74 0 -166 25 -217 25c-15 0 -26 -2 -32 -7h-29l-6 6z" />
    <glyph glyph-name="Scedilla" unicode="&#x15e;" horiz-adv-x="905" 
d="M36 241h51l14 -8c60 -144 219 -203 329 -203c167 0 249 37 249 78c0 67 -167 91 -323 134s-311 107 -311 253c0 121 148 235 395 235c93 0 176 -22 229 -22c27 0 46 5 55 22h65l9 -8l20 -220h-55l-10 6c-60 144 -241 182 -312 182c-125 0 -184 -36 -184 -74
c0 -62 158 -73 313 -122c151 -48 310 -98 310 -260c0 -158 -174 -244 -450 -244h-2l-13 -52c10 3 19 4 31 4c85 0 154 -43 154 -96c0 -47 -71 -86 -158 -86c-36 0 -70 17 -88 47l26 15c12 -20 35 -32 62 -32c23 0 38 24 38 60c0 37 -14 62 -34 62c-19 0 -29 -6 -47 -14
l-25 7l23 86c-80 7 -166 34 -219 34c-21 0 -38 -4 -47 -15h-65l-9 8z" />
    <glyph glyph-name="scedilla" unicode="&#x15f;" horiz-adv-x="720" 
d="M35 172l33 2l5 -4c47 -103 187 -140 262 -140c132 0 186 21 186 50c0 48 -121 64 -245 95c-123 31 -246 77 -246 182c0 87 116 173 312 173c49 0 118 -18 169 -18c25 0 46 5 57 18h39l6 -5l16 -163l-30 -2l-8 5c-47 103 -192 125 -248 125c-99 0 -137 -18 -137 -45
c0 -44 117 -53 240 -88c120 -34 245 -71 245 -188c0 -114 -137 -179 -356 -179h-2l-13 -52c10 3 19 4 31 4c85 0 154 -43 154 -96c0 -47 -71 -86 -158 -86c-36 0 -70 17 -88 47l26 15c12 -20 35 -32 62 -32c23 0 38 24 38 60c0 37 -14 62 -34 62c-19 0 -29 -6 -47 -14l-25 7
l23 86c-67 5 -140 24 -184 24c-15 0 -26 -2 -32 -7h-29l-6 6z" />
    <glyph glyph-name="Scaron" unicode="&#x160;" horiz-adv-x="905" 
d="M344 800l-163 163l2 7l167 30l88 -160h4l88 160l167 -30l2 -7l-163 -163h-192zM36 241h51l14 -8c60 -144 219 -203 329 -203c167 0 249 37 249 78c0 67 -167 91 -323 134s-311 107 -311 253c0 121 148 235 395 235c93 0 176 -22 229 -22c27 0 46 5 55 22h65l9 -8l20 -220
h-55l-10 6c-60 144 -241 182 -312 182c-125 0 -184 -36 -184 -74c0 -62 158 -73 313 -122c151 -48 310 -98 310 -260c0 -158 -174 -244 -450 -244c-89 0 -191 35 -252 35c-21 0 -38 -4 -47 -15h-65l-9 8z" />
    <glyph glyph-name="scaron" unicode="&#x161;" horiz-adv-x="720" 
d="M246 605l-163 163l2 7l167 30l88 -160h4l88 160l167 -30l2 -7l-163 -163h-192zM35 172l33 2l5 -4c47 -103 187 -140 262 -140c132 0 186 21 186 50c0 48 -121 64 -245 95c-123 31 -246 77 -246 182c0 87 116 173 312 173c49 0 118 -18 169 -18c25 0 46 5 57 18h39l6 -5
l16 -163l-30 -2l-8 5c-47 103 -192 125 -248 125c-99 0 -137 -18 -137 -45c0 -44 117 -53 240 -88c120 -34 245 -71 245 -188c0 -114 -137 -179 -356 -179c-74 0 -166 25 -217 25c-15 0 -26 -2 -32 -7h-29l-6 6z" />
    <glyph glyph-name="Tcedilla" unicode="&#x162;" 
d="M340 680c-160 0 -212 -21 -274 -170l-50 3l-7 9l20 200l9 8s261 -10 341 -10h242c80 0 341 10 341 10l9 -8l20 -200l-7 -9l-50 -3c-62 149 -114 170 -274 170v-640c18 0 52 1 78 6l16 3l8 -7l-2 -35l-8 -8l-252 6h-9l-16 -67c10 3 19 4 31 4c85 0 154 -43 154 -96
c0 -47 -71 -86 -158 -86c-36 0 -70 17 -88 47l26 15c12 -20 35 -32 62 -32c23 0 38 24 38 60c0 37 -14 62 -34 62c-19 0 -29 -6 -47 -14l-25 7l26 99l-212 -5l-8 8l-2 35l8 7l16 -3c26 -5 60 -6 78 -6v640z" />
    <glyph glyph-name="tcedilla" unicode="&#x163;" horiz-adv-x="670" 
d="M120 453l-92 -5l-8 8v36l8 8h92c65 0 100 59 100 132l8 8h164l8 -8v-130c86 2 202 8 202 8l8 -8v-34l-8 -8h-202v-150c0 -80 -40 -167 -40 -220c0 -39 24 -60 70 -60c72 0 110 49 110 140l5 5h97l8 -8c0 -115 -87 -177 -230 -177c-18 0 -35 1 -52 3l-13 -55
c10 3 19 4 31 4c85 0 154 -43 154 -96c0 -47 -71 -86 -158 -86c-36 0 -70 17 -88 47l26 15c12 -20 35 -32 62 -32c23 0 38 24 38 60c0 37 -14 62 -34 62c-19 0 -29 -6 -47 -14l-25 7l24 92c-135 25 -218 112 -218 233v223z" />
    <glyph glyph-name="Tcaron" unicode="&#x164;" 
d="M404 800l-163 163l2 7l167 30l88 -160h4l88 160l167 -30l2 -7l-163 -163h-192zM340 680c-160 0 -212 -21 -274 -170l-50 3l-7 9l20 200l9 8s261 -10 341 -10h242c80 0 341 10 341 10l9 -8l20 -200l-7 -9l-50 -3c-62 149 -114 170 -274 170v-640c18 0 52 1 78 6l16 3l8 -7
l-2 -35l-8 -8l-252 6l-252 -6l-8 8l-2 35l8 7l16 -3c26 -5 60 -6 78 -6v640z" />
    <glyph glyph-name="tcaron" unicode="&#x165;" horiz-adv-x="800" 
d="M770 616c0 -58 -39 -127 -71 -159l-12 -1l-39 32v11c12 12 44 71 44 89h-54l-28 28v104l28 28h104l28 -28v-104zM552 508l8 -8v-32l-8 -8h-152v-150c0 -80 -40 -167 -40 -220c0 -39 24 -60 70 -60c72 0 110 49 110 140l5 5h97l8 -8c0 -115 -87 -177 -230 -177
c-183 0 -300 96 -300 240v223l-92 -5l-8 8v36l8 8h92c65 0 100 59 100 132l8 8h164l8 -8v-130c86 2 152 6 152 6z" />
    <glyph glyph-name="Tbar" unicode="&#x166;" 
d="M340 680c-160 0 -212 -21 -274 -170l-50 3l-7 9l20 200l9 8s261 -10 341 -10h242c80 0 341 10 341 10l9 -8l20 -200l-7 -9l-50 -3c-62 149 -114 170 -274 170v-280h112l8 -8v-24l-8 -8h-112v-320c18 0 52 1 78 6l16 3l8 -7l-2 -35l-8 -8l-252 6l-252 -6l-8 8l-2 35l8 7
l16 -3c26 -5 60 -6 78 -6v320h-112l-8 8v24l8 8h112v280z" />
    <glyph glyph-name="tbar" unicode="&#x167;" horiz-adv-x="670" 
d="M120 453l-92 -5l-8 8v36l8 8h92c65 0 100 59 100 132l8 8h164l8 -8v-130c86 2 202 8 202 8l8 -8v-34l-8 -8h-202v-100h132l8 -8v-24l-8 -8h-132v-10c0 -80 -40 -167 -40 -220c0 -39 24 -60 70 -60c72 0 110 49 110 140l5 5h97l8 -8c0 -115 -87 -177 -230 -177
c-183 0 -300 96 -300 240v90h-52l-8 8v24l8 8h52v93z" />
    <glyph glyph-name="Utilde" unicode="&#x168;" horiz-adv-x="1020" 
d="M375 831l5 29c12 62 41 127 118 127c81 0 119 -112 137 -115l23 110l9 7l119 -20l-6 -29c-12 -62 -41 -127 -118 -127c-81 0 -118 112 -136 115l-23 -110l-9 -7zM910 715l92 6l8 -8l2 -35l-8 -7c-4 1 -15 4 -24 4c-27 0 -70 -24 -70 -115v-341
c0 -143 -132 -239 -330 -239c-306 0 -470 84 -470 240v460c-18 0 -45 -1 -71 -6l-16 -3l-8 7l2 35l8 8l265 -6l212 6l8 -8l2 -35l-8 -7l-16 3c-26 5 -50 6 -58 6v-460c0 -124 52 -190 150 -190c168 0 280 76 280 190v240c0 180 -76 214 -134 214c-10 0 -21 -2 -26 -3l-8 7
l3 35l8 8z" />
    <glyph glyph-name="utilde" unicode="&#x169;" horiz-adv-x="1020" 
d="M325 651l5 29c12 62 41 127 118 127c81 0 119 -112 137 -115l23 110l9 7l119 -20l-6 -29c-12 -62 -41 -127 -118 -127c-81 0 -118 112 -136 115l-23 -110l-9 -7zM740 515l162 13l7 -7c-1 -8 -9 -69 -9 -81v-400c18 0 42 1 68 6l16 3l8 -7l-1 -34l-8 -8l-203 3l-126 -11
l-7 7c0 9 -2 136 -2 148h-3c-37 -103 -123 -157 -202 -157c-274 0 -286 120 -340 120v370c-18 0 -32 -1 -58 -6l-16 -3l-8 7l2 35l8 8l192 -6l162 13l7 -7c-1 -8 -9 -69 -9 -81v-270c0 -110 28 -140 80 -140c65 0 160 80 160 230v220c-18 0 -52 -1 -78 -6l-16 -3l-8 7l2 35
l8 8z" />
    <glyph glyph-name="Umacron" unicode="&#x16a;" horiz-adv-x="1020" 
d="M750 840h-360v120h360v-120zM910 715l92 6l8 -8l2 -35l-8 -7c-4 1 -15 4 -24 4c-27 0 -70 -24 -70 -115v-341c0 -143 -132 -239 -330 -239c-306 0 -470 84 -470 240v460c-18 0 -45 -1 -71 -6l-16 -3l-8 7l2 35l8 8l265 -6l212 6l8 -8l2 -35l-8 -7l-16 3
c-26 5 -50 6 -58 6v-460c0 -124 52 -190 150 -190c168 0 280 76 280 190v240c0 180 -76 214 -134 214c-10 0 -21 -2 -26 -3l-8 7l3 35l8 8z" />
    <glyph glyph-name="umacron" unicode="&#x16b;" horiz-adv-x="1020" 
d="M700 660h-360v120h360v-120zM740 515l162 13l7 -7c-1 -8 -9 -69 -9 -81v-400c18 0 42 1 68 6l16 3l8 -7l-1 -34l-8 -8l-203 3l-126 -11l-7 7c0 9 -2 136 -2 148h-3c-37 -103 -123 -157 -202 -157c-274 0 -286 120 -340 120v370c-18 0 -32 -1 -58 -6l-16 -3l-8 7l2 35l8 8
l192 -6l162 13l7 -7c-1 -8 -9 -69 -9 -81v-270c0 -110 28 -140 80 -140c65 0 160 80 160 230v220c-18 0 -52 -1 -78 -6l-16 -3l-8 7l2 35l8 8z" />
    <glyph glyph-name="Ubreve" unicode="&#x16c;" horiz-adv-x="1020" 
d="M377 990c41 -51 117 -60 193 -60s152 9 193 60l40 -22c-79 -97 -156 -158 -233 -158s-154 61 -233 158zM910 715l92 6l8 -8l2 -35l-8 -7c-4 1 -15 4 -24 4c-27 0 -70 -24 -70 -115v-341c0 -143 -132 -239 -330 -239c-306 0 -470 84 -470 240v460c-18 0 -45 -1 -71 -6
l-16 -3l-8 7l2 35l8 8l265 -6l212 6l8 -8l2 -35l-8 -7l-16 3c-26 5 -50 6 -58 6v-460c0 -124 52 -190 150 -190c168 0 280 76 280 190v240c0 180 -76 214 -134 214c-10 0 -21 -2 -26 -3l-8 7l3 35l8 8z" />
    <glyph glyph-name="ubreve" unicode="&#x16d;" horiz-adv-x="1020" 
d="M327 810c41 -51 117 -60 193 -60s152 9 193 60l40 -22c-79 -97 -156 -158 -233 -158s-154 61 -233 158zM740 515l162 13l7 -7c-1 -8 -9 -69 -9 -81v-400c18 0 42 1 68 6l16 3l8 -7l-1 -34l-8 -8l-203 3l-126 -11l-7 7c0 9 -2 136 -2 148h-3c-37 -103 -123 -157 -202 -157
c-274 0 -286 120 -340 120v370c-18 0 -32 -1 -58 -6l-16 -3l-8 7l2 35l8 8l192 -6l162 13l7 -7c-1 -8 -9 -69 -9 -81v-270c0 -110 28 -140 80 -140c65 0 160 80 160 230v220c-18 0 -52 -1 -78 -6l-16 -3l-8 7l2 35l8 8z" />
    <glyph glyph-name="Uring" unicode="&#x16e;" horiz-adv-x="1020" 
d="M570 1000c69 0 120 -56 120 -120c0 -69 -56 -120 -120 -120c-69 0 -120 56 -120 120c0 69 56 120 120 120zM570 960c-43 0 -80 -34 -80 -80c0 -43 34 -80 80 -80c43 0 80 34 80 80c0 43 -34 80 -80 80zM910 715l92 6l8 -8l2 -35l-8 -7c-4 1 -15 4 -24 4
c-27 0 -70 -24 -70 -115v-341c0 -143 -132 -239 -330 -239c-306 0 -470 84 -470 240v460c-18 0 -45 -1 -71 -6l-16 -3l-8 7l2 35l8 8l265 -6l212 6l8 -8l2 -35l-8 -7l-16 3c-26 5 -50 6 -58 6v-460c0 -124 52 -190 150 -190c168 0 280 76 280 190v240
c0 180 -76 214 -134 214c-10 0 -21 -2 -26 -3l-8 7l3 35l8 8z" />
    <glyph glyph-name="uring" unicode="&#x16f;" horiz-adv-x="1020" 
d="M520 820c69 0 120 -56 120 -120c0 -69 -56 -120 -120 -120c-69 0 -120 56 -120 120c0 69 56 120 120 120zM520 780c-43 0 -80 -34 -80 -80c0 -43 34 -80 80 -80c43 0 80 34 80 80c0 43 -34 80 -80 80zM740 515l162 13l7 -7c-1 -8 -9 -69 -9 -81v-400c18 0 42 1 68 6l16 3
l8 -7l-1 -34l-8 -8l-203 3l-126 -11l-7 7c0 9 -2 136 -2 148h-3c-37 -103 -123 -157 -202 -157c-274 0 -286 120 -340 120v370c-18 0 -32 -1 -58 -6l-16 -3l-8 7l2 35l8 8l192 -6l162 13l7 -7c-1 -8 -9 -69 -9 -81v-270c0 -110 28 -140 80 -140c65 0 160 80 160 230v220
c-18 0 -52 -1 -78 -6l-16 -3l-8 7l2 35l8 8z" />
    <glyph glyph-name="Uhungarumlaut" unicode="&#x170;" horiz-adv-x="1020" 
d="M686 781h-38l-5 7l105 222h207l25 -31zM366 781h-38l-5 7l105 222h207l25 -31zM910 715l92 6l8 -8l2 -35l-8 -7c-4 1 -15 4 -24 4c-27 0 -70 -24 -70 -115v-341c0 -143 -132 -239 -330 -239c-306 0 -470 84 -470 240v460c-18 0 -45 -1 -71 -6l-16 -3l-8 7l2 35l8 8
l265 -6l212 6l8 -8l2 -35l-8 -7l-16 3c-26 5 -50 6 -58 6v-460c0 -124 52 -190 150 -190c168 0 280 76 280 190v240c0 180 -76 214 -134 214c-10 0 -21 -2 -26 -3l-8 7l3 35l8 8z" />
    <glyph glyph-name="uhungarumlaut" unicode="&#x171;" horiz-adv-x="1020" 
d="M636 601h-38l-5 7l105 222h207l25 -31zM316 601h-38l-5 7l105 222h207l25 -31zM740 515l162 13l7 -7c-1 -8 -9 -69 -9 -81v-400c18 0 42 1 68 6l16 3l8 -7l-1 -34l-8 -8l-203 3l-126 -11l-7 7c0 9 -2 136 -2 148h-3c-37 -103 -123 -157 -202 -157
c-274 0 -286 120 -340 120v370c-18 0 -32 -1 -58 -6l-16 -3l-8 7l2 35l8 8l192 -6l162 13l7 -7c-1 -8 -9 -69 -9 -81v-270c0 -110 28 -140 80 -140c65 0 160 80 160 230v220c-18 0 -52 -1 -78 -6l-16 -3l-8 7l2 35l8 8z" />
    <glyph glyph-name="Uogonek" unicode="&#x172;" horiz-adv-x="1020" 
d="M110 680c-18 0 -45 -1 -71 -6l-16 -3l-8 7l2 35l8 8l265 -6l212 6l8 -8l2 -35l-8 -7l-16 3c-26 5 -50 6 -58 6v-460c0 -124 52 -190 150 -190c168 0 280 76 280 190v240c0 180 -76 214 -134 214c-10 0 -21 -2 -26 -3l-8 7l3 35l8 8l207 -6l92 6l8 -8l2 -35l-8 -7
c-4 1 -15 4 -24 4c-27 0 -70 -24 -70 -115v-341c0 -110 -78 -192 -204 -224c-44 -15 -150 -41 -150 -121c0 -43 30 -71 74 -71c26 0 58 7 72 23l11 1l10 -10l1 -10c-27 -32 -73 -47 -123 -47c-124 0 -206 39 -206 98c0 57 61 95 134 121v2c-273 9 -419 92 -419 239v460z" />
    <glyph glyph-name="uogonek" unicode="&#x173;" horiz-adv-x="1040" 
d="M760 515l162 13l7 -7c-1 -8 -9 -69 -9 -81v-400c18 0 42 1 68 6l16 3l8 -7l-1 -35c-52 -14 -164 -45 -164 -133c0 -43 25 -72 69 -72c26 0 58 8 72 24l11 1l10 -9l1 -12c-28 -32 -74 -46 -123 -46c-96 0 -202 51 -202 114c0 56 126 102 194 125v6h-59l-128 -11l-7 7
c0 8 -20 134 -20 146h-3c-37 -103 -123 -157 -202 -157c-274 0 -286 120 -340 120v370c-18 0 -52 -1 -78 -6l-16 -3l-8 7l2 35l8 8l212 -6l162 13l7 -7c-1 -8 -9 -69 -9 -81v-270c0 -110 28 -140 80 -140c65 0 160 80 160 230v220c-18 0 -52 -1 -78 -6l-16 -3l-8 7l2 35l8 8
z" />
    <glyph glyph-name="Wcircumflex" unicode="&#x174;" horiz-adv-x="1510" 
d="M704 1000h192l163 -163l-2 -7l-167 -30l-88 160h-4l-88 -160l-167 30l-2 7zM343 -10c0 8 -8 34 -22 70l-224 568c-13 33 -38 47 -82 47l-8 8v24l8 8l364 10h5c10 0 19 -6 19 -14c0 -16 7 -39 15 -59l210 -529h5l94 238c16 39 24 85 24 129c0 95 -37 184 -116 184
c-8 0 -15 -2 -23 -3l-8 7l4 35l8 7l192 -5l135 5l8 -7c3 -25 6 -42 15 -61l210 -529h5l94 238c16 39 24 85 24 129c0 95 -37 184 -116 184c-8 0 -15 -2 -23 -3l-8 7l4 35l8 7l192 -5l135 5l8 -7l3 -35c-42 -55 -146 -211 -186 -319l-134 -360l-8 -7l-283 -2
c0 8 -8 34 -22 70l-109 277l-126 -338l-8 -7z" />
    <glyph glyph-name="wcircumflex" unicode="&#x175;" horiz-adv-x="1280" 
d="M579 820h192l163 -163l-2 -7l-167 -30l-88 160h-4l-88 -160l-167 30l-2 7zM277 -10c0 8 -7 35 -22 70l-157 368c-14 33 -39 47 -83 47l-8 8v24l8 8l325 10h4c10 0 19 -6 19 -14c0 -16 8 -40 16 -59l160 -369h7l53 118c18 41 28 85 28 126c0 80 -37 147 -113 147
c-8 0 -15 -2 -23 -3l-8 7l4 35l8 8l172 -6l135 6l8 -8c9 -14 13 -24 29 -61l160 -369h7l53 118c18 41 28 85 28 126c0 80 -37 147 -113 147c-8 0 -15 -2 -23 -3l-8 7l4 35l8 8l172 -6l135 6l8 -8l3 -35c-42 -55 -140 -212 -186 -318l-69 -161l-8 -7l-273 -2
c0 8 -7 35 -22 70l-64 151c-9 -18 -17 -35 -24 -51l-69 -161l-8 -7z" />
    <glyph glyph-name="Ycircumflex" unicode="&#x176;" horiz-adv-x="980" 
d="M424 1000h192l163 -163l-2 -7l-167 -30l-88 160h-4l-88 -160l-167 30l-2 7zM640 241v-201c18 0 52 1 78 6l16 3l8 -7l-2 -35l-8 -8l-252 6l-252 -6l-8 8l-2 35l8 7l16 -3c26 -5 60 -6 78 -6v140c0 14 -1 37 -20 70l-205 378c-17 31 -36 47 -80 47l-8 8v24l8 8l360 10
c28 0 21 -37 41 -73l191 -339l6 -20h4l81 112c30 42 45 92 45 137c0 72 -37 132 -107 132c-8 0 -15 -2 -23 -3l-8 7l4 35l8 8l212 -6l135 6l8 -8l3 -35c-42 -55 -113 -103 -232 -282z" />
    <glyph glyph-name="ycircumflex" unicode="&#x177;" horiz-adv-x="830" 
d="M349 820h192l163 -163l-2 -7l-167 -30l-88 160h-4l-88 -160l-167 30l-2 7zM285 -10l-30 70l-157 368c-14 33 -39 47 -83 47l-8 8v24l8 8l323 10h1c14 0 24 -36 40 -73l160 -369h16l54 118c19 41 28 85 28 126c0 80 -37 147 -113 147c-8 0 -15 -2 -23 -3l-8 7l4 35l8 8
l172 -6l135 6l8 -8l3 -35c-42 -55 -139 -209 -187 -314l-75 -164c-76 -167 -161 -240 -411 -240h-37l-8 8l-21 87l20 8c29 -34 82 -52 140 -52c88 0 159 45 159 102c0 50 -55 77 -118 77z" />
    <glyph glyph-name="Ydieresis" unicode="&#x178;" horiz-adv-x="980" 
d="M570 952l28 28h104l28 -28v-104l-28 -28h-104l-28 28v104zM310 952l28 28h104l28 -28v-104l-28 -28h-104l-28 28v104zM640 241v-201c18 0 52 1 78 6l16 3l8 -7l-2 -35l-8 -8l-252 6l-252 -6l-8 8l-2 35l8 7l16 -3c26 -5 60 -6 78 -6v140c0 14 -1 37 -20 70l-205 378
c-17 31 -36 47 -80 47l-8 8v24l8 8l360 10c28 0 21 -37 41 -73l191 -339l6 -20h4l81 112c30 42 45 92 45 137c0 72 -37 132 -107 132c-8 0 -15 -2 -23 -3l-8 7l4 35l8 8l212 -6l135 6l8 -8l3 -35c-42 -55 -113 -103 -232 -282z" />
    <glyph glyph-name="Zacute" unicode="&#x179;" horiz-adv-x="940" 
d="M446 781h-38l-5 7l105 222h217l25 -31zM896 712v-21c-14 -13 -27 -29 -62 -79l-398 -508c-24 -30 -60 -62 -60 -62v-3c12 0 69 1 69 1h95c182 0 282 61 344 210l38 -3l-21 -249l-9 -8s-272 10 -352 10h-505l-8 8v17c5 10 29 49 61 90l386 491c24 31 66 72 66 72v3
l-140 -1c-182 -1 -272 -61 -334 -210l-38 3l21 249l9 8s262 -10 342 -10h488z" />
    <glyph glyph-name="zacute" unicode="&#x17a;" horiz-adv-x="800" 
d="M366 601h-38l-5 7l105 222h217l25 -31zM752 512v-21c-14 -13 -45 -33 -85 -79l-271 -308c-25 -29 -64 -63 -64 -63v-2c12 0 73 1 73 1h15c182 0 252 61 311 203l11 6l30 -2l-21 -249l-9 -8s-242 10 -322 10h-385l-8 8v17c5 10 27 51 61 90l259 291l73 72v3l-80 -1
c-182 -2 -212 -61 -271 -203l-11 -6l-30 2l21 249l9 8s202 -10 282 -10h404z" />
    <glyph glyph-name="Zdotaccent" unicode="&#x17b;" horiz-adv-x="940" 
d="M370 972l28 28h164l28 -28v-144l-28 -28h-164l-28 28v144zM896 712v-21c-14 -13 -27 -29 -62 -79l-398 -508c-24 -30 -60 -62 -60 -62v-3c12 0 69 1 69 1h95c182 0 282 61 344 210l38 -3l-21 -249l-9 -8s-272 10 -352 10h-505l-8 8v17c5 10 29 49 61 90l386 491
c24 31 66 72 66 72v3l-140 -1c-182 -1 -272 -61 -334 -210l-38 3l21 249l9 8s262 -10 342 -10h488z" />
    <glyph glyph-name="zdotaccent" unicode="&#x17c;" horiz-adv-x="800" 
d="M290 792l28 28h164l28 -28v-144l-28 -28h-164l-28 28v144zM752 512v-21c-14 -13 -45 -33 -85 -79l-271 -308c-25 -29 -64 -63 -64 -63v-2c12 0 73 1 73 1h15c182 0 252 61 311 203l11 6l30 -2l-21 -249l-9 -8s-242 10 -322 10h-385l-8 8v17c5 10 27 51 61 90l259 291
l73 72v3l-80 -1c-182 -2 -212 -61 -271 -203l-11 -6l-30 2l21 249l9 8s202 -10 282 -10h404z" />
    <glyph glyph-name="Zcaron" unicode="&#x17d;" horiz-adv-x="940" 
d="M384 800l-163 163l2 7l167 30l88 -160h4l88 160l167 -30l2 -7l-163 -163h-192zM896 712v-21c-14 -13 -27 -29 -62 -79l-398 -508c-24 -30 -60 -62 -60 -62v-3c12 0 69 1 69 1h95c182 0 282 61 344 210l38 -3l-21 -249l-9 -8s-272 10 -352 10h-505l-8 8v17
c5 10 29 49 61 90l386 491c24 31 66 72 66 72v3l-140 -1c-182 -1 -272 -61 -334 -210l-38 3l21 249l9 8s262 -10 342 -10h488z" />
    <glyph glyph-name="zcaron" unicode="&#x17e;" horiz-adv-x="800" 
d="M304 600l-163 163l2 7l167 30l88 -160h4l88 160l167 -30l2 -7l-163 -163h-192zM752 512v-21c-14 -13 -45 -33 -85 -79l-271 -308c-25 -29 -64 -63 -64 -63v-2c12 0 73 1 73 1h15c182 0 252 61 311 203l11 6l30 -2l-21 -249l-9 -8s-242 10 -322 10h-385l-8 8v17
c5 10 27 51 61 90l259 291l73 72v3l-80 -1c-182 -2 -212 -61 -271 -203l-11 -6l-30 2l21 249l9 8s202 -10 282 -10h404z" />
    <glyph glyph-name="uni01CD" unicode="&#x1cd;" horiz-adv-x="1010" 
d="M416 800l-163 163l2 7l167 30l88 -160h4l88 160l167 -30l2 -7l-163 -163h-192zM525 255c-33 2 -102 6 -132 6h-179c-12 -34 -18 -68 -18 -98c0 -67 31 -117 103 -117c8 0 15 2 23 3l8 -7l-4 -35l-8 -8l-162 6l-135 -6l-8 8l-3 35c93 122 216 343 291 518l69 161l50 -1
l241 10c0 -8 9 -34 22 -70l244 -568c14 -32 32 -53 67 -53l6 -8l-1 -24l-9 -8l-217 6l-199 -6l-8 8l-2 29l8 7c4 -1 14 -4 22 -4s14 8 14 17c0 4 -1 9 -2 12zM504 304l-128 293h-12l-129 -286c41 -4 128 -12 158 -12c24 0 75 3 111 5z" />
    <glyph glyph-name="uni01CE" unicode="&#x1ce;" horiz-adv-x="960" 
d="M324 620l-163 163l2 7l167 30l88 -160h4l88 160l167 -30l2 -7l-163 -163h-192zM840 39c18 0 42 1 68 6l16 3l8 -7l-1 -34l-8 -8l-183 6l-128 -11l-7 7c0 12 -20 136 -20 148h-3c-37 -104 -122 -159 -202 -159c-221 0 -340 94 -340 270s119 270 340 270
c82 0 130 -50 180 -50c61 0 110 31 120 47l162 -7l7 -7c-1 -8 -9 -69 -9 -81v-393zM560 440c-66 0 -113 50 -163 50s-77 -49 -77 -140v-180c0 -110 28 -140 80 -140c65 0 159 80 160 230v180z" />
    <glyph glyph-name="uni01CF" unicode="&#x1cf;" horiz-adv-x="560" 
d="M184 800l-163 163l2 7l167 30l88 -160h4l88 160l167 -30l2 -7l-163 -163h-192zM120 680c-18 0 -52 -1 -78 -6l-16 -3l-8 7l2 35l8 8l252 -6l252 6l8 -8l2 -35l-8 -7l-16 3c-26 5 -60 6 -78 6v-640c18 0 52 1 78 6l16 3l8 -7l-2 -35l-8 -8l-252 6l-252 -6l-8 8l-2 35l8 7
l16 -3c26 -5 60 -6 78 -6v640z" />
    <glyph glyph-name="uni01D0" unicode="&#x1d0;" horiz-adv-x="520" 
d="M164 620l-163 163l2 7l167 30l88 -160h4l88 160l167 -30l2 -7l-163 -163h-192zM120 480c-18 0 -42 -1 -68 -6l-16 -3l-8 7l1 34l8 8l223 -5l142 13l7 -7c-1 -8 -9 -69 -9 -81v-400c18 0 52 1 78 6l16 3l8 -7l-2 -35l-8 -8l-232 6l-232 -6l-8 8l-2 35l8 7l16 -3
c26 -5 60 -6 78 -6v440z" />
    <glyph glyph-name="uni01D1" unicode="&#x1d1;" horiz-adv-x="1020" 
d="M414 800l-163 163l2 7l167 30l88 -160h4l88 160l167 -30l2 -7l-163 -163h-192zM510 -10c-288 0 -480 148 -480 370s192 370 480 370s480 -148 480 -370s-192 -370 -480 -370zM530 35c102 0 140 91 140 325s-49 325 -180 325c-102 0 -140 -91 -140 -325s49 -325 180 -325z
" />
    <glyph glyph-name="uni01D2" unicode="&#x1d2;" horiz-adv-x="850" 
d="M324 620l-163 163l2 7l167 30l88 -160h4l88 160l167 -30l2 -7l-163 -163h-192zM425 -10c-240 0 -400 108 -400 270s160 270 400 270s400 -108 400 -270s-160 -270 -400 -270zM425 490c-52 0 -120 -30 -120 -140v-180c0 -110 68 -140 120 -140c53 0 120 30 120 140v180
c0 110 -67 140 -120 140z" />
    <glyph glyph-name="uni01D3" unicode="&#x1d3;" horiz-adv-x="1020" 
d="M474 800l-163 163l2 7l167 30l88 -160h4l88 160l167 -30l2 -7l-163 -163h-192zM910 715l92 6l8 -8l2 -35l-8 -7c-4 1 -15 4 -24 4c-27 0 -70 -24 -70 -115v-341c0 -143 -132 -239 -330 -239c-306 0 -470 84 -470 240v460c-18 0 -45 -1 -71 -6l-16 -3l-8 7l2 35l8 8
l265 -6l212 6l8 -8l2 -35l-8 -7l-16 3c-26 5 -50 6 -58 6v-460c0 -124 52 -190 150 -190c168 0 280 76 280 190v240c0 180 -76 214 -134 214c-10 0 -21 -2 -26 -3l-8 7l3 35l8 8z" />
    <glyph glyph-name="uni01D4" unicode="&#x1d4;" horiz-adv-x="1020" 
d="M424 620l-163 163l2 7l167 30l88 -160h4l88 160l167 -30l2 -7l-163 -163h-192zM740 515l162 13l7 -7c-1 -8 -9 -69 -9 -81v-400c18 0 42 1 68 6l16 3l8 -7l-1 -34l-8 -8l-203 3l-126 -11l-7 7c0 9 -2 136 -2 148h-3c-37 -103 -123 -157 -202 -157
c-274 0 -286 120 -340 120v370c-18 0 -32 -1 -58 -6l-16 -3l-8 7l2 35l8 8l192 -6l162 13l7 -7c-1 -8 -9 -69 -9 -81v-270c0 -110 28 -140 80 -140c65 0 160 80 160 230v220c-18 0 -52 -1 -78 -6l-16 -3l-8 7l2 35l8 8z" />
    <glyph glyph-name="uni01E2" unicode="&#x1e2;" horiz-adv-x="1360" 
d="M900 840h-360v120h360v-120zM560 40v215c-34 2 -137 6 -167 6h-179c-12 -34 -18 -68 -18 -98c0 -67 31 -117 103 -117c8 0 15 2 23 3l8 -7l-4 -35l-8 -8l-162 6l-135 -6l-8 8l-3 35c93 122 216 343 291 518l49 115c-37 -1 -67 -2 -75 -4l-16 -3l-8 7l2 42l8 8l460 -5
c79 0 521 10 521 10l9 -8l21 -208l-40 -3l-11 6c-59 142 -181 163 -341 163l-5 -280h15c72 0 103 95 127 136l11 3l31 -7v-304l-31 -7l-11 3c-24 41 -55 136 -127 136h-15l5 -320c182 0 356 81 402 222l10 7l42 -1l7 -9l-21 -269s-400 10 -480 10h-372l-8 8l-2 35l8 7l16 -3
c26 -5 60 -7 78 -7zM560 680c-9 0 -81 -1 -146 -3l-50 -80l-129 -286c41 -4 128 -12 158 -12c24 0 130 3 167 5v376z" />
    <glyph glyph-name="uni01E3" unicode="&#x1e3;" horiz-adv-x="1280" 
d="M860 660h-360v120h360v-120zM1255 255c0 0 -245 5 -285 5h-170c0 -150 53 -220 144 -220c100 0 190 43 230 87l11 1l25 -23l1 -11c-57 -63 -161 -104 -291 -104c-151 0 -287 82 -314 210h-6l-18 -51c-37 -104 -122 -159 -202 -159c-221 0 -340 94 -340 270
s119 270 340 270c82 0 130 -50 180 -50c61 0 70 31 80 47l52 -7l7 -7c-1 -5 -5 -34 -7 -56c60 47 110 73 228 73c204 0 340 -108 340 -270zM1039 299c-7 118 -48 181 -118 181c-69 0 -110 -59 -119 -169c35 -3 135 -13 168 -13c10 0 36 0 69 1zM560 440
c-66 0 -113 50 -163 50s-77 -49 -77 -140v-180c0 -110 28 -140 80 -140c65 0 159 80 160 230v180z" />
    <glyph glyph-name="Gcaron" unicode="&#x1e6;" horiz-adv-x="1020" 
d="M424 800l-163 163l2 7l167 30l88 -160h4l88 160l167 -30l2 -7l-163 -163h-192zM510 -10c-288 0 -480 157 -480 392c0 209 196 348 490 348c61 0 151 -20 209 -20c29 0 50 5 56 20h40l9 -8l21 -213h-63l-10 6c-41 143 -168 170 -222 170c-136 0 -210 -110 -210 -304
c0 -222 56 -341 160 -341c88 0 130 60 130 120v156l-162 -1l-8 8v29l8 8l242 -5l282 5l8 -8v-28l-8 -8h-82v-318l-8 -8h-152c0 45 -20 81 -45 81c-11 0 -22 -6 -33 -13c-52 -35 -106 -68 -172 -68z" />
    <glyph glyph-name="gcaron" unicode="&#x1e7;" horiz-adv-x="953" 
d="M344 620l-163 163l2 7l167 30l88 -160h4l88 160l167 -30l2 -7l-163 -163h-192zM560 80v180c-1 150 -95 225 -160 225c-52 0 -80 -30 -80 -140v-165c0 -104 27 -150 77 -150s97 50 163 50zM840 480v-420c0 -195 -147 -300 -420 -300c-80 0 -233 40 -300 40v97l8 8h107
l5 -5c0 -60 72 -100 180 -100c142 0 218 43 218 123c0 70 -31 117 -78 117c-50 0 -99 -50 -180 -50c-204 0 -340 108 -340 270c0 176 119 270 340 270c81 0 169 -57 204 -166l1 9c0 12 2 140 2 148l7 7l126 -11l203 3l8 -8l1 -34l-8 -7l-16 3c-26 5 -50 6 -68 6z" />
    <glyph glyph-name="uni01E8" unicode="&#x1e8;" horiz-adv-x="1120" 
d="M494 800l-163 163l2 7l167 30l88 -160h4l88 160l167 -30l2 -7l-163 -163h-192zM120 680c-18 0 -52 -1 -78 -6l-16 -3l-8 7l2 35l8 8l252 -3l222 3l8 -8l2 -31l-8 -7l-16 3c-12 2 -30 2 -48 2l-4 -270h36l204 246c4 4 5 9 5 14c0 13 -9 28 -9 47l8 8l372 -5l8 -8v-24
l-8 -8c-20 0 -79 -19 -128 -48l-406 -239v-2c18 -9 63 -13 113 -13c87 0 193 12 217 24l11 -4l141 -315c15 -34 39 -39 69 -39c15 0 51 1 51 1v-30l-355 -43c-2 0 -11 -1 -11 -1c-14 0 -38 16 -59 57l-120 240c-36 71 -84 94 -140 100l5 -328c18 0 52 1 78 6l16 3l8 -7
l-2 -35l-8 -8l-252 6l-252 -6l-8 8l-2 35l8 7l16 -3c26 -5 60 -6 78 -6v640z" />
    <glyph glyph-name="uni01E9" unicode="&#x1e9;" 
d="M364 800l-163 163l2 7l167 30l88 -160h4l88 160l167 -30l2 -7l-163 -163h-192zM120 700c-18 0 -42 -1 -68 -6l-16 -3l-8 7l1 34l8 8l203 -5l162 13l7 -7c-1 -8 -9 -69 -9 -81v-350h34l132 146c4 4 5 9 5 14c0 13 -9 28 -9 47l8 8l332 -5l8 -8v-24l-8 -8
c-20 0 -77 -24 -128 -48l-295 -141c20 -9 61 -13 107 -13c82 0 178 12 202 24l11 -4l81 -195c21 -48 59 -63 110 -63h10v-30l-342 -29c-14 0 -37 16 -58 57l-65 130c-35 69 -81 92 -135 99v-227c18 0 52 1 78 6l16 3l8 -7l-2 -35l-8 -8l-232 6l-232 -6l-8 8l-2 35l8 7l16 -3
c26 -5 60 -6 78 -6v660z" />
    <glyph glyph-name="uni01EA" unicode="&#x1ea;" horiz-adv-x="1020" 
d="M530 35c102 0 140 91 140 325s-49 325 -180 325c-102 0 -140 -91 -140 -325s49 -325 180 -325zM510 730c288 0 480 -148 480 -370c0 -192 -143 -328 -368 -362c-42 -15 -132 -44 -132 -124c0 -43 30 -71 74 -71c26 0 58 7 72 23l11 1l10 -10l1 -10
c-27 -32 -73 -47 -123 -47c-124 0 -206 39 -206 98c0 62 67 105 146 133c-269 11 -445 156 -445 369c0 222 192 370 480 370z" />
    <glyph glyph-name="uni01EB" unicode="&#x1eb;" horiz-adv-x="850" 
d="M425 490c-52 0 -120 -30 -120 -140v-180c0 -110 68 -140 120 -140c53 0 120 30 120 140v180c0 110 -67 140 -120 140zM425 530c240 0 400 -108 400 -270c0 -137 -114 -235 -294 -262c-42 -16 -131 -44 -131 -124c0 -43 30 -71 74 -71c26 0 58 7 72 23l11 1l10 -10l1 -10
c-27 -32 -73 -47 -123 -47c-124 0 -206 39 -206 98c0 63 68 105 147 133c-218 11 -361 116 -361 269c0 162 160 270 400 270z" />
    <glyph glyph-name="uni01EC" unicode="&#x1ec;" horiz-adv-x="1020" 
d="M690 790h-360v120h360v-120zM530 35c102 0 140 91 140 325s-49 325 -180 325c-102 0 -140 -91 -140 -325s49 -325 180 -325zM510 730c288 0 480 -148 480 -370c0 -192 -143 -328 -368 -362c-42 -15 -132 -44 -132 -124c0 -43 30 -71 74 -71c26 0 58 7 72 23l11 1l10 -10
l1 -10c-27 -32 -73 -47 -123 -47c-124 0 -206 39 -206 98c0 62 67 105 146 133c-269 11 -445 156 -445 369c0 222 192 370 480 370z" />
    <glyph glyph-name="uni01ED" unicode="&#x1ed;" horiz-adv-x="850" 
d="M600 590h-360v120h360v-120zM425 490c-52 0 -120 -30 -120 -140v-180c0 -110 68 -140 120 -140c53 0 120 30 120 140v180c0 110 -67 140 -120 140zM425 530c240 0 400 -108 400 -270c0 -137 -114 -235 -294 -262c-42 -16 -131 -44 -131 -124c0 -43 30 -71 74 -71
c26 0 58 7 72 23l11 1l10 -10l1 -10c-27 -32 -73 -47 -123 -47c-124 0 -206 39 -206 98c0 63 68 105 147 133c-218 11 -361 116 -361 269c0 162 160 270 400 270z" />
    <glyph glyph-name="uni01F0" unicode="&#x1f0;" horiz-adv-x="500" 
d="M164 620l-163 163l2 7l167 30l88 -160h4l88 160l167 -30l2 -7l-163 -163h-192zM120 50v430c-18 0 -42 -1 -68 -6l-16 -3l-8 7l1 34l8 8l203 -5l162 13l7 -7c-1 -8 -9 -69 -9 -81v-400c0 -182 -114 -280 -405 -280h-57l-8 8l1 55l8 7l36 -8c34 -8 66 -11 94 -11
c88 0 159 59 159 132c0 58 -39 97 -98 97z" />
    <glyph glyph-name="uni01F4" unicode="&#x1f4;" horiz-adv-x="1020" 
d="M486 781h-38l-5 7l105 222h217l25 -31zM510 -10c-288 0 -480 157 -480 392c0 209 196 348 490 348c61 0 151 -20 209 -20c29 0 50 5 56 20h40l9 -8l21 -213h-63l-10 6c-41 143 -168 170 -222 170c-136 0 -210 -110 -210 -304c0 -222 56 -341 160 -341
c88 0 130 60 130 120v156l-162 -1l-8 8v29l8 8l242 -5l282 5l8 -8v-28l-8 -8h-82v-318l-8 -8h-152c0 45 -20 81 -45 81c-11 0 -22 -6 -33 -13c-52 -35 -106 -68 -172 -68z" />
    <glyph glyph-name="uni01F5" unicode="&#x1f5;" horiz-adv-x="953" 
d="M406 601h-38l-5 7l105 222h217l25 -31zM560 80v180c-1 150 -95 225 -160 225c-52 0 -80 -30 -80 -140v-165c0 -104 27 -150 77 -150s97 50 163 50zM840 480v-420c0 -195 -147 -300 -420 -300c-80 0 -233 40 -300 40v97l8 8h107l5 -5c0 -60 72 -100 180 -100
c142 0 218 43 218 123c0 70 -31 117 -78 117c-50 0 -99 -50 -180 -50c-204 0 -340 108 -340 270c0 176 119 270 340 270c81 0 169 -57 204 -166l1 9c0 12 2 140 2 148l7 7l126 -11l203 3l8 -8l1 -34l-8 -7l-16 3c-26 5 -50 6 -68 6z" />
    <glyph glyph-name="uni01F8" unicode="&#x1f8;" 
d="M544 781l-294 198l25 31h217l105 -222l-5 -7h-48zM170 280c0 -180 96 -234 154 -234c10 0 18 1 26 3l8 -7l-3 -35l-8 -8l-217 6l-102 -6l-8 8l-2 35l8 7c5 -1 15 -3 22 -3c35 0 72 20 72 114v462c0 53 -21 68 -92 68l-8 8v14l8 8h423l378 -589h1v309
c0 180 -96 234 -154 234h-9l-17 -3l-8 7l3 35l8 8l217 -6l102 6l8 -8l2 -35l-8 -7c-8 3 -15 4 -24 4c-27 0 -70 -24 -70 -115v-560h-50h-274l-386 604v-324z" />
    <glyph glyph-name="uni01F9" unicode="&#x1f9;" horiz-adv-x="1040" 
d="M544 601l-294 198l25 31h217l105 -222l-5 -7h-48zM400 80c0 -12 8 -73 9 -81l-7 -7l-162 13l-212 -6l-8 8l-2 35l8 7l16 -3c26 -5 60 -6 78 -6v440c-18 0 -42 -1 -68 -6l-16 -3l-8 7l1 34l8 8l203 -3l126 11l7 -7c0 -8 2 -136 2 -148h3c37 103 123 157 202 157
c274 0 286 -120 340 -120v-370c18 0 52 1 78 6l16 3l8 -7l-2 -35l-8 -8l-212 6l-162 -13l-7 7c1 8 9 69 9 81v270c0 110 -28 140 -80 140c-65 0 -160 -80 -160 -230v-180z" />
    <glyph glyph-name="AEacute" unicode="&#x1fc;" horiz-adv-x="1360" 
d="M686 781h-38l-5 7l105 222h217l25 -31zM560 40v215c-34 2 -137 6 -167 6h-179c-12 -34 -18 -68 -18 -98c0 -67 31 -117 103 -117c8 0 15 2 23 3l8 -7l-4 -35l-8 -8l-162 6l-135 -6l-8 8l-3 35c93 122 216 343 291 518l49 115c-37 -1 -67 -2 -75 -4l-16 -3l-8 7l2 42l8 8
l460 -5c79 0 521 10 521 10l9 -8l21 -208l-40 -3l-11 6c-59 142 -181 163 -341 163l-5 -280h15c72 0 103 95 127 136l11 3l31 -7v-304l-31 -7l-11 3c-24 41 -55 136 -127 136h-15l5 -320c182 0 356 81 402 222l10 7l42 -1l7 -9l-21 -269s-400 10 -480 10h-372l-8 8l-2 35
l8 7l16 -3c26 -5 60 -7 78 -7zM560 680c-9 0 -81 -1 -146 -3l-50 -80l-129 -286c41 -4 128 -12 158 -12c24 0 130 3 167 5v376z" />
    <glyph glyph-name="aeacute" unicode="&#x1fd;" horiz-adv-x="1280" 
d="M646 601h-38l-5 7l105 222h217l25 -31zM1255 255c0 0 -245 5 -285 5h-170c0 -150 53 -220 144 -220c100 0 190 43 230 87l11 1l25 -23l1 -11c-57 -63 -161 -104 -291 -104c-151 0 -287 82 -314 210h-6l-18 -51c-37 -104 -122 -159 -202 -159c-221 0 -340 94 -340 270
s119 270 340 270c82 0 130 -50 180 -50c61 0 70 31 80 47l52 -7l7 -7c-1 -5 -5 -34 -7 -56c60 47 110 73 228 73c204 0 340 -108 340 -270zM1039 299c-7 118 -48 181 -118 181c-69 0 -110 -59 -119 -169c35 -3 135 -13 168 -13c10 0 36 0 69 1zM560 440
c-66 0 -113 50 -163 50s-77 -49 -77 -140v-180c0 -110 28 -140 80 -140c65 0 159 80 160 230v180z" />
    <glyph glyph-name="Oslashacute" unicode="&#x1fe;" 
d="M466 781h-38l-5 7l105 222h217l25 -31zM344 263l126 118l173 166c-24 97 -75 138 -163 138c-102 0 -140 -91 -140 -325c0 -36 2 -68 4 -97zM520 35c102 0 140 91 140 325c0 36 -2 68 -4 97l-141 -132l-158 -152c24 -97 75 -138 163 -138zM133 -43h-11l-44 46v12l79 73
c-87 65 -137 159 -137 272c0 222 192 370 480 370c106 0 199 -20 274 -56l93 89h11l44 -46v-12l-79 -73c87 -65 137 -159 137 -272c0 -222 -192 -370 -480 -370c-106 0 -199 20 -274 56z" />
    <glyph glyph-name="oslashacute" unicode="&#x1ff;" horiz-adv-x="840" 
d="M386 601h-38l-5 7l105 222h217l25 -31zM308 112c19 -63 71 -82 112 -82c53 0 120 30 120 140v146l-82 -70zM708 565l11 -1l42 -48l-1 -11l-54 -47c72 -47 114 -116 114 -198c0 -162 -160 -270 -400 -270c-80 0 -151 12 -210 34l-78 -69l-11 1l-42 48l1 11l54 47
c-72 47 -114 116 -114 198c0 162 160 270 400 270c80 0 152 -12 211 -34zM420 490c-52 0 -120 -30 -120 -140v-146l117 101l115 103c-19 63 -70 82 -112 82z" />
    <glyph glyph-name="uni0200" unicode="&#x200;" horiz-adv-x="1010" 
d="M386 781l-284 198l25 31h207l105 -222l-5 -7h-48zM706 781l-284 198l25 31h207l105 -222l-5 -7h-48zM525 255c-33 2 -102 6 -132 6h-179c-12 -34 -18 -68 -18 -98c0 -67 31 -117 103 -117c8 0 15 2 23 3l8 -7l-4 -35l-8 -8l-162 6l-135 -6l-8 8l-3 35
c93 122 216 343 291 518l69 161l50 -1l241 10c0 -8 9 -34 22 -70l244 -568c14 -32 32 -53 67 -53l6 -8l-1 -24l-9 -8l-217 6l-199 -6l-8 8l-2 29l8 7c4 -1 14 -4 22 -4s14 8 14 17c0 4 -1 9 -2 12zM504 304l-128 293h-12l-129 -286c41 -4 128 -12 158 -12c24 0 75 3 111 5z
" />
    <glyph glyph-name="uni0201" unicode="&#x201;" horiz-adv-x="960" 
d="M324 601l-284 198l25 31h207l105 -222l-5 -7h-48zM644 601l-284 198l25 31h207l105 -222l-5 -7h-48zM840 39c18 0 42 1 68 6l16 3l8 -7l-1 -34l-8 -8l-183 6l-128 -11l-7 7c0 12 -20 136 -20 148h-3c-37 -104 -122 -159 -202 -159c-221 0 -340 94 -340 270
s119 270 340 270c82 0 130 -50 180 -50c61 0 110 31 120 47l162 -7l7 -7c-1 -8 -9 -69 -9 -81v-393zM560 440c-66 0 -113 50 -163 50s-77 -49 -77 -140v-180c0 -110 28 -140 80 -140c65 0 159 80 160 230v180z" />
    <glyph glyph-name="uni0202" unicode="&#x202;" horiz-adv-x="1010" 
d="M319 810l-40 22c79 97 156 158 233 158s154 -61 233 -158l-40 -22c-41 51 -117 60 -193 60s-152 -9 -193 -60zM525 255c-33 2 -102 6 -132 6h-179c-12 -34 -18 -68 -18 -98c0 -67 31 -117 103 -117c8 0 15 2 23 3l8 -7l-4 -35l-8 -8l-162 6l-135 -6l-8 8l-3 35
c93 122 216 343 291 518l69 161l50 -1l241 10c0 -8 9 -34 22 -70l244 -568c14 -32 32 -53 67 -53l6 -8l-1 -24l-9 -8l-217 6l-199 -6l-8 8l-2 29l8 7c4 -1 14 -4 22 -4s14 8 14 17c0 4 -1 9 -2 12zM504 304l-128 293h-12l-129 -286c41 -4 128 -12 158 -12c24 0 75 3 111 5z
" />
    <glyph glyph-name="uni0203" unicode="&#x203;" horiz-adv-x="960" 
d="M257 630l-40 22c79 97 156 158 233 158s154 -61 233 -158l-40 -22c-41 51 -117 60 -193 60s-152 -9 -193 -60zM840 39c18 0 42 1 68 6l16 3l8 -7l-1 -34l-8 -8l-183 6l-128 -11l-7 7c0 12 -20 136 -20 148h-3c-37 -104 -122 -159 -202 -159c-221 0 -340 94 -340 270
s119 270 340 270c82 0 130 -50 180 -50c61 0 110 31 120 47l162 -7l7 -7c-1 -8 -9 -69 -9 -81v-393zM560 440c-66 0 -113 50 -163 50s-77 -49 -77 -140v-180c0 -110 28 -140 80 -140c65 0 159 80 160 230v180z" />
    <glyph glyph-name="uni0204" unicode="&#x204;" horiz-adv-x="960" 
d="M374 781l-284 198l25 31h207l105 -222l-5 -7h-48zM694 781l-284 198l25 31h207l105 -222l-5 -7h-48zM120 680c-18 0 -52 -2 -78 -7l-16 -3l-8 7l2 35l8 8h373c80 0 441 10 441 10l9 -8l21 -208l-40 -3l-11 6c-59 142 -221 163 -381 163l-5 -280h25c72 0 113 95 137 136
l11 3l31 -7v-304l-31 -7l-11 3c-24 41 -65 136 -137 136h-25l5 -320c182 0 395 81 442 222l10 7l42 -1l7 -9l-21 -269s-440 10 -520 10h-372l-8 8l-2 35l8 7l16 -3c26 -5 60 -7 78 -7v640z" />
    <glyph glyph-name="uni0205" unicode="&#x205;" horiz-adv-x="785" 
d="M294 601l-284 198l25 31h207l105 -222l-5 -7h-48zM614 601l-284 198l25 31h207l105 -222l-5 -7h-48zM544 299c-7 118 -48 191 -118 191c-69 0 -110 -69 -119 -179c35 -3 135 -13 168 -13c10 0 36 0 69 1zM760 255c0 0 -245 5 -285 5h-170c0 -150 53 -222 144 -222
c100 0 193 42 233 86l11 1l22 -20l1 -11c-57 -63 -161 -104 -291 -104c-240 0 -400 108 -400 270s162 270 400 270c204 0 340 -108 340 -270z" />
    <glyph glyph-name="uni0206" unicode="&#x206;" horiz-adv-x="960" 
d="M307 810l-40 22c79 97 156 158 233 158s154 -61 233 -158l-40 -22c-41 51 -117 60 -193 60s-152 -9 -193 -60zM120 680c-18 0 -52 -2 -78 -7l-16 -3l-8 7l2 35l8 8h373c80 0 441 10 441 10l9 -8l21 -208l-40 -3l-11 6c-59 142 -221 163 -381 163l-5 -280h25
c72 0 113 95 137 136l11 3l31 -7v-304l-31 -7l-11 3c-24 41 -65 136 -137 136h-25l5 -320c182 0 395 81 442 222l10 7l42 -1l7 -9l-21 -269s-440 10 -520 10h-372l-8 8l-2 35l8 7l16 -3c26 -5 60 -7 78 -7v640z" />
    <glyph glyph-name="uni0207" unicode="&#x207;" horiz-adv-x="785" 
d="M227 630l-40 22c79 97 156 158 233 158s154 -61 233 -158l-40 -22c-41 51 -117 60 -193 60s-152 -9 -193 -60zM544 299c-7 118 -48 191 -118 191c-69 0 -110 -69 -119 -179c35 -3 135 -13 168 -13c10 0 36 0 69 1zM760 255c0 0 -245 5 -285 5h-170
c0 -150 53 -222 144 -222c100 0 193 42 233 86l11 1l22 -20l1 -11c-57 -63 -161 -104 -291 -104c-240 0 -400 108 -400 270s162 270 400 270c204 0 340 -108 340 -270z" />
    <glyph glyph-name="uni0208" unicode="&#x208;" horiz-adv-x="560" 
d="M154 781l-284 198l25 31h207l105 -222l-5 -7h-48zM474 781l-284 198l25 31h207l105 -222l-5 -7h-48zM120 680c-18 0 -52 -1 -78 -6l-16 -3l-8 7l2 35l8 8l252 -6l252 6l8 -8l2 -35l-8 -7l-16 3c-26 5 -60 6 -78 6v-640c18 0 52 1 78 6l16 3l8 -7l-2 -35l-8 -8l-252 6
l-252 -6l-8 8l-2 35l8 7l16 -3c26 -5 60 -6 78 -6v640z" />
    <glyph glyph-name="uni0209" unicode="&#x209;" horiz-adv-x="520" 
d="M154 601l-264 198l25 31h187l105 -222l-5 -7h-48zM454 601l-264 198l25 31h187l105 -222l-5 -7h-48zM120 480c-18 0 -52 -1 -78 -6l-16 -3l-8 7l1 34l8 8l233 -5l142 13l7 -7c-1 -8 -9 -69 -9 -81v-400c18 0 52 1 78 6l16 3l8 -7l-2 -35l-8 -8l-232 6l-232 -6l-8 8l-2 35
l8 7l16 -3c26 -5 60 -6 78 -6v440z" />
    <glyph glyph-name="uni020A" unicode="&#x20a;" horiz-adv-x="560" 
d="M87 810l-40 22c79 97 156 158 233 158s154 -61 233 -158l-40 -22c-41 51 -117 60 -193 60s-152 -9 -193 -60zM120 680c-18 0 -52 -1 -78 -6l-16 -3l-8 7l2 35l8 8l252 -6l252 6l8 -8l2 -35l-8 -7l-16 3c-26 5 -60 6 -78 6v-640c18 0 52 1 78 6l16 3l8 -7l-2 -35l-8 -8
l-252 6l-252 -6l-8 8l-2 35l8 7l16 -3c26 -5 60 -6 78 -6v640z" />
    <glyph glyph-name="uni020B" unicode="&#x20b;" horiz-adv-x="520" 
d="M67 630l-40 22c79 97 156 158 233 158s154 -61 233 -158l-40 -22c-41 51 -117 60 -193 60s-152 -9 -193 -60zM120 480c-18 0 -42 -1 -68 -6l-16 -3l-8 7l1 34l8 8l223 -5l142 13l7 -7c-1 -8 -9 -69 -9 -81v-400c18 0 52 1 78 6l16 3l8 -7l-2 -35l-8 -8l-232 6l-232 -6
l-8 8l-2 35l8 7l16 -3c26 -5 60 -6 78 -6v440z" />
    <glyph glyph-name="uni020C" unicode="&#x20c;" horiz-adv-x="1020" 
d="M384 781l-284 198l25 31h207l105 -222l-5 -7h-48zM704 781l-284 198l25 31h207l105 -222l-5 -7h-48zM510 -10c-288 0 -480 148 -480 370s192 370 480 370s480 -148 480 -370s-192 -370 -480 -370zM530 35c102 0 140 91 140 325s-49 325 -180 325
c-102 0 -140 -91 -140 -325s49 -325 180 -325z" />
    <glyph glyph-name="uni020D" unicode="&#x20d;" horiz-adv-x="850" 
d="M294 601l-284 198l25 31h207l105 -222l-5 -7h-48zM614 601l-284 198l25 31h207l105 -222l-5 -7h-48zM425 -10c-240 0 -400 108 -400 270s160 270 400 270s400 -108 400 -270s-160 -270 -400 -270zM425 490c-52 0 -120 -30 -120 -140v-180c0 -110 68 -140 120 -140
c53 0 120 30 120 140v180c0 110 -67 140 -120 140z" />
    <glyph glyph-name="uni020E" unicode="&#x20e;" horiz-adv-x="1020" 
d="M317 810l-40 22c79 97 156 158 233 158s154 -61 233 -158l-40 -22c-41 51 -117 60 -193 60s-152 -9 -193 -60zM510 -10c-288 0 -480 148 -480 370s192 370 480 370s480 -148 480 -370s-192 -370 -480 -370zM530 35c102 0 140 91 140 325s-49 325 -180 325
c-102 0 -140 -91 -140 -325s49 -325 180 -325z" />
    <glyph glyph-name="uni020F" unicode="&#x20f;" horiz-adv-x="850" 
d="M227 630l-40 22c79 97 156 158 233 158s154 -61 233 -158l-40 -22c-41 51 -117 60 -193 60s-152 -9 -193 -60zM425 -10c-240 0 -400 108 -400 270s160 270 400 270s400 -108 400 -270s-160 -270 -400 -270zM425 490c-52 0 -120 -30 -120 -140v-180
c0 -110 68 -140 120 -140c53 0 120 30 120 140v180c0 110 -67 140 -120 140z" />
    <glyph glyph-name="uni0210" unicode="&#x210;" horiz-adv-x="1080" 
d="M344 781l-284 198l25 31h207l105 -222l-5 -7h-48zM664 781l-284 198l25 31h207l105 -222l-5 -7h-48zM120 682c-18 0 -50 -2 -76 -7l-18 -4l-8 6l2 35l8 8l692 10c156 0 260 -84 260 -210c0 -134 -178 -228 -326 -230v-3c24 -16 139 -36 245 -36l51 -148
c15 -44 55 -60 102 -60c9 0 28 2 28 2v-30l-356 -43l-11 -1c-14 0 -38 16 -59 57l-75 172c-34 78 -69 91 -144 93l5 -253c18 0 52 1 78 6l16 3l8 -7l-2 -35l-8 -8l-252 6l-252 -6l-8 8l-2 35l8 7l16 -3c26 -5 60 -6 78 -6v642zM440 686l-5 -352l25 -1c130 0 200 65 200 187
c0 109 -70 167 -200 167z" />
    <glyph glyph-name="uni0211" unicode="&#x211;" horiz-adv-x="780" 
d="M294 601l-284 198l25 31h207l105 -222l-5 -7h-48zM614 601l-284 198l25 31h207l105 -222l-5 -7h-48zM120 480c-18 0 -42 -1 -68 -6l-16 -3l-8 7l1 34l8 8l203 -3l128 11l7 -7c-1 -8 -3 -216 -3 -228h3c34 137 123 257 205 257h172l8 -8v-134l-48 -48h-144l-8 8v112
c-65 0 -160 -150 -160 -300v-140c18 0 52 1 78 6l16 3l8 -7l-2 -35l-8 -8l-232 6l-232 -6l-8 8l-2 35l8 7l16 -3c26 -5 60 -6 78 -6v440z" />
    <glyph glyph-name="uni0212" unicode="&#x212;" horiz-adv-x="1080" 
d="M277 810l-40 22c79 97 156 158 233 158s154 -61 233 -158l-40 -22c-41 51 -117 60 -193 60s-152 -9 -193 -60zM120 682c-18 0 -50 -2 -76 -7l-18 -4l-8 6l2 35l8 8l692 10c156 0 260 -84 260 -210c0 -134 -178 -228 -326 -230v-3c24 -16 139 -36 245 -36l51 -148
c15 -44 55 -60 102 -60c9 0 28 2 28 2v-30l-356 -43l-11 -1c-14 0 -38 16 -59 57l-75 172c-34 78 -69 91 -144 93l5 -253c18 0 52 1 78 6l16 3l8 -7l-2 -35l-8 -8l-252 6l-252 -6l-8 8l-2 35l8 7l16 -3c26 -5 60 -6 78 -6v642zM440 686l-5 -352l25 -1c130 0 200 65 200 187
c0 109 -70 167 -200 167z" />
    <glyph glyph-name="uni0213" unicode="&#x213;" horiz-adv-x="780" 
d="M247 630l-40 22c79 97 156 158 233 158s154 -61 233 -158l-40 -22c-41 51 -117 60 -193 60s-152 -9 -193 -60zM120 480c-18 0 -42 -1 -68 -6l-16 -3l-8 7l1 34l8 8l203 -3l128 11l7 -7c-1 -8 -3 -216 -3 -228h3c34 137 123 257 205 257h172l8 -8v-134l-48 -48h-144l-8 8
v112c-65 0 -160 -150 -160 -300v-140c18 0 52 1 78 6l16 3l8 -7l-2 -35l-8 -8l-232 6l-232 -6l-8 8l-2 35l8 7l16 -3c26 -5 60 -6 78 -6v440z" />
    <glyph glyph-name="uni0214" unicode="&#x214;" horiz-adv-x="1020" 
d="M444 781l-284 198l25 31h207l105 -222l-5 -7h-48zM764 781l-284 198l25 31h207l105 -222l-5 -7h-48zM910 715l92 6l8 -8l2 -35l-8 -7c-4 1 -15 4 -24 4c-27 0 -70 -24 -70 -115v-341c0 -143 -132 -239 -330 -239c-306 0 -470 84 -470 240v460c-18 0 -45 -1 -71 -6l-16 -3
l-8 7l2 35l8 8l265 -6l212 6l8 -8l2 -35l-8 -7l-16 3c-26 5 -50 6 -58 6v-460c0 -124 52 -190 150 -190c168 0 280 76 280 190v240c0 180 -76 214 -134 214c-10 0 -21 -2 -26 -3l-8 7l3 35l8 8z" />
    <glyph glyph-name="uni0215" unicode="&#x215;" horiz-adv-x="1020" 
d="M394 601l-284 198l25 31h207l105 -222l-5 -7h-48zM714 601l-284 198l25 31h207l105 -222l-5 -7h-48zM740 515l162 13l7 -7c-1 -8 -9 -69 -9 -81v-400c18 0 42 1 68 6l16 3l8 -7l-1 -34l-8 -8l-203 3l-126 -11l-7 7c0 9 -2 136 -2 148h-3c-37 -103 -123 -157 -202 -157
c-274 0 -286 120 -340 120v370c-18 0 -32 -1 -58 -6l-16 -3l-8 7l2 35l8 8l192 -6l162 13l7 -7c-1 -8 -9 -69 -9 -81v-270c0 -110 28 -140 80 -140c65 0 160 80 160 230v220c-18 0 -52 -1 -78 -6l-16 -3l-8 7l2 35l8 8z" />
    <glyph glyph-name="uni0216" unicode="&#x216;" horiz-adv-x="1020" 
d="M377 810l-40 22c79 97 156 158 233 158s154 -61 233 -158l-40 -22c-41 51 -117 60 -193 60s-152 -9 -193 -60zM910 715l92 6l8 -8l2 -35l-8 -7c-4 1 -15 4 -24 4c-27 0 -70 -24 -70 -115v-341c0 -143 -132 -239 -330 -239c-306 0 -470 84 -470 240v460
c-18 0 -45 -1 -71 -6l-16 -3l-8 7l2 35l8 8l265 -6l212 6l8 -8l2 -35l-8 -7l-16 3c-26 5 -50 6 -58 6v-460c0 -124 52 -190 150 -190c168 0 280 76 280 190v240c0 180 -76 214 -134 214c-10 0 -21 -2 -26 -3l-8 7l3 35l8 8z" />
    <glyph glyph-name="uni0217" unicode="&#x217;" horiz-adv-x="1020" 
d="M327 630l-40 22c79 97 156 158 233 158s154 -61 233 -158l-40 -22c-41 51 -117 60 -193 60s-152 -9 -193 -60zM740 515l162 13l7 -7c-1 -8 -9 -69 -9 -81v-400c18 0 42 1 68 6l16 3l8 -7l-1 -34l-8 -8l-203 3l-126 -11l-7 7c0 9 -2 136 -2 148h-3
c-37 -103 -123 -157 -202 -157c-274 0 -286 120 -340 120v370c-18 0 -32 -1 -58 -6l-16 -3l-8 7l2 35l8 8l192 -6l162 13l7 -7c-1 -8 -9 -69 -9 -81v-270c0 -110 28 -140 80 -140c65 0 160 80 160 230v220c-18 0 -52 -1 -78 -6l-16 -3l-8 7l2 35l8 8z" />
    <glyph glyph-name="Scommaaccent" unicode="&#x218;" horiz-adv-x="905" 
d="M510 -162c0 -56 -33 -112 -54 -139l-12 -1l-42 32v11c9 13 30 53 30 69h-44l-28 28v64l28 28h94l28 -28v-64zM36 241h51l14 -8c60 -144 219 -203 329 -203c167 0 249 37 249 78c0 67 -167 91 -323 134s-311 107 -311 253c0 121 148 235 395 235c93 0 176 -22 229 -22
c27 0 46 5 55 22h65l9 -8l20 -220h-55l-10 6c-60 144 -241 182 -312 182c-125 0 -184 -36 -184 -74c0 -62 158 -73 313 -122c151 -48 310 -98 310 -260c0 -158 -174 -244 -450 -244c-89 0 -191 35 -252 35c-21 0 -38 -4 -47 -15h-65l-9 8z" />
    <glyph glyph-name="scommaaccent" unicode="&#x219;" horiz-adv-x="720" 
d="M415 -162c0 -56 -33 -112 -54 -139l-12 -1l-42 32v11c9 13 30 53 30 69h-44l-28 28v64l28 28h94l28 -28v-64zM35 172l33 2l5 -4c47 -103 187 -140 262 -140c132 0 186 21 186 50c0 48 -121 64 -245 95c-123 31 -246 77 -246 182c0 87 116 173 312 173
c49 0 118 -18 169 -18c25 0 46 5 57 18h39l6 -5l16 -163l-30 -2l-8 5c-47 103 -192 125 -248 125c-99 0 -137 -18 -137 -45c0 -44 117 -53 240 -88c120 -34 245 -71 245 -188c0 -114 -137 -179 -356 -179c-74 0 -166 25 -217 25c-15 0 -26 -2 -32 -7h-29l-6 6z" />
    <glyph glyph-name="uni021A" unicode="&#x21a;" 
d="M580 -162c0 -56 -33 -112 -54 -139l-12 -1l-42 32v11c9 13 30 53 30 69h-44l-28 28v64l28 28h94l28 -28v-64zM340 680c-160 0 -212 -21 -274 -170l-50 3l-7 9l20 200l9 8s261 -10 341 -10h242c80 0 341 10 341 10l9 -8l20 -200l-7 -9l-50 -3c-62 149 -114 170 -274 170
v-640c18 0 52 1 78 6l16 3l8 -7l-2 -35l-8 -8l-252 6l-252 -6l-8 8l-2 35l8 7l16 -3c26 -5 60 -6 78 -6v640z" />
    <glyph glyph-name="tcommaacc" unicode="&#x21b;" horiz-adv-x="670" 
d="M500 -162c0 -56 -33 -112 -54 -139l-12 -1l-42 32v11c9 13 30 53 30 69h-44l-28 28v64l28 28h94l28 -28v-64zM120 453l-92 -5l-8 8v36l8 8h92c65 0 100 59 100 132l8 8h164l8 -8v-130c86 2 202 8 202 8l8 -8v-34l-8 -8h-202v-150c0 -80 -40 -167 -40 -220
c0 -39 24 -60 70 -60c72 0 110 49 110 140l5 5h97l8 -8c0 -115 -87 -177 -230 -177c-183 0 -300 96 -300 240v223z" />
    <glyph glyph-name="uni021E" unicode="&#x21e;" horiz-adv-x="1160" 
d="M484 800l-163 163l2 7l167 30l88 -160h4l88 160l167 -30l2 -7l-163 -163h-192zM120 680c-18 0 -52 -1 -78 -6l-16 -3l-8 7l2 35l8 8l252 -6l242 6l8 -8l2 -35l-8 -7l-16 3c-26 5 -60 6 -68 6l-3 -277c60 -2 123 -4 143 -4s85 2 145 4l-5 277c-8 0 -42 -1 -68 -6l-16 -3
l-8 7l2 35l8 8l242 -6l252 6l8 -8l2 -35l-8 -7l-16 3c-26 5 -60 6 -78 6v-640c18 0 52 1 78 6l16 3l8 -7l-2 -35l-8 -8l-252 6l-242 -6l-8 8l-2 35l8 7l16 -3c26 -5 60 -6 68 -6l5 318c-60 2 -125 3 -145 3s-83 -1 -143 -3l3 -318c8 0 42 1 68 6l16 3l8 -7l-2 -35l-8 -8
l-242 6l-252 -6l-8 8l-2 35l8 7l16 -3c26 -5 60 -6 78 -6v640z" />
    <glyph glyph-name="uni021F" unicode="&#x21f;" horiz-adv-x="1040" 
d="M384 800l-163 163l2 7l167 30l88 -160h4l88 160l167 -30l2 -7l-163 -163h-192zM400 80c0 -12 8 -73 9 -81l-7 -7l-162 13l-212 -6l-8 8l-2 35l8 7l16 -3c26 -5 60 -6 78 -6v660c-18 0 -42 -1 -68 -6l-16 -3l-8 7l1 34l8 8l223 -5l142 13l7 -7c-1 -8 -9 -69 -9 -81
l-5 -248h2c41 76 115 118 183 118c274 0 286 -120 340 -120v-370c18 0 52 1 78 6l16 3l8 -7l-2 -35l-8 -8l-212 6l-162 -13l-7 7c1 8 9 69 9 81v270c0 110 -28 140 -80 140c-65 0 -160 -80 -160 -230v-180z" />
    <glyph glyph-name="uni0226" unicode="&#x226;" horiz-adv-x="1010" 
d="M402 972l28 28h164l28 -28v-144l-28 -28h-164l-28 28v144zM525 255c-33 2 -102 6 -132 6h-179c-12 -34 -18 -68 -18 -98c0 -67 31 -117 103 -117c8 0 15 2 23 3l8 -7l-4 -35l-8 -8l-162 6l-135 -6l-8 8l-3 35c93 122 216 343 291 518l69 161l50 -1l241 10
c0 -8 9 -34 22 -70l244 -568c14 -32 32 -53 67 -53l6 -8l-1 -24l-9 -8l-217 6l-199 -6l-8 8l-2 29l8 7c4 -1 14 -4 22 -4s14 8 14 17c0 4 -1 9 -2 12zM504 304l-128 293h-12l-129 -286c41 -4 128 -12 158 -12c24 0 75 3 111 5z" />
    <glyph glyph-name="uni0227" unicode="&#x227;" horiz-adv-x="960" 
d="M320 792l28 28h164l28 -28v-144l-28 -28h-164l-28 28v144zM840 39c18 0 42 1 68 6l16 3l8 -7l-1 -34l-8 -8l-183 6l-128 -11l-7 7c0 12 -20 136 -20 148h-3c-37 -104 -122 -159 -202 -159c-221 0 -340 94 -340 270s119 270 340 270c82 0 130 -50 180 -50
c61 0 110 31 120 47l162 -7l7 -7c-1 -8 -9 -69 -9 -81v-393zM560 440c-66 0 -113 50 -163 50s-77 -49 -77 -140v-180c0 -110 28 -140 80 -140c65 0 159 80 160 230v180z" />
    <glyph glyph-name="uni0228" unicode="&#x228;" horiz-adv-x="960" 
d="M120 680c-18 0 -52 -2 -78 -7l-16 -3l-8 7l2 35l8 8h373c80 0 441 10 441 10l9 -8l21 -208l-40 -3l-11 6c-59 142 -221 163 -381 163l-5 -280h25c72 0 113 95 137 136l11 3l31 -7v-304l-31 -7l-11 3c-24 41 -65 136 -137 136h-25l5 -320c182 0 395 81 442 222l10 7l42 -1
l7 -9l-21 -269s-275 6 -430 9l-15 -61c10 3 19 4 31 4c85 0 154 -43 154 -96c0 -47 -71 -86 -158 -86c-36 0 -70 17 -88 47l26 15c12 -20 35 -32 62 -32c23 0 38 24 38 60c0 37 -14 62 -34 62c-19 0 -29 -6 -47 -14l-25 7l25 94c-26 0 -47 1 -59 1h-372l-8 8l-2 35l8 7
l16 -3c26 -5 60 -7 78 -7v640z" />
    <glyph glyph-name="uni0229" unicode="&#x229;" horiz-adv-x="785" 
d="M760 255c0 0 -245 5 -285 5h-170c0 -150 53 -222 144 -222c100 0 193 42 233 86l11 1l22 -20l1 -11c-57 -63 -161 -104 -291 -104h-17l-13 -52c10 3 19 4 31 4c85 0 154 -43 154 -96c0 -47 -71 -86 -158 -86c-36 0 -70 17 -88 47l26 15c12 -20 35 -32 62 -32
c23 0 38 24 38 60c0 37 -14 62 -34 62c-19 0 -29 -6 -47 -14l-25 7l23 87c-213 14 -352 117 -352 268c0 162 162 270 400 270c204 0 340 -108 340 -270zM544 299c-7 118 -48 191 -118 191c-69 0 -110 -69 -119 -179c35 -3 135 -13 168 -13c10 0 36 0 69 1z" />
    <glyph glyph-name="uni022E" unicode="&#x22e;" horiz-adv-x="1020" 
d="M400 972l28 28h164l28 -28v-144l-28 -28h-164l-28 28v144zM510 -10c-288 0 -480 148 -480 370s192 370 480 370s480 -148 480 -370s-192 -370 -480 -370zM530 35c102 0 140 91 140 325s-49 325 -180 325c-102 0 -140 -91 -140 -325s49 -325 180 -325z" />
    <glyph glyph-name="uni022F" unicode="&#x22f;" horiz-adv-x="850" 
d="M310 792l28 28h164l28 -28v-144l-28 -28h-164l-28 28v144zM425 -10c-240 0 -400 108 -400 270s160 270 400 270s400 -108 400 -270s-160 -270 -400 -270zM425 490c-52 0 -120 -30 -120 -140v-180c0 -110 68 -140 120 -140c53 0 120 30 120 140v180
c0 110 -67 140 -120 140z" />
    <glyph glyph-name="uni0232" unicode="&#x232;" horiz-adv-x="980" 
d="M700 840h-360v120h360v-120zM640 241v-201c18 0 52 1 78 6l16 3l8 -7l-2 -35l-8 -8l-252 6l-252 -6l-8 8l-2 35l8 7l16 -3c26 -5 60 -6 78 -6v140c0 14 -1 37 -20 70l-205 378c-17 31 -36 47 -80 47l-8 8v24l8 8l360 10c28 0 21 -37 41 -73l191 -339l6 -20h4l81 112
c30 42 45 92 45 137c0 72 -37 132 -107 132c-8 0 -15 -2 -23 -3l-8 7l4 35l8 8l212 -6l135 6l8 -8l3 -35c-42 -55 -113 -103 -232 -282z" />
    <glyph glyph-name="uni0233" unicode="&#x233;" horiz-adv-x="830" 
d="M630 660h-360v120h360v-120zM285 -10l-30 70l-157 368c-14 33 -39 47 -83 47l-8 8v24l8 8l323 10h1c14 0 24 -36 40 -73l160 -369h16l54 118c19 41 28 85 28 126c0 80 -37 147 -113 147c-8 0 -15 -2 -23 -3l-8 7l4 35l8 8l172 -6l135 6l8 -8l3 -35
c-42 -55 -139 -209 -187 -314l-75 -164c-76 -167 -161 -240 -411 -240h-37l-8 8l-21 87l20 8c29 -34 82 -52 140 -52c88 0 159 45 159 102c0 50 -55 77 -118 77z" />
    <glyph glyph-name="uni0237" unicode="&#x237;" horiz-adv-x="500" 
d="M120 50v430c-18 0 -42 -1 -68 -6l-16 -3l-8 7l1 34l8 8l203 -5l162 13l7 -7c-1 -8 -9 -69 -9 -81v-400c0 -182 -114 -280 -405 -280h-57l-8 8l1 55l8 7l36 -8c34 -8 66 -11 94 -11c88 0 159 59 159 132c0 58 -39 97 -98 97z" />
    <glyph glyph-name="circumflex" unicode="&#x2c6;" horiz-adv-x="560" 
d="M184 820h192l163 -163l-2 -7l-167 -30l-88 160h-4l-88 -160l-167 30l-2 7z" />
    <glyph glyph-name="caron" unicode="&#x2c7;" horiz-adv-x="560" 
d="M184 620l-163 163l2 7l167 30l88 -160h4l88 160l167 -30l2 -7l-163 -163h-192z" />
    <glyph glyph-name="uni02C9" unicode="&#x2c9;" horiz-adv-x="440" 
d="M400 660h-360v120h360v-120z" />
    <glyph glyph-name="uni02CA" unicode="&#x2ca;" horiz-adv-x="400" 
d="M71 601h-38l-5 7l105 222h217l25 -31z" />
    <glyph glyph-name="uni02CB" unicode="&#x2cb;" horiz-adv-x="400" 
d="M319 601l-294 198l25 31h217l105 -222l-5 -7h-48z" />
    <glyph glyph-name="breve" unicode="&#x2d8;" horiz-adv-x="520" 
d="M67 810c41 -51 117 -60 193 -60s152 9 193 60l40 -22c-79 -97 -156 -158 -233 -158s-154 61 -233 158z" />
    <glyph glyph-name="dotaccent" unicode="&#x2d9;" horiz-adv-x="340" 
d="M60 792l28 28h164l28 -28v-144l-28 -28h-164l-28 28v144z" />
    <glyph glyph-name="ring" unicode="&#x2da;" horiz-adv-x="280" 
d="M140 820c69 0 120 -56 120 -120c0 -69 -56 -120 -120 -120c-69 0 -120 56 -120 120c0 69 56 120 120 120zM140 780c-43 0 -80 -34 -80 -80c0 -43 34 -80 80 -80c43 0 80 34 80 80c0 43 -34 80 -80 80z" />
    <glyph glyph-name="ogonek" unicode="&#x2db;" horiz-adv-x="380" 
d="M301 28l8 -28c-39 -15 -137 -42 -137 -126c0 -43 30 -71 74 -71c26 0 58 7 72 23l11 1l10 -10l1 -10c-27 -32 -73 -47 -123 -47c-124 0 -206 39 -206 98c0 100 173 148 290 170z" />
    <glyph glyph-name="tilde" unicode="&#x2dc;" horiz-adv-x="439" 
d="M24 651l5 29c12 62 41 127 118 127c81 0 119 -112 137 -115l23 110l9 7l119 -20l-6 -29c-12 -62 -41 -127 -118 -127c-81 0 -118 112 -136 115l-23 -110l-9 -7z" />
    <glyph glyph-name="hungarumlaut" unicode="&#x2dd;" horiz-adv-x="717" 
d="M393 601h-38l-5 7l105 222h207l25 -31zM73 601h-38l-5 7l105 222h207l25 -31z" />
    <glyph glyph-name="uni02F5" unicode="&#x2f5;" horiz-adv-x="720" 
d="M314 601l-284 198l25 31h207l105 -222l-5 -7h-48zM634 601l-284 198l25 31h207l105 -222l-5 -7h-48z" />
    <glyph glyph-name="gravecomb" unicode="&#x300;" horiz-adv-x="0" 
d="M-86 601l-294 198l25 31h217l105 -222l-5 -7h-48z" />
    <glyph glyph-name="acutecomb" unicode="&#x301;" horiz-adv-x="0" 
d="M-334 601h-38l-5 7l105 222h217l25 -31z" />
    <glyph glyph-name="uni0302" unicode="&#x302;" horiz-adv-x="0" 
d="M-376 820h192l163 -163l-2 -7l-167 -30l-88 160h-4l-88 -160l-167 30l-2 7z" />
    <glyph glyph-name="tildecomb" unicode="&#x303;" horiz-adv-x="0" 
d="M-415 651l5 29c12 62 41 127 118 127c81 0 119 -112 137 -115l23 110l9 7l119 -20l-6 -29c-12 -62 -41 -127 -118 -127c-81 0 -118 112 -136 115l-23 -110l-9 -7z" />
    <glyph glyph-name="uni0304" unicode="&#x304;" horiz-adv-x="0" 
d="M-40 660h-360v120h360v-120z" />
    <glyph glyph-name="uni0305" unicode="&#x305;" horiz-adv-x="0" 
d="M-40 660h-480v120h480v-120z" />
    <glyph glyph-name="uni0306" unicode="&#x306;" horiz-adv-x="0" 
d="M-446 810c41 -51 117 -60 193 -60s152 9 193 60l40 -22c-79 -97 -156 -158 -233 -158s-154 61 -233 158z" />
    <glyph glyph-name="uni0307" unicode="&#x307;" horiz-adv-x="0" 
d="M-280 792l28 28h164l28 -28v-144l-28 -28h-164l-28 28v144z" />
    <glyph glyph-name="uni0308" unicode="&#x308;" horiz-adv-x="0" 
d="M-190 772l28 28h104l28 -28v-104l-28 -28h-104l-28 28v104zM-450 772l28 28h104l28 -28v-104l-28 -28h-104l-28 28v104z" />
    <glyph glyph-name="hookabovecomb" unicode="&#x309;" horiz-adv-x="160" 
d="M30 670c0 28 22 50 50 50s50 -22 50 -50s-22 -50 -50 -50s-50 22 -50 50z" />
    <glyph glyph-name="uni030A" unicode="&#x30a;" horiz-adv-x="0" 
d="M-140 820c69 0 120 -56 120 -120c0 -69 -56 -120 -120 -120c-69 0 -120 56 -120 120c0 69 56 120 120 120zM-140 780c-43 0 -80 -34 -80 -80c0 -43 34 -80 80 -80c43 0 80 34 80 80c0 43 -34 80 -80 80z" />
    <glyph glyph-name="uni030B" unicode="&#x30b;" horiz-adv-x="0" 
d="M-324 601h-38l-5 7l105 222h207l25 -31zM-644 601h-38l-5 7l105 222h207l25 -31z" />
    <glyph glyph-name="uni030C" unicode="&#x30c;" horiz-adv-x="0" 
d="M-376 620l-163 163l2 7l167 30l88 -160h4l88 160l167 -30l2 -7l-163 -163h-192z" />
    <glyph glyph-name="uni030D" unicode="&#x30d;" horiz-adv-x="0" 
d="M-40 820v-211h-80v211h80z" />
    <glyph glyph-name="uni030E" unicode="&#x30e;" horiz-adv-x="0" 
d="M-40 820v-211h-80v211h80zM-220 820v-211h-80v211h80z" />
    <glyph glyph-name="uni030F" unicode="&#x30f;" horiz-adv-x="0" 
d="M-406 601l-284 198l25 31h207l105 -222l-5 -7h-48zM-86 601l-284 198l25 31h207l105 -222l-5 -7h-48z" />
    <glyph glyph-name="uni0311" unicode="&#x311;" horiz-adv-x="0" 
d="M-446 630l-40 22c79 97 156 158 233 158s154 -61 233 -158l-40 -22c-41 51 -117 60 -193 60s-152 -9 -193 -60z" />
    <glyph glyph-name="uni0312" unicode="&#x312;" horiz-adv-x="0" 
d="M-250 752c0 58 39 127 71 159l12 1l39 -32v-11c-12 -12 -44 -71 -44 -89h54l28 -28v-104l-28 -28h-104l-28 28v104z" />
    <glyph glyph-name="uni0326" unicode="&#x326;" horiz-adv-x="0" 
d="M-40 -162c0 -56 -33 -112 -54 -139l-12 -1l-42 32v11c9 13 30 53 30 69h-44l-28 28v64l28 28h94l28 -28v-64z" />
    <glyph glyph-name="uni0400" unicode="&#x400;" horiz-adv-x="960" 
d="M524 781l-294 198l25 31h217l105 -222l-5 -7h-48zM120 680c-18 0 -52 -2 -78 -7l-16 -3l-8 7l2 35l8 8h373c80 0 441 10 441 10l9 -8l21 -208l-40 -3l-11 6c-59 142 -221 163 -381 163l-5 -280h25c72 0 113 95 137 136l11 3l31 -7v-304l-31 -7l-11 3
c-24 41 -65 136 -137 136h-25l5 -320c182 0 395 81 442 222l10 7l42 -1l7 -9l-21 -269s-440 10 -520 10h-372l-8 8l-2 35l8 7l16 -3c26 -5 60 -7 78 -7v640z" />
    <glyph glyph-name="afii10023" unicode="&#x401;" horiz-adv-x="960" 
d="M550 952l28 28h104l28 -28v-104l-28 -28h-104l-28 28v104zM290 952l28 28h104l28 -28v-104l-28 -28h-104l-28 28v104zM120 680c-18 0 -52 -2 -78 -7l-16 -3l-8 7l2 35l8 8h373c80 0 441 10 441 10l9 -8l21 -208l-40 -3l-11 6c-59 142 -221 163 -381 163l-5 -280h25
c72 0 113 95 137 136l11 3l31 -7v-304l-31 -7l-11 3c-24 41 -65 136 -137 136h-25l5 -320c182 0 395 81 442 222l10 7l42 -1l7 -9l-21 -269s-440 10 -520 10h-372l-8 8l-2 35l8 7l16 -3c26 -5 60 -7 78 -7v640z" />
    <glyph glyph-name="afii10051" unicode="&#x402;" horiz-adv-x="1260" 
d="M340 680c-160 0 -212 -21 -274 -170l-50 3l-7 9l20 200l9 8s261 -10 341 -10h242c80 0 341 10 341 10l9 -8l10 -160l-7 -9l-50 -3c-49 119 -86 130 -180 130h-84v-290h1c42 71 113 110 179 110c274 0 286 -120 340 -120v-180c0 -116 -182 -210 -405 -210l-5 5l1 30l4 5
c125 0 193 40 193 113c0 37 -31 67 -68 67v110c0 110 -28 140 -80 140c-65 0 -160 -81 -160 -230v-190c8 0 13 2 24 5l8 -7l-2 -31l-8 -8l-182 6l-252 -6l-8 8l-2 35l8 7l16 -3c26 -5 60 -6 78 -6v640z" />
    <glyph glyph-name="afii10052" unicode="&#x403;" horiz-adv-x="960" 
d="M466 781h-38l-5 7l105 222h217l25 -31zM120 40v640c-18 0 -52 -2 -78 -7l-16 -3l-8 7l2 35l8 8h412c80 0 480 10 480 10l21 -289l-7 -9l-52 -1l-10 7c-47 141 -250 242 -432 242v-640c18 0 52 1 78 6l16 3l8 -7l-2 -35l-8 -8l-252 6l-252 -6l-8 8l-2 35l8 7l16 -3
c26 -5 60 -6 78 -6z" />
    <glyph glyph-name="afii10053" unicode="&#x404;" horiz-adv-x="860" 
d="M20 382c0 209 196 348 490 348c61 0 136 -25 191 -25c27 0 50 6 63 25h40l9 -8l21 -210l-31 -3l-10 6c-60 144 -212 165 -243 165c-131 0 -205 -98 -210 -280h140c72 0 113 95 137 136l11 3l31 -7v-304l-31 -7l-11 3c-24 41 -65 136 -137 136h-140
c5 -208 78 -320 210 -320c119 0 215 78 259 136l11 -1l25 -24l-1 -11c-57 -73 -169 -150 -294 -150c-318 0 -530 157 -530 392z" />
    <glyph glyph-name="afii10054" unicode="&#x405;" horiz-adv-x="905" 
d="M36 241h51l14 -8c60 -144 219 -203 329 -203c167 0 249 37 249 78c0 67 -167 91 -323 134s-311 107 -311 253c0 121 148 235 395 235c93 0 176 -22 229 -22c27 0 46 5 55 22h65l9 -8l20 -220h-55l-10 6c-60 144 -241 182 -312 182c-125 0 -184 -36 -184 -74
c0 -62 158 -73 313 -122c151 -48 310 -98 310 -260c0 -158 -174 -244 -450 -244c-89 0 -191 35 -252 35c-21 0 -38 -4 -47 -15h-65l-9 8z" />
    <glyph glyph-name="afii10055" unicode="&#x406;" horiz-adv-x="560" 
d="M120 680c-18 0 -52 -1 -78 -6l-16 -3l-8 7l2 35l8 8l252 -6l252 6l8 -8l2 -35l-8 -7l-16 3c-26 5 -60 6 -78 6v-640c18 0 52 1 78 6l16 3l8 -7l-2 -35l-8 -8l-252 6l-252 -6l-8 8l-2 35l8 7l16 -3c26 -5 60 -6 78 -6v640z" />
    <glyph glyph-name="afii10056" unicode="&#x407;" horiz-adv-x="560" 
d="M330 952l28 28h104l28 -28v-104l-28 -28h-104l-28 28v104zM70 952l28 28h104l28 -28v-104l-28 -28h-104l-28 28v104zM120 680c-18 0 -52 -1 -78 -6l-16 -3l-8 7l2 35l8 8l252 -6l252 6l8 -8l2 -35l-8 -7l-16 3c-26 5 -60 6 -78 6v-640c18 0 52 1 78 6l16 3l8 -7l-2 -35
l-8 -8l-252 6l-252 -6l-8 8l-2 35l8 7l16 -3c26 -5 60 -6 78 -6v640z" />
    <glyph glyph-name="afii10057" unicode="&#x408;" horiz-adv-x="600" 
d="M160 680c-18 0 -82 -1 -108 -6l-16 -3l-8 7l2 35l8 8l282 -6l252 6l8 -8l2 -35l-8 -7l-16 3c-26 5 -60 6 -78 6v-410c0 -182 -154 -280 -445 -280l-5 5v30l5 5c141 0 232 57 232 143c0 59 -38 97 -97 97l-10 10v400z" />
    <glyph glyph-name="afii10058" unicode="&#x409;" horiz-adv-x="1480" 
d="M620 40l5 638c-60 2 -85 3 -105 3l-17 -1c-134 -8 -131 -116 -158 -270c-39 -221 -44 -420 -256 -420c-28 0 -57 16 -69 24l-7 9l33 174l14 4c14 -7 45 -37 135 -37c72 0 86 116 109 246c20 113 29 213 89 267l-207 -6l-8 7l2 35l8 8c169 -2 162 -2 332 -2
c171 0 342 1 512 2l8 -8l2 -35l-8 -7l-16 3c-26 5 -60 6 -78 6l-2 -288l142 2c210 0 380 -91 380 -204c0 -120 -136 -200 -340 -200l-459 11l-123 -2l-8 8l-2 35l8 7l16 -3c26 -5 60 -6 68 -6zM940 34l20 -1c117 0 180 55 180 157c0 105 -63 161 -180 161l-22 -1z" />
    <glyph glyph-name="afii10059" unicode="&#x40a;" horiz-adv-x="1520" 
d="M980 34l20 -1c117 0 180 55 180 157c0 105 -63 161 -180 161l-20 -1v-316zM660 678c-8 0 -18 0 -28 -2l-16 -3l-8 7l2 33l8 8l202 -6l252 6l8 -8l2 -35l-8 -7l-16 3c-26 5 -60 6 -78 6v-288l140 2c210 0 380 -91 380 -204c0 -120 -136 -200 -340 -200l-542 9l-8 8l-2 33
l8 7l16 -3c10 -2 20 -4 28 -4l5 308c-60 2 -95 3 -115 3s-55 -1 -115 -3l5 -306c8 0 18 0 28 2l16 3l8 -7l-2 -33l-8 -8l-202 6l-252 -6l-8 8l-2 35l8 7l16 -3c26 -5 60 -6 78 -6v640c-18 0 -52 -1 -78 -6l-16 -3l-8 7l2 35l8 8l252 -6l202 6l8 -8l2 -33l-8 -7l-16 3
c-10 2 -20 2 -28 2l-5 -286c60 -2 95 -3 115 -3s55 1 115 3z" />
    <glyph glyph-name="afii10060" unicode="&#x40b;" horiz-adv-x="1340" 
d="M340 680c-160 0 -212 -21 -274 -170l-50 3l-7 9l20 200l9 8s261 -10 341 -10h242c80 0 341 10 341 10l9 -8l10 -170l-7 -9l-50 -3c-52 134 -104 140 -264 140v-301c43 73 114 111 180 111c294 0 306 -120 380 -120v-330c18 0 52 1 78 6l16 3l8 -7l-2 -35l-8 -8l-252 6
l-162 -13l-7 7c1 8 9 69 9 81v230c0 110 -28 140 -80 140c-65 0 -160 -80 -160 -230v-180c18 0 52 1 78 6l16 3l8 -7l-2 -35l-8 -8l-252 6l-252 -6l-8 8l-2 35l8 7l16 -3c26 -5 60 -6 78 -6v640z" />
    <glyph glyph-name="afii10061" unicode="&#x40c;" horiz-adv-x="1120" 
d="M556 781h-38l-5 7l105 222h217l25 -31zM120 680c-18 0 -52 -1 -78 -6l-16 -3l-8 7l2 35l8 8l252 -3l222 3l8 -8l2 -31l-8 -7l-16 3c-12 2 -30 2 -48 2l-4 -270h36l204 246c4 4 5 9 5 14c0 13 -9 28 -9 47l8 8l372 -5l8 -8v-24l-8 -8c-20 0 -79 -19 -128 -48l-406 -239v-2
c18 -9 63 -13 113 -13c87 0 193 12 217 24l11 -4l141 -315c15 -34 39 -39 69 -39c15 0 51 1 51 1v-30l-355 -43c-2 0 -11 -1 -11 -1c-14 0 -38 16 -59 57l-120 240c-36 71 -84 94 -140 100l5 -328c18 0 52 1 78 6l16 3l8 -7l-2 -35l-8 -8l-252 6l-252 -6l-8 8l-2 35l8 7
l16 -3c26 -5 60 -6 78 -6v640z" />
    <glyph glyph-name="uni040D" unicode="&#x40d;" horiz-adv-x="1160" 
d="M644 781l-294 198l25 31h217l105 -222l-5 -7h-48zM120 680c-18 0 -52 -1 -78 -6l-16 -3l-8 7l2 35l8 8l252 -6l242 6l8 -8l2 -35l-8 -7l-16 3c-26 5 -60 6 -68 6l-1 -489l361 524l332 6l8 -8l2 -35l-8 -7l-16 3c-26 5 -60 6 -78 6v-640c18 0 52 1 78 6l16 3l8 -7l-2 -35
l-8 -8l-252 6l-242 -6l-8 8l-2 35l8 7l16 -3c26 -5 60 -6 68 -6v488l-360 -523l-332 -6l-8 8l-2 35l8 7l16 -3c26 -5 60 -6 78 -6v640z" />
    <glyph glyph-name="afii10062" unicode="&#x40e;" horiz-adv-x="970" 
d="M422 990c0 -77 51 -140 113 -140s113 63 113 140c74 0 123 -19 123 -48c0 -73 -106 -132 -236 -132s-236 59 -236 132c0 29 49 48 123 48zM645 253h16l88 148c19 41 28 85 28 126c0 80 -37 147 -113 147c-8 0 -15 -2 -23 -3l-8 7l4 35l8 8l172 -6l135 6l8 -8l3 -35
c-42 -55 -129 -213 -188 -312l-95 -160c-94 -158 -177 -216 -427 -216l-8 8l-21 87l20 8c31 -37 92 -53 144 -53c75 0 135 35 135 78c0 59 -71 98 -177 98l-25 14l-223 398c-17 31 -36 47 -80 47l-8 8v24l8 8l360 10c28 0 21 -37 41 -73z" />
    <glyph glyph-name="afii10145" unicode="&#x40f;" horiz-adv-x="1160" 
d="M120 40v640c-18 0 -52 -1 -78 -6l-16 -3l-8 7l2 35l8 8l252 -6l242 6l8 -8l2 -35l-8 -7l-16 3c-26 5 -60 6 -68 6l-5 -638c60 -2 125 -3 145 -3s85 1 145 3l-5 638c-8 0 -42 -1 -68 -6l-16 -3l-8 7l2 35l8 8l242 -6l252 6l8 -8l2 -35l-8 -7l-16 3c-26 5 -60 6 -78 6v-640
c18 0 52 1 78 6l16 3l8 -7l-2 -35l-8 -8c-152 0 -336 2 -496 2l-2 -22c0 -76 8 -165 8 -183l-10 -8h-109l-6 8c0 18 8 107 8 183l-1 22c-159 0 -345 -1 -496 -2l-8 8l-2 35l8 7l16 -3c26 -5 60 -6 78 -6z" />
    <glyph glyph-name="afii10017" unicode="&#x410;" horiz-adv-x="1010" 
d="M525 255c-33 2 -102 6 -132 6h-179c-12 -34 -18 -68 -18 -98c0 -67 31 -117 103 -117c8 0 15 2 23 3l8 -7l-4 -35l-8 -8l-162 6l-135 -6l-8 8l-3 35c93 122 216 343 291 518l69 161l50 -1l241 10c0 -8 9 -34 22 -70l244 -568c14 -32 32 -53 67 -53l6 -8l-1 -24l-9 -8
l-217 6l-199 -6l-8 8l-2 29l8 7c4 -1 14 -4 22 -4s14 8 14 17c0 4 -1 9 -2 12zM504 304l-128 293h-12l-129 -286c41 -4 128 -12 158 -12c24 0 75 3 111 5z" />
    <glyph glyph-name="afii10018" unicode="&#x411;" horiz-adv-x="1020" 
d="M440 392l180 2c210 0 380 -91 380 -204c0 -120 -136 -200 -340 -200l-632 10l-8 8l-2 35l8 6l18 -4c26 -5 58 -7 76 -7v642c-18 0 -52 -2 -78 -7l-16 -3l-8 7l2 35l8 8h412c80 0 480 10 480 10l-9 -249l-7 -9l-52 -1l-10 7c-47 141 -220 202 -402 202v-288zM440 34l40 -1
c130 0 200 55 200 157c0 105 -70 161 -200 161l-40 -1v-316z" />
    <glyph glyph-name="afii10019" unicode="&#x412;" horiz-adv-x="1030" 
d="M120 682c-18 0 -50 -2 -76 -7l-18 -4l-8 6l2 35l8 8l542 10c204 0 340 -76 340 -190c0 -66 -74 -123 -184 -154c158 -25 274 -103 274 -196c0 -120 -136 -200 -340 -200l-632 10l-8 8l-2 35l8 6l18 -4c26 -5 58 -7 76 -7v644zM440 34l40 -1c130 0 200 55 200 157
c0 105 -70 161 -200 161l-40 -1v-316zM440 394h15c110 0 155 50 155 146s-52 147 -150 147l-20 -1v-292z" />
    <glyph glyph-name="afii10020" unicode="&#x413;" horiz-adv-x="960" 
d="M120 40v640c-18 0 -52 -2 -78 -7l-16 -3l-8 7l2 35l8 8h412c80 0 480 10 480 10l21 -289l-7 -9l-52 -1l-10 7c-47 141 -250 242 -432 242v-640c18 0 52 1 78 6l16 3l8 -7l-2 -35l-8 -8l-252 6l-252 -6l-8 8l-2 35l8 7l16 -3c26 -5 60 -6 78 -6z" />
    <glyph glyph-name="afii10021" unicode="&#x414;" horiz-adv-x="1280" 
d="M1060 80h48c24 0 88 3 116 6l28 3l8 -7l-5 -247l-65 -4l-9 8c-12 127 -27 160 -124 161l-437 2l-397 -2c-97 -1 -106 -34 -124 -160l-9 -8l-65 3l-5 242l8 7c16 -3 34 -4 62 -4h69c161 0 257 200 280 330c20 112 23 213 76 267l-189 -6l-8 7l2 35l8 8
c169 -1 162 -2 332 -2c171 0 322 2 492 2l8 -8l2 -35l-8 -7l-16 3c-26 5 -60 6 -78 6v-600zM740 80v599c-40 2 -55 1 -73 2c-139 -6 -150 -116 -177 -271c-24 -137 -40 -258 -96 -330h346z" />
    <glyph glyph-name="afii10022" unicode="&#x415;" horiz-adv-x="960" 
d="M120 680c-18 0 -52 -2 -78 -7l-16 -3l-8 7l2 35l8 8h373c80 0 441 10 441 10l9 -8l21 -208l-40 -3l-11 6c-59 142 -221 163 -381 163l-5 -280h25c72 0 113 95 137 136l11 3l31 -7v-304l-31 -7l-11 3c-24 41 -65 136 -137 136h-25l5 -320c182 0 395 81 442 222l10 7l42 -1
l7 -9l-21 -269s-440 10 -520 10h-372l-8 8l-2 35l8 7l16 -3c26 -5 60 -7 78 -7v640z" />
    <glyph glyph-name="afii10024" unicode="&#x416;" horiz-adv-x="1640" 
d="M975 368l5 -328c18 0 52 1 78 6l16 3l8 -7l-2 -35l-8 -8l-252 6l-252 -6l-8 8l-2 35l8 7l16 -3c26 -5 60 -6 78 -6v328c-45 -7 -80 -30 -115 -100l-120 -240c-21 -41 -45 -57 -59 -57c0 0 -9 1 -11 1l-355 43v30s36 -1 51 -1c30 0 54 5 69 39l141 315l11 4
c24 -12 130 -24 217 -24c50 0 94 4 114 14l-407 240c-49 28 -108 48 -128 48l-8 8v24l8 8l372 5l8 -8c0 -18 -9 -34 -9 -47c0 -5 1 -10 5 -14l204 -246h12v270c-18 0 -52 -1 -78 -6l-16 -3l-8 7l2 35l8 8l252 -3l222 3l8 -8l2 -31l-8 -7l-16 3c-12 2 -30 2 -48 2l-4 -270h16
l204 246c4 4 5 9 5 14c0 13 -9 28 -9 47l8 8l372 -5l8 -8v-24l-8 -8c-20 0 -79 -20 -128 -48l-407 -240c20 -10 64 -14 114 -14c87 0 193 12 217 24l11 -4l141 -315c15 -34 39 -39 69 -39c15 0 51 1 51 1v-30l-355 -43c-2 0 -11 -1 -11 -1c-14 0 -38 16 -59 57l-120 240
c-37 72 -73 94 -120 100z" />
    <glyph glyph-name="afii10025" unicode="&#x417;" horiz-adv-x="880" 
d="M248 351l-8 8v27l8 8h67c110 0 165 50 165 146s-62 147 -160 147c-53 0 -160 -17 -210 -162l-10 -6l-40 3l21 200l9 8h49c13 -19 31 -25 52 -25c42 0 98 25 159 25c228 0 420 -76 420 -190c0 -66 -74 -123 -184 -154c158 -25 274 -103 274 -196
c0 -120 -232 -200 -520 -200c-130 0 -254 41 -311 104l1 11l25 23l11 -1c40 -44 149 -87 250 -87c130 0 224 48 224 150c0 105 -70 161 -200 161h-92z" />
    <glyph glyph-name="afii10026" unicode="&#x418;" horiz-adv-x="1160" 
d="M120 680c-18 0 -52 -1 -78 -6l-16 -3l-8 7l2 35l8 8l252 -6l242 6l8 -8l2 -35l-8 -7l-16 3c-26 5 -60 6 -68 6l-1 -489l361 524l332 6l8 -8l2 -35l-8 -7l-16 3c-26 5 -60 6 -78 6v-640c18 0 52 1 78 6l16 3l8 -7l-2 -35l-8 -8l-252 6l-242 -6l-8 8l-2 35l8 7l16 -3
c26 -5 60 -6 68 -6v488l-360 -523l-332 -6l-8 8l-2 35l8 7l16 -3c26 -5 60 -6 78 -6v640z" />
    <glyph glyph-name="afii10027" unicode="&#x419;" horiz-adv-x="1160" 
d="M507 990c0 -77 51 -140 113 -140s113 63 113 140c74 0 123 -19 123 -48c0 -73 -106 -132 -236 -132s-236 59 -236 132c0 29 49 48 123 48zM120 680c-18 0 -52 -1 -78 -6l-16 -3l-8 7l2 35l8 8l252 -6l242 6l8 -8l2 -35l-8 -7l-16 3c-26 5 -60 6 -68 6l-1 -489l361 524
l332 6l8 -8l2 -35l-8 -7l-16 3c-26 5 -60 6 -78 6v-640c18 0 52 1 78 6l16 3l8 -7l-2 -35l-8 -8l-252 6l-242 -6l-8 8l-2 35l8 7l16 -3c26 -5 60 -6 68 -6v488l-360 -523l-332 -6l-8 8l-2 35l8 7l16 -3c26 -5 60 -6 78 -6v640z" />
    <glyph glyph-name="afii10028" unicode="&#x41a;" horiz-adv-x="1120" 
d="M120 680c-18 0 -52 -1 -78 -6l-16 -3l-8 7l2 35l8 8l252 -3l222 3l8 -8l2 -31l-8 -7l-16 3c-12 2 -30 2 -48 2l-4 -270h36l204 246c4 4 5 9 5 14c0 13 -9 28 -9 47l8 8l372 -5l8 -8v-24l-8 -8c-20 0 -79 -19 -128 -48l-406 -239v-2c18 -9 63 -13 113 -13
c87 0 193 12 217 24l11 -4l141 -315c15 -34 39 -39 69 -39c15 0 51 1 51 1v-30l-355 -43c-2 0 -11 -1 -11 -1c-14 0 -38 16 -59 57l-120 240c-36 71 -84 94 -140 100l5 -328c18 0 52 1 78 6l16 3l8 -7l-2 -35l-8 -8l-252 6l-252 -6l-8 8l-2 35l8 7l16 -3c26 -5 60 -6 78 -6
v640z" />
    <glyph glyph-name="afii10029" unicode="&#x41b;" horiz-adv-x="1100" 
d="M665 678c-60 2 -125 3 -145 3h-5c-128 -12 -144 -120 -170 -271c-39 -221 -44 -420 -256 -420c-28 0 -57 16 -69 24l-7 9l33 174l14 4c22 -14 60 -36 105 -36c92 0 111 86 139 245c20 112 18 213 71 267l-189 -6l-8 7l2 35l8 8c169 -1 162 -2 332 -2c171 0 382 1 552 2
l8 -8l2 -35l-8 -7l-16 3c-26 5 -60 6 -78 6v-640c18 0 52 1 78 6l16 3l8 -7l-2 -35l-8 -8l-252 6l-242 -6l-8 8l-2 35l8 7l16 -3c26 -5 60 -6 68 -6z" />
    <glyph glyph-name="afii10030" unicode="&#x41c;" horiz-adv-x="1320" 
d="M856 720h406l8 -8v-14l-8 -8c-71 0 -92 -15 -92 -68l10 -462c2 -93 38 -113 73 -113c7 0 14 1 21 2l8 -7l-2 -35l-8 -8l-252 6l-252 -6l-8 8l-2 35l8 7c7 -1 15 -2 22 -2c35 0 72 19 72 113l-10 444l-162 -300c0 -128 -101 -202 -101 -306l-10 -8h-60l-11 10l-326 604
l-10 -345c0 -157 47 -213 134 -213c9 0 17 1 26 3l8 -7l-3 -35l-8 -8l-192 6l-107 -6l-8 8l-2 35l8 7c7 -1 14 -2 21 -2c35 0 71 20 73 113l10 462c0 53 -21 68 -92 68l-8 8v14l8 8h423l198 -365z" />
    <glyph glyph-name="afii10031" unicode="&#x41d;" horiz-adv-x="1160" 
d="M120 680c-18 0 -52 -1 -78 -6l-16 -3l-8 7l2 35l8 8l252 -6l242 6l8 -8l2 -35l-8 -7l-16 3c-26 5 -60 6 -68 6l-3 -277c60 -2 123 -4 143 -4s85 2 145 4l-5 277c-8 0 -42 -1 -68 -6l-16 -3l-8 7l2 35l8 8l242 -6l252 6l8 -8l2 -35l-8 -7l-16 3c-26 5 -60 6 -78 6v-640
c18 0 52 1 78 6l16 3l8 -7l-2 -35l-8 -8l-252 6l-242 -6l-8 8l-2 35l8 7l16 -3c26 -5 60 -6 68 -6l5 318c-60 2 -125 3 -145 3s-83 -1 -143 -3l3 -318c8 0 42 1 68 6l16 3l8 -7l-2 -35l-8 -8l-242 6l-252 -6l-8 8l-2 35l8 7l16 -3c26 -5 60 -6 78 -6v640z" />
    <glyph glyph-name="afii10032" unicode="&#x41e;" horiz-adv-x="1020" 
d="M510 -10c-288 0 -480 148 -480 370s192 370 480 370s480 -148 480 -370s-192 -370 -480 -370zM530 35c102 0 140 91 140 325s-49 325 -180 325c-102 0 -140 -91 -140 -325s49 -325 180 -325z" />
    <glyph glyph-name="afii10033" unicode="&#x41f;" horiz-adv-x="1160" 
d="M120 40v640c-18 0 -52 -1 -78 -6l-16 -3l-8 7l2 35l8 8c169 -1 382 -2 552 -2c171 0 382 1 552 2l8 -8l2 -35l-8 -7l-16 3c-26 5 -60 6 -78 6v-640c18 0 52 1 78 6l16 3l8 -7l-2 -35l-8 -8l-252 6l-242 -6l-8 8l-2 35l8 7l16 -3c26 -5 60 -6 68 -6l5 638
c-60 2 -125 3 -145 3s-85 -1 -145 -3l5 -638c8 0 42 1 68 6l16 3l8 -7l-2 -35l-8 -8l-242 6l-252 -6l-8 8l-2 35l8 7l16 -3c26 -5 60 -6 78 -6z" />
    <glyph glyph-name="afii10034" unicode="&#x420;" horiz-adv-x="1030" 
d="M120 682c-18 0 -50 -2 -76 -7l-18 -4l-8 6l2 35l8 8l612 10h13c226 0 347 -88 347 -250s-126 -250 -360 -250l-200 3v-193c18 0 52 1 78 6l16 3l8 -7l-2 -35l-8 -8l-252 6l-252 -6l-8 8l-2 35l8 7l16 -3c26 -5 60 -6 78 -6v642zM460 273c143 0 220 72 220 207
s-77 207 -220 207l-20 -1v-412z" />
    <glyph glyph-name="afii10035" unicode="&#x421;" horiz-adv-x="880" 
d="M510 730c87 0 172 -20 225 -20c26 0 44 5 50 20h40l9 -8l21 -213h-63l-10 6c-41 149 -182 170 -242 170c-124 0 -190 -114 -190 -325c0 -208 74 -325 210 -325c119 0 215 83 259 141l11 -1l25 -24l-1 -11c-57 -73 -169 -150 -294 -150c-318 0 -530 148 -530 370
s192 370 480 370z" />
    <glyph glyph-name="afii10036" unicode="&#x422;" 
d="M340 680c-160 0 -212 -21 -274 -170l-50 3l-7 9l20 200l9 8s261 -10 341 -10h242c80 0 341 10 341 10l9 -8l20 -200l-7 -9l-50 -3c-62 149 -114 170 -274 170v-640c18 0 52 1 78 6l16 3l8 -7l-2 -35l-8 -8l-252 6l-252 -6l-8 8l-2 35l8 7l16 -3c26 -5 60 -6 78 -6v640z
" />
    <glyph glyph-name="afii10037" unicode="&#x423;" horiz-adv-x="970" 
d="M645 253h16l88 148c19 41 28 85 28 126c0 80 -37 147 -113 147c-8 0 -15 -2 -23 -3l-8 7l4 35l8 8l172 -6l135 6l8 -8l3 -35c-42 -55 -129 -213 -188 -312l-95 -160c-94 -158 -177 -216 -427 -216l-8 8l-21 87l20 8c31 -37 92 -53 144 -53c75 0 135 35 135 78
c0 59 -71 98 -177 98l-25 14l-223 398c-17 31 -36 47 -80 47l-8 8v24l8 8l360 10c28 0 21 -37 41 -73z" />
    <glyph glyph-name="afii10038" unicode="&#x424;" horiz-adv-x="1240" 
d="M760 598v-476c118 33 180 114 180 238s-62 205 -180 238zM480 598c-118 -33 -180 -114 -180 -238s62 -205 180 -238v476zM760 86c0 -14 8 -73 9 -81l-7 -7l-142 3l-142 -3l-7 7c1 8 9 66 9 81c-281 25 -460 129 -460 274s179 249 460 274c0 15 -8 73 -9 81l7 7l142 -3
l142 3l7 -7c-1 -8 -9 -67 -9 -81c281 -25 460 -129 460 -274s-179 -249 -460 -274z" />
    <glyph glyph-name="afii10039" unicode="&#x425;" horiz-adv-x="980" 
d="M426 652l165 -217l58 50c42 36 61 75 61 108c0 46 -37 81 -104 81c-8 0 -15 -2 -23 -3l-8 7l4 35l8 8l212 -6l135 6l8 -8l3 -35c-42 -55 -76 -67 -238 -209l-85 -73l255 -310c23 -28 41 -58 85 -58l8 -7v-14l-8 -8c-122 -3 -366 -10 -366 -10c-15 0 -18 13 -22 30
c-3 13 -7 29 -18 43l-175 229l-65 -56c-44 -38 -65 -79 -65 -113c0 -43 34 -76 98 -76c8 0 15 2 23 3l8 -7l-4 -35l-8 -8l-212 6l-135 -6l-8 8l-3 35c42 55 91 67 251 211l89 78l-245 297c-23 27 -36 58 -80 58l-8 7v14l8 8c120 3 361 10 361 10c15 0 18 -13 22 -30
c3 -13 7 -29 18 -43z" />
    <glyph glyph-name="afii10040" unicode="&#x426;" horiz-adv-x="1240" 
d="M1207 -204l-10 -8h-102l-6 8c0 30 46 85 50 202c-166 2 -411 3 -559 3c-170 0 -383 -1 -552 -2l-8 8l-2 35l8 7l16 -3c26 -5 60 -6 78 -6v640c-18 0 -52 -1 -78 -6l-16 -3l-8 7l2 35l8 8l252 -6l242 6l8 -8l2 -35l-8 -7l-16 3c-26 5 -60 6 -68 6l-5 -638
c60 -2 125 -3 145 -3s85 1 145 3l-5 638c-8 0 -42 -1 -68 -6l-16 -3l-8 7l2 35l8 8l242 -6l252 6l8 -8l2 -35l-8 -7l-16 3c-26 5 -60 6 -78 6v-640c18 0 103 3 158 13l16 3l8 -7l-3 -70c-2 -66 -6 -166 -12 -183z" />
    <glyph glyph-name="afii10041" unicode="&#x427;" horiz-adv-x="1120" 
d="M1000 681v-641c18 0 42 1 68 6l16 3l8 -7l-1 -34l-8 -8l-243 5l-252 -6l-8 8l-2 35l8 7l16 -3c26 -5 60 -6 78 -6l2 198c-63 -24 -127 -28 -182 -28c-274 0 -326 110 -380 110v361c-18 0 -52 -1 -78 -6l-16 -3l-8 7l2 35l8 8l212 -6l202 13l7 -7c-1 -8 -9 -69 -9 -81
v-261c0 -84 23 -130 75 -130c37 0 101 6 165 34v357c0 12 -8 73 -9 81l7 7l182 -13l232 6l8 -8l2 -35l-8 -7l-16 3c-26 5 -60 6 -78 6z" />
    <glyph glyph-name="afii10042" unicode="&#x428;" horiz-adv-x="1530" 
d="M120 40v640c-18 0 -52 -1 -78 -6l-16 -3l-8 7l2 35l8 8l252 -6l242 6l8 -8l2 -35l-8 -7l-16 3c-26 5 -60 6 -68 6v-638c24 -1 90 -2 160 -2v594c0 13 -8 73 -9 81l7 7l162 -3l162 3l7 -7c-1 -8 -9 -69 -9 -81v-594c61 0 135 1 170 2v638c-8 0 -42 -1 -68 -6l-16 -3l-8 7
l2 35l8 8l242 -6l252 6l8 -8l2 -35l-8 -7l-16 3c-26 5 -60 6 -78 6v-640c18 0 52 1 78 6l16 3l8 -7l-2 -35l-8 -8c-170 1 -571 2 -742 2c-170 0 -563 -1 -732 -2l-8 8l-2 35l8 7l16 -3c26 -5 60 -6 78 -6z" />
    <glyph glyph-name="afii10043" unicode="&#x429;" horiz-adv-x="1610" 
d="M120 40v640c-18 0 -52 -1 -78 -6l-16 -3l-8 7l2 35l8 8l252 -6l242 6l8 -8l2 -35l-8 -7l-16 3c-26 5 -60 6 -68 6v-638c24 -1 90 -2 160 -2v594c0 13 -8 73 -9 81l7 7l162 -3l162 3l7 -7c-1 -8 -9 -69 -9 -81v-594c61 0 135 1 170 2v638c-8 0 -42 -1 -68 -6l-16 -3l-8 7
l2 35l8 8l242 -6l252 6l8 -8l2 -35l-8 -7l-16 3c-26 5 -60 6 -78 6v-640c18 0 103 3 158 13l16 3l8 -7l-3 -70c-3 -66 -6 -166 -12 -183l-10 -8h-102l-6 8c0 30 46 86 50 203c-206 1 -598 2 -749 2c-170 0 -563 -1 -732 -2l-8 8l-2 35l8 7l16 -3c26 -5 60 -6 78 -6z" />
    <glyph glyph-name="afii10044" unicode="&#x42a;" horiz-adv-x="1260" 
d="M680 34l40 -1c130 0 200 55 200 157c0 105 -70 161 -200 161l-40 -1v-316zM30 730l490 -15l252 6l8 -8l2 -35l-8 -7l-16 3c-26 5 -60 6 -78 6v-288l180 2c210 0 380 -91 380 -204c0 -120 -136 -200 -340 -200l-632 10l-8 8l-2 35l8 6l18 -4c26 -5 58 -7 76 -7v642
c-182 0 -281 -40 -301 -212l-11 -7l-22 1l-7 9z" />
    <glyph glyph-name="afii10045" unicode="&#x42b;" horiz-adv-x="1540" 
d="M440 34l20 -1c130 0 200 55 200 157c0 105 -70 161 -200 161l-20 -1v-316zM440 680v-288l160 2c210 0 380 -91 380 -204c0 -120 -136 -200 -340 -200l-612 10l-8 8l-2 35l8 6l18 -4c26 -5 58 -7 76 -7v642c-18 0 -52 -1 -78 -6l-16 -3l-8 7l2 35l8 8l252 -6l252 6l8 -8
l2 -35l-8 -7l-16 3c-26 5 -60 6 -78 6zM1100 680c-18 0 -52 -1 -78 -6l-16 -3l-8 7l2 35l8 8l252 -6l252 6l8 -8l2 -35l-8 -7l-16 3c-26 5 -60 6 -78 6v-640c18 0 52 1 78 6l16 3l8 -7l-2 -35l-8 -8l-252 6l-252 -6l-8 8l-2 35l8 7l16 -3c26 -5 60 -6 78 -6v640z" />
    <glyph glyph-name="afii10046" unicode="&#x42c;" horiz-adv-x="1020" 
d="M440 34l40 -1c130 0 200 55 200 157c0 105 -70 161 -200 161l-40 -1v-316zM440 680v-288l180 2c210 0 380 -91 380 -204c0 -120 -136 -200 -340 -200l-632 10l-8 8l-2 35l8 6l18 -4c26 -5 58 -7 76 -7v642c-18 0 -52 -1 -78 -6l-16 -3l-8 7l2 35l8 8l252 -6l252 6l8 -8
l2 -35l-8 -7l-16 3c-26 5 -60 6 -78 6z" />
    <glyph glyph-name="afii10047" unicode="&#x42d;" horiz-adv-x="860" 
d="M840 382c0 -235 -212 -392 -530 -392c-125 0 -237 77 -294 150l-1 11l25 24l11 1c44 -58 140 -136 259 -136c132 0 205 112 210 320h-140c-72 0 -113 -95 -137 -136l-11 -3l-31 7v304l31 7l11 -3c24 -41 65 -136 137 -136h140c-5 182 -79 280 -210 280
c-31 0 -183 -21 -243 -165l-10 -6l-41 3l21 210l9 8h50c13 -19 36 -25 63 -25c55 0 130 25 191 25c294 0 490 -139 490 -348z" />
    <glyph glyph-name="afii10048" unicode="&#x42e;" horiz-adv-x="1520" 
d="M1050 35c102 0 130 91 130 325s-39 325 -170 325c-102 0 -130 -91 -130 -325s39 -325 170 -325zM120 680c-18 0 -52 -1 -78 -6l-16 -3l-8 7l2 35l8 8l252 -6l252 6l8 -8l2 -35l-8 -7l-16 3c-26 5 -60 6 -78 6v-301l60 -1l60 1c10 211 190 351 470 351
c288 0 470 -148 470 -370s-182 -370 -470 -370c-280 0 -460 140 -470 351l-60 1l-60 -1v-301c18 0 52 1 78 6l16 3l8 -7l-2 -35l-8 -8l-252 6l-252 -6l-8 8l-2 35l8 7l16 -3c26 -5 60 -6 78 -6v640z" />
    <glyph glyph-name="afii10049" unicode="&#x42f;" horiz-adv-x="1080" 
d="M960 682v-642c18 0 52 1 78 6l16 3l8 -7l-2 -35l-8 -8l-332 6l-152 -6l-8 8l-2 34l8 7l16 -3c18 -3 40 -5 58 -5l5 250h-86c-91 -190 -108 -300 -320 -300c-58 0 -111 9 -199 24l-7 9l33 184l55 27c43 -19 134 -70 224 -70c72 0 125 36 165 126h-104
c-148 2 -326 96 -326 230c0 126 104 210 260 210l712 -10l8 -8l2 -35l-8 -6l-18 4c-26 5 -58 7 -76 7zM640 686l-40 1c-130 0 -200 -58 -200 -167c0 -122 70 -187 200 -187l45 1z" />
    <glyph glyph-name="afii10065" unicode="&#x430;" horiz-adv-x="960" 
d="M840 39c18 0 42 1 68 6l16 3l8 -7l-1 -34l-8 -8l-183 6l-128 -11l-7 7c0 12 -20 136 -20 148h-3c-37 -104 -122 -159 -202 -159c-221 0 -340 94 -340 270s119 270 340 270c82 0 130 -50 180 -50c61 0 110 31 120 47l162 -7l7 -7c-1 -8 -9 -69 -9 -81v-393zM560 440
c-66 0 -113 50 -163 50s-77 -49 -77 -140v-180c0 -110 28 -140 80 -140c65 0 159 80 160 230v180z" />
    <glyph glyph-name="afii10066" unicode="&#x431;" horiz-adv-x="800" 
d="M112 450l3 -3c66 53 163 83 285 83c240 0 380 -108 380 -270s-140 -270 -380 -270c-228 0 -380 148 -380 370c0 235 138 392 345 392c64 0 129 -21 200 -21c43 0 75 8 75 31l8 8h64l8 -8c0 -87 -67 -162 -149 -162c-72 0 -157 32 -216 32c-112 0 -199 -68 -243 -182z
M400 490c-52 0 -120 -30 -120 -140v-180c0 -110 68 -140 120 -140c85 0 128 115 128 230s-43 230 -128 230z" />
    <glyph glyph-name="afii10067" unicode="&#x432;" horiz-adv-x="940" 
d="M400 34l80 -1c78 0 160 37 160 107c0 72 -82 111 -160 111l-80 -1v-216zM400 294h55c68 0 145 34 145 96c0 63 -75 97 -140 97l-60 -1v-192zM120 482c-18 0 -50 -2 -76 -7l-18 -4l-8 6l2 35l8 8l532 10c162 0 270 -56 270 -140c0 -44 -52 -83 -131 -106
c129 -22 221 -78 221 -144c0 -90 -120 -150 -300 -150l-592 10l-8 8l-2 35l8 6l18 -4c26 -5 58 -7 76 -7v444z" />
    <glyph glyph-name="afii10068" unicode="&#x433;" horiz-adv-x="860" 
d="M120 40v440c-18 0 -52 -2 -78 -7l-16 -3l-8 7l2 35l8 8h412c80 0 390 10 390 10l11 -259l-7 -9l-52 -1l-10 7c-47 141 -150 212 -332 212v-440c18 0 52 1 78 6l16 3l8 -7l-2 -35l-8 -8l-252 6l-252 -6l-8 8l-2 35l8 7l16 -3c26 -5 60 -6 78 -6z" />
    <glyph glyph-name="afii10069" unicode="&#x434;" horiz-adv-x="1060" 
d="M880 80h8c24 0 88 3 116 6l28 3l8 -7l-5 -247l-65 -4l-9 8c-12 127 -27 160 -124 161l-317 2l-297 -2c-97 -1 -106 -34 -124 -160l-9 -8l-65 3l-5 242l8 7c16 -3 34 -4 62 -4h19c144 0 201 76 220 166c17 80 19 172 70 230l-173 -5l-8 7l2 35l8 8c169 -1 162 -2 332 -2
c171 0 242 1 412 2l8 -8l2 -35l-8 -7l-16 3c-26 5 -60 6 -78 6v-400zM600 80v400h-40l-21 -1c-128 -6 -139 -128 -161 -242c-12 -61 -31 -118 -64 -157h286z" />
    <glyph glyph-name="afii10070" unicode="&#x435;" horiz-adv-x="785" 
d="M544 299c-7 118 -48 191 -118 191c-69 0 -110 -69 -119 -179c35 -3 135 -13 168 -13c10 0 36 0 69 1zM760 255c0 0 -245 5 -285 5h-170c0 -150 53 -222 144 -222c100 0 193 42 233 86l11 1l22 -20l1 -11c-57 -63 -161 -104 -291 -104c-240 0 -400 108 -400 270
s162 270 400 270c204 0 340 -108 340 -270z" />
    <glyph glyph-name="afii10072" unicode="&#x436;" horiz-adv-x="1440" 
d="M580 40v228c-49 -6 -79 -29 -115 -100l-65 -130c-21 -41 -44 -57 -58 -57h-2l-340 29v30c54 0 98 12 120 63l81 195l11 4c24 -12 120 -24 202 -24c46 0 87 4 107 13l-295 141c-51 24 -108 48 -128 48l-8 8v24l8 8l332 5l8 -8c0 -19 -9 -34 -9 -47c0 -5 1 -10 5 -14
l132 -146h14v124c0 12 -8 73 -9 81l7 7l142 -3l142 3l7 -7c-1 -8 -9 -69 -9 -81v-124h14l132 146c4 4 5 9 5 14c0 13 -9 28 -9 47l8 8l332 -5l8 -8v-24l-8 -8c-20 0 -77 -24 -128 -48l-295 -141c20 -9 61 -13 107 -13c82 0 178 12 202 24l11 -4l81 -195
c22 -51 66 -63 120 -63v-30l-340 -29h-2c-14 0 -37 16 -58 57l-65 130c-36 71 -66 94 -115 100v-228c18 0 52 1 78 6l16 3l8 -7l-2 -35l-8 -8l-232 6l-232 -6l-8 8l-2 35l8 7l16 -3c26 -5 60 -6 78 -6z" />
    <glyph glyph-name="afii10073" unicode="&#x437;" horiz-adv-x="780" 
d="M230 251l-8 8v27l8 8h65c68 0 145 34 145 96c0 63 -74 97 -140 97c-53 0 -160 -17 -210 -162l-10 -6l-30 3l21 200l9 8h39c13 -19 31 -25 52 -25c42 0 98 25 159 25c204 0 340 -56 340 -140c0 -44 -54 -83 -131 -105v-2c127 -22 221 -77 221 -143
c0 -90 -166 -150 -416 -150c-130 0 -254 41 -311 104l1 11l25 23l11 -1c40 -44 149 -97 250 -97c78 0 160 40 160 110c0 72 -82 111 -160 111h-90z" />
    <glyph glyph-name="afii10074" unicode="&#x438;" 
d="M600 42v310l-280 -347l-292 -6l-8 8l-2 35l8 7l16 -3c26 -5 60 -6 78 -6v440c-18 0 -52 -1 -78 -6l-16 -3l-8 7l2 35l8 8l232 -6l182 6l8 -8l2 -33l-8 -7l-16 3c-10 2 -20 2 -28 2l-1 -311l281 348l292 6l8 -8l2 -35l-8 -7l-16 3c-26 5 -60 6 -78 6v-440c18 0 52 1 78 6
l16 3l8 -7l-2 -35l-8 -8l-232 6l-182 -6l-8 8l-2 33l8 7l16 -3c10 -2 20 -2 28 -2z" />
    <glyph glyph-name="afii10075" unicode="&#x439;" 
d="M407 810c0 -77 51 -140 113 -140s113 63 113 140c74 0 123 -19 123 -48c0 -73 -106 -132 -236 -132s-236 59 -236 132c0 29 49 48 123 48zM600 42v310l-280 -347l-292 -6l-8 8l-2 35l8 7l16 -3c26 -5 60 -6 78 -6v440c-18 0 -52 -1 -78 -6l-16 -3l-8 7l2 35l8 8l232 -6
l182 6l8 -8l2 -33l-8 -7l-16 3c-10 2 -20 2 -28 2l-1 -311l281 348l292 6l8 -8l2 -35l-8 -7l-16 3c-26 5 -60 6 -78 6v-440c18 0 52 1 78 6l16 3l8 -7l-2 -35l-8 -8l-232 6l-182 -6l-8 8l-2 33l8 7l16 -3c10 -2 20 -2 28 -2z" />
    <glyph glyph-name="afii10076" unicode="&#x43a;" 
d="M120 480c-18 0 -52 -1 -78 -6l-16 -3l-8 7l1 34l8 8l213 -5l162 13l7 -7c-1 -8 -9 -69 -9 -81v-130h34l132 146c4 4 5 9 5 14c0 13 -9 28 -9 47l8 8l332 -5l8 -8v-24l-8 -8c-20 0 -77 -24 -128 -48l-295 -141c20 -9 61 -13 107 -13c82 0 178 12 202 24l11 -4l81 -195
c22 -51 66 -63 120 -63v-30l-340 -29h-2c-14 0 -37 16 -58 57l-65 130c-35 69 -81 92 -135 99v-227c18 0 52 1 78 6l16 3l8 -7l-2 -35l-8 -8l-232 6l-232 -6l-8 8l-2 35l8 7l16 -3c26 -5 60 -6 78 -6v440z" />
    </font>
</defs>
</svg>
